<ttFont>
    <TTGlyph name=".notdef" xMin="123" yMin="0" xMax="543" yMax="689">
      <contour>
        <pt x="123" y="689" on="1"/>
        <pt x="543" y="689" on="1"/>
        <pt x="543" y="0" on="1"/>
        <pt x="123" y="0" on="1"/>
      </contour>
      <contour>
        <pt x="489" y="52" on="1"/>
        <pt x="489" y="637" on="1"/>
        <pt x="178" y="637" on="1"/>
        <pt x="178" y="52" on="1"/>
      </contour>
      <contour>
        <pt x="231" y="497" on="1"/>
        <pt x="231" y="517" on="0"/>
        <pt x="295" y="536" on="0"/>
        <pt x="324" y="536" on="1"/>
        <pt x="388" y="536" on="0"/>
        <pt x="435" y="466" on="0"/>
        <pt x="435" y="421" on="1"/>
        <pt x="435" y="369" on="0"/>
        <pt x="390" y="310" on="0"/>
        <pt x="340" y="303" on="1"/>
        <pt x="340" y="258" on="1"/>
        <pt x="340" y="247" on="0"/>
        <pt x="324" y="234" on="0"/>
        <pt x="315" y="234" on="1"/>
        <pt x="305" y="234" on="0"/>
        <pt x="290" y="247" on="0"/>
        <pt x="290" y="258" on="1"/>
        <pt x="290" y="342" on="1"/>
        <pt x="344" y="345" on="0"/>
        <pt x="381" y="379" on="0"/>
        <pt x="381" y="419" on="1"/>
        <pt x="381" y="448" on="0"/>
        <pt x="357" y="488" on="0"/>
        <pt x="320" y="488" on="1"/>
        <pt x="304" y="488" on="0"/>
        <pt x="281" y="483" on="0"/>
        <pt x="268" y="477" on="1"/>
        <pt x="264" y="476" on="0"/>
        <pt x="258" y="474" on="0"/>
        <pt x="255" y="474" on="1"/>
        <pt x="244" y="474" on="0"/>
        <pt x="231" y="487" on="0"/>
      </contour>
      <contour>
        <pt x="280" y="170" on="1"/>
        <pt x="280" y="185" on="0"/>
        <pt x="300" y="205" on="0"/>
        <pt x="315" y="205" on="1"/>
        <pt x="330" y="205" on="0"/>
        <pt x="350" y="185" on="0"/>
        <pt x="350" y="170" on="1"/>
        <pt x="350" y="154" on="0"/>
        <pt x="330" y="133" on="0"/>
        <pt x="315" y="133" on="1"/>
        <pt x="300" y="133" on="0"/>
        <pt x="280" y="154" on="0"/>
      </contour>
    </TTGlyph>
    <TTGlyph name="A" xMin="6" yMin="0" xMax="567" yMax="689">
      <contour>
        <pt x="285" y="610" on="1"/>
        <pt x="177" y="250" on="1"/>
        <pt x="392" y="250" on="1"/>
      </contour>
      <contour>
        <pt x="467" y="0" on="1"/>
        <pt x="415" y="173" on="1"/>
        <pt x="154" y="173" on="1"/>
        <pt x="102" y="0" on="1"/>
        <pt x="6" y="0" on="1"/>
        <pt x="227" y="689" on="1"/>
        <pt x="347" y="689" on="1"/>
        <pt x="567" y="0" on="1"/>
      </contour>
    </TTGlyph>
    <TTGlyph name="AE" xMin="-12" yMin="0" xMax="762" yMax="689">
      <contour>
        <pt x="316" y="613" on="1"/>
        <pt x="179" y="250" on="1"/>
        <pt x="400" y="250" on="1"/>
      </contour>
      <contour>
        <pt x="458" y="0" on="1"/>
        <pt x="418" y="173" on="1"/>
        <pt x="150" y="173" on="1"/>
        <pt x="85" y="0" on="1"/>
        <pt x="-12" y="0" on="1"/>
        <pt x="262" y="689" on="1"/>
        <pt x="721" y="689" on="1"/>
        <pt x="710" y="613" on="1"/>
        <pt x="401" y="613" on="1"/>
        <pt x="457" y="387" on="1"/>
        <pt x="712" y="387" on="1"/>
        <pt x="712" y="311" on="1"/>
        <pt x="476" y="311" on="1"/>
        <pt x="535" y="76" on="1"/>
        <pt x="762" y="76" on="1"/>
        <pt x="762" y="0" on="1"/>
      </contour>
    </TTGlyph>
    <TTGlyph name="AEacute" xMin="-12" yMin="0" xMax="762" yMax="911">
      <component glyphName="AE" x="0" y="0" flags="0x204"/>
      <component glyphName="acute.case" x="326" y="0" flags="0x4"/>
    </TTGlyph>
    <TTGlyph name="Aacute" xMin="6" yMin="0" xMax="567" yMax="911">
      <component glyphName="A" x="0" y="0" flags="0x204"/>
      <component glyphName="acute.case" x="139" y="0" flags="0x4"/>
    </TTGlyph>
    <TTGlyph name="Abreve" xMin="6" yMin="0" xMax="567" yMax="894">
      <component glyphName="A" x="0" y="0" flags="0x204"/>
      <component glyphName="breve.case" x="105" y="0" flags="0x4"/>
    </TTGlyph>
    <TTGlyph name="Acircumflex" xMin="6" yMin="0" xMax="567" yMax="914">
      <component glyphName="A" x="0" y="0" flags="0x204"/>
      <component glyphName="circumflex.case" x="91" y="0" flags="0x4"/>
    </TTGlyph>
    <TTGlyph name="Adieresis" xMin="6" yMin="0" xMax="567" yMax="894">
      <component glyphName="A" x="0" y="0" flags="0x204"/>
      <component glyphName="dieresis.case" x="94" y="0" flags="0x4"/>
    </TTGlyph>
    <TTGlyph name="Agrave" xMin="6" yMin="0" xMax="567" yMax="911">
      <component glyphName="A" x="0" y="0" flags="0x204"/>
      <component glyphName="grave.case" x="127" y="0" flags="0x4"/>
    </TTGlyph>
    <TTGlyph name="Alpha" xMin="6" yMin="0" xMax="567" yMax="689">
      <component glyphName="A" x="0" y="0" flags="0x204"/>
    </TTGlyph>
    <TTGlyph name="Alphatonos" xMin="-12" yMin="0" xMax="567" yMax="707">
      <component glyphName="A" x="0" y="0" flags="0x204"/>
      <component glyphName="tonos.case" x="-42" y="0" flags="0x4"/>
    </TTGlyph>
    <TTGlyph name="Amacron" xMin="6" yMin="0" xMax="567" yMax="856">
      <component glyphName="A" x="0" y="0" flags="0x204"/>
      <component glyphName="macron.case" x="120" y="-6" flags="0x4"/>
    </TTGlyph>
    <TTGlyph name="Aogonek" xMin="6" yMin="-232" xMax="567" yMax="689">
      <component glyphName="A" x="0" y="0" flags="0x204"/>
      <component glyphName="ogonek" x="329" y="0" flags="0x4"/>
    </TTGlyph>
    <TTGlyph name="Aring" xMin="6" yMin="0" xMax="567" yMax="962">
      <component glyphName="A" x="0" y="0" flags="0x204"/>
      <component glyphName="ring.case" x="143" y="0" flags="0x4"/>
    </TTGlyph>
    <TTGlyph name="Atilde" xMin="6" yMin="0" xMax="567" yMax="900">
      <component glyphName="A" x="0" y="0" flags="0x204"/>
      <component glyphName="tilde.case" x="90" y="0" flags="0x4"/>
    </TTGlyph>
    <TTGlyph name="B" xMin="100" yMin="0" xMax="563" yMax="689">
      <contour>
        <pt x="100" y="689" on="1"/>
        <pt x="263" y="689" on="1"/>
        <pt x="390" y="689" on="0"/>
        <pt x="533" y="605" on="0"/>
        <pt x="533" y="515" on="1"/>
        <pt x="533" y="452" on="0"/>
        <pt x="454" y="374" on="0"/>
        <pt x="404" y="364" on="1"/>
        <pt x="464" y="354" on="0"/>
        <pt x="563" y="283" on="0"/>
        <pt x="563" y="196" on="1"/>
        <pt x="563" y="87" on="0"/>
        <pt x="409" y="0" on="0"/>
        <pt x="290" y="0" on="1"/>
        <pt x="100" y="0" on="1"/>
      </contour>
      <contour>
        <pt x="195" y="614" on="1"/>
        <pt x="195" y="397" on="1"/>
        <pt x="299" y="397" on="1"/>
        <pt x="356" y="397" on="0"/>
        <pt x="436" y="454" on="0"/>
        <pt x="436" y="508" on="1"/>
        <pt x="436" y="571" on="0"/>
        <pt x="349" y="614" on="0"/>
        <pt x="273" y="614" on="1"/>
      </contour>
      <contour>
        <pt x="195" y="76" on="1"/>
        <pt x="290" y="76" on="1"/>
        <pt x="365" y="76" on="0"/>
        <pt x="463" y="121" on="0"/>
        <pt x="463" y="196" on="1"/>
        <pt x="463" y="268" on="0"/>
        <pt x="370" y="324" on="0"/>
        <pt x="308" y="324" on="1"/>
        <pt x="195" y="324" on="1"/>
      </contour>
    </TTGlyph>
    <TTGlyph name="Beta" xMin="100" yMin="0" xMax="563" yMax="689">
      <component glyphName="B" x="0" y="0" flags="0x204"/>
    </TTGlyph>
    <TTGlyph name="C" xMin="55" yMin="-12" xMax="540" yMax="701">
      <contour>
        <pt x="55" y="345" on="1"/>
        <pt x="55" y="432" on="0"/>
        <pt x="101" y="566" on="0"/>
        <pt x="178" y="655" on="0"/>
        <pt x="283" y="701" on="0"/>
        <pt x="341" y="701" on="1"/>
        <pt x="406" y="701" on="0"/>
        <pt x="491" y="666" on="0"/>
        <pt x="532" y="633" on="1"/>
        <pt x="480" y="572" on="1"/>
        <pt x="448" y="598" on="0"/>
        <pt x="383" y="623" on="0"/>
        <pt x="347" y="623" on="1"/>
        <pt x="269" y="623" on="0"/>
        <pt x="156" y="500" on="0"/>
        <pt x="156" y="345" on="1"/>
        <pt x="156" y="196" on="0"/>
        <pt x="266" y="68" on="0"/>
        <pt x="346" y="68" on="1"/>
        <pt x="395" y="68" on="0"/>
        <pt x="463" y="104" on="0"/>
        <pt x="492" y="126" on="1"/>
        <pt x="540" y="65" on="1"/>
        <pt x="512" y="36" on="0"/>
        <pt x="412" y="-12" on="0"/>
        <pt x="343" y="-12" on="1"/>
        <pt x="218" y="-12" on="0"/>
        <pt x="55" y="172" on="0"/>
      </contour>
    </TTGlyph>
    <TTGlyph name="Cacute" xMin="55" yMin="-12" xMax="540" yMax="911">
      <component glyphName="C" x="0" y="0" flags="0x204"/>
      <component glyphName="acute.case" x="199" y="0" flags="0x4"/>
    </TTGlyph>
    <TTGlyph name="Cacute.loclPLK" xMin="55" yMin="-12" xMax="540" yMax="926">
      <component glyphName="C" x="0" y="0" flags="0x204"/>
      <component glyphName="acute.case.loclPLK" x="199" y="0" flags="0x4"/>
    </TTGlyph>
    <TTGlyph name="Ccaron" xMin="55" yMin="-12" xMax="540" yMax="909">
      <component glyphName="C" x="0" y="0" flags="0x204"/>
      <component glyphName="caron.case" x="151" y="0" flags="0x4"/>
    </TTGlyph>
    <TTGlyph name="Ccedilla" xMin="55" yMin="-241" xMax="540" yMax="701">
      <component glyphName="cedilla.case" x="224" y="0" flags="0x4"/>
      <component glyphName="C" x="0" y="0" flags="0x204"/>
    </TTGlyph>
    <TTGlyph name="Ccircumflex" xMin="55" yMin="-12" xMax="540" yMax="914">
      <component glyphName="C" x="0" y="0" flags="0x204"/>
      <component glyphName="circumflex.case" x="151" y="0" flags="0x4"/>
    </TTGlyph>
    <TTGlyph name="Cdotaccent" xMin="55" yMin="-12" xMax="540" yMax="906">
      <component glyphName="dotaccent.case" x="252" y="0" flags="0x4"/>
      <component glyphName="C" x="0" y="0" flags="0x204"/>
    </TTGlyph>
    <TTGlyph name="Chi" xMin="5" yMin="0" xMax="535" yMax="689">
      <component glyphName="X" x="0" y="0" flags="0x204"/>
    </TTGlyph>
    <TTGlyph name="D" xMin="100" yMin="0" xMax="589" yMax="689">
      <contour>
        <pt x="100" y="689" on="1"/>
        <pt x="244" y="689" on="1"/>
        <pt x="310" y="689" on="0"/>
        <pt x="435" y="663" on="0"/>
        <pt x="530" y="589" on="0"/>
        <pt x="589" y="455" on="0"/>
        <pt x="589" y="348" on="1"/>
        <pt x="589" y="243" on="0"/>
        <pt x="529" y="107" on="0"/>
        <pt x="436" y="30" on="0"/>
        <pt x="321" y="0" on="0"/>
        <pt x="265" y="0" on="1"/>
        <pt x="100" y="0" on="1"/>
      </contour>
      <contour>
        <pt x="488" y="348" on="1"/>
        <pt x="488" y="435" on="0"/>
        <pt x="449" y="540" on="0"/>
        <pt x="386" y="596" on="0"/>
        <pt x="306" y="613" on="0"/>
        <pt x="265" y="613" on="1"/>
        <pt x="195" y="613" on="1"/>
        <pt x="195" y="75" on="1"/>
        <pt x="272" y="75" on="1"/>
        <pt x="312" y="75" on="0"/>
        <pt x="390" y="97" on="0"/>
        <pt x="451" y="156" on="0"/>
        <pt x="488" y="263" on="0"/>
      </contour>
    </TTGlyph>
    <TTGlyph name="Dcaron" xMin="100" yMin="0" xMax="589" yMax="909">
      <component glyphName="D" x="0" y="0" flags="0x204"/>
      <component glyphName="caron.case" x="107" y="0" flags="0x4"/>
    </TTGlyph>
    <TTGlyph name="Dcroat" xMin="20" yMin="0" xMax="601" yMax="689">
      <component glyphName="Eth" x="0" y="0" flags="0x204"/>
    </TTGlyph>
    <TTGlyph name="Delta" xMin="6" yMin="0" xMax="577" yMax="689">
      <contour>
        <pt x="232" y="689" on="1"/>
        <pt x="352" y="689" on="1"/>
        <pt x="577" y="0" on="1"/>
        <pt x="6" y="0" on="1"/>
      </contour>
      <contour>
        <pt x="454" y="78" on="1"/>
        <pt x="290" y="609" on="1"/>
        <pt x="125" y="78" on="1"/>
      </contour>
    </TTGlyph>
    <TTGlyph name="E" xMin="100" yMin="0" xMax="481" yMax="689">
      <contour>
        <pt x="100" y="689" on="1"/>
        <pt x="473" y="689" on="1"/>
        <pt x="462" y="613" on="1"/>
        <pt x="195" y="613" on="1"/>
        <pt x="195" y="388" on="1"/>
        <pt x="427" y="388" on="1"/>
        <pt x="427" y="312" on="1"/>
        <pt x="195" y="312" on="1"/>
        <pt x="195" y="76" on="1"/>
        <pt x="481" y="76" on="1"/>
        <pt x="481" y="0" on="1"/>
        <pt x="100" y="0" on="1"/>
      </contour>
    </TTGlyph>
    <TTGlyph name="Eacute" xMin="100" yMin="0" xMax="481" yMax="911">
      <component glyphName="E" x="0" y="0" flags="0x204"/>
      <component glyphName="acute.case" x="142" y="0" flags="0x4"/>
    </TTGlyph>
    <TTGlyph name="Ebreve" xMin="100" yMin="0" xMax="481" yMax="894">
      <component glyphName="E" x="0" y="0" flags="0x204"/>
      <component glyphName="breve.case" x="108" y="0" flags="0x4"/>
    </TTGlyph>
    <TTGlyph name="Ecaron" xMin="100" yMin="0" xMax="481" yMax="909">
      <component glyphName="E" x="0" y="0" flags="0x204"/>
      <component glyphName="caron.case" x="94" y="0" flags="0x4"/>
    </TTGlyph>
    <TTGlyph name="Ecircumflex" xMin="100" yMin="0" xMax="481" yMax="914">
      <component glyphName="circumflex.case" x="94" y="0" flags="0x4"/>
      <component glyphName="E" x="0" y="0" flags="0x204"/>
    </TTGlyph>
    <TTGlyph name="Edieresis" xMin="100" yMin="0" xMax="481" yMax="894">
      <component glyphName="E" x="0" y="0" flags="0x204"/>
      <component glyphName="dieresis.case" x="97" y="0" flags="0x4"/>
    </TTGlyph>
    <TTGlyph name="Edotaccent" xMin="100" yMin="0" xMax="481" yMax="906">
      <component glyphName="dotaccent.case" x="195" y="0" flags="0x4"/>
      <component glyphName="E" x="0" y="0" flags="0x204"/>
    </TTGlyph>
    <TTGlyph name="Egrave" xMin="100" yMin="0" xMax="481" yMax="911">
      <component glyphName="grave.case" x="130" y="0" flags="0x4"/>
      <component glyphName="E" x="0" y="0" flags="0x204"/>
    </TTGlyph>
    <TTGlyph name="Emacron" xMin="100" yMin="0" xMax="481" yMax="856">
      <component glyphName="E" x="0" y="0" flags="0x204"/>
      <component glyphName="macron.case" x="123" y="-6" flags="0x4"/>
    </TTGlyph>
    <TTGlyph name="Eng" xMin="100" yMin="-212" xMax="583" yMax="689">
      <contour>
        <pt x="416" y="-212" on="1"/>
        <pt x="391" y="-150" on="1"/>
        <pt x="442" y="-126" on="0"/>
        <pt x="498" y="-70" on="0"/>
        <pt x="502" y="0" on="1"/>
        <pt x="454" y="0" on="1"/>
        <pt x="180" y="583" on="1"/>
        <pt x="176" y="583" on="1"/>
        <pt x="180" y="540" on="0"/>
        <pt x="189" y="412" on="0"/>
        <pt x="189" y="316" on="1"/>
        <pt x="189" y="0" on="1"/>
        <pt x="100" y="0" on="1"/>
        <pt x="100" y="689" on="1"/>
        <pt x="226" y="689" on="1"/>
        <pt x="503" y="103" on="1"/>
        <pt x="507" y="103" on="1"/>
        <pt x="506" y="109" on="0"/>
        <pt x="502" y="153" on="0"/>
        <pt x="498" y="212" on="0"/>
        <pt x="494" y="282" on="0"/>
        <pt x="494" y="313" on="1"/>
        <pt x="494" y="689" on="1"/>
        <pt x="583" y="689" on="1"/>
        <pt x="583" y="32" on="1"/>
        <pt x="583" y="-79" on="0"/>
        <pt x="500" y="-175" on="0"/>
      </contour>
    </TTGlyph>
    <TTGlyph name="Eogonek" xMin="100" yMin="-232" xMax="481" yMax="689">
      <component glyphName="ogonek" x="243" y="0" flags="0x4"/>
      <component glyphName="E" x="0" y="0" flags="0x204"/>
    </TTGlyph>
    <TTGlyph name="Epsilon" xMin="100" yMin="0" xMax="481" yMax="689">
      <component glyphName="E" x="0" y="0" flags="0x204"/>
    </TTGlyph>
    <TTGlyph name="Epsilontonos" xMin="-62" yMin="0" xMax="481" yMax="707">
      <component glyphName="E" x="0" y="0" flags="0x204"/>
      <component glyphName="tonos.case" x="-92" y="0" flags="0x4"/>
    </TTGlyph>
    <TTGlyph name="Eta" xMin="100" yMin="0" xMax="580" yMax="689">
      <component glyphName="H" x="0" y="0" flags="0x204"/>
    </TTGlyph>
    <TTGlyph name="Etatonos" xMin="-62" yMin="0" xMax="580" yMax="707">
      <component glyphName="H" x="0" y="0" flags="0x204"/>
      <component glyphName="tonos.case" x="-92" y="0" flags="0x4"/>
    </TTGlyph>
    <TTGlyph name="Eth" xMin="20" yMin="0" xMax="601" yMax="689">
      <contour>
        <pt x="277" y="0" on="1"/>
        <pt x="112" y="0" on="1"/>
        <pt x="112" y="318" on="1"/>
        <pt x="20" y="318" on="1"/>
        <pt x="20" y="388" on="1"/>
        <pt x="112" y="388" on="1"/>
        <pt x="112" y="689" on="1"/>
        <pt x="256" y="689" on="1"/>
        <pt x="322" y="689" on="0"/>
        <pt x="447" y="663" on="0"/>
        <pt x="542" y="589" on="0"/>
        <pt x="601" y="455" on="0"/>
        <pt x="601" y="348" on="1"/>
        <pt x="601" y="243" on="0"/>
        <pt x="541" y="107" on="0"/>
        <pt x="448" y="30" on="0"/>
        <pt x="333" y="0" on="0"/>
      </contour>
      <contour>
        <pt x="207" y="75" on="1"/>
        <pt x="284" y="75" on="1"/>
        <pt x="324" y="75" on="0"/>
        <pt x="402" y="97" on="0"/>
        <pt x="463" y="156" on="0"/>
        <pt x="500" y="263" on="0"/>
        <pt x="500" y="348" on="1"/>
        <pt x="500" y="435" on="0"/>
        <pt x="461" y="540" on="0"/>
        <pt x="398" y="596" on="0"/>
        <pt x="318" y="613" on="0"/>
        <pt x="277" y="613" on="1"/>
        <pt x="207" y="613" on="1"/>
        <pt x="207" y="388" on="1"/>
        <pt x="364" y="388" on="1"/>
        <pt x="364" y="318" on="1"/>
        <pt x="207" y="318" on="1"/>
      </contour>
    </TTGlyph>
    <TTGlyph name="Euro" xMin="23" yMin="-12" xMax="549" yMax="701">
      <contour>
        <pt x="517" y="26" on="1"/>
        <pt x="483" y="10" on="0"/>
        <pt x="410" y="-12" on="0"/>
        <pt x="363" y="-12" on="1"/>
        <pt x="260" y="-12" on="0"/>
        <pt x="130" y="116" on="0"/>
        <pt x="111" y="241" on="1"/>
        <pt x="23" y="241" on="1"/>
        <pt x="38" y="302" on="1"/>
        <pt x="108" y="302" on="1"/>
        <pt x="108" y="392" on="1"/>
        <pt x="23" y="392" on="1"/>
        <pt x="38" y="454" on="1"/>
        <pt x="112" y="454" on="1"/>
        <pt x="136" y="576" on="0"/>
        <pt x="274" y="701" on="0"/>
        <pt x="367" y="701" on="1"/>
        <pt x="418" y="701" on="0"/>
        <pt x="508" y="673" on="0"/>
        <pt x="549" y="645" on="1"/>
        <pt x="513" y="582" on="1"/>
        <pt x="477" y="604" on="0"/>
        <pt x="413" y="625" on="0"/>
        <pt x="371" y="625" on="1"/>
        <pt x="313" y="625" on="0"/>
        <pt x="230" y="546" on="0"/>
        <pt x="211" y="454" on="1"/>
        <pt x="467" y="454" on="1"/>
        <pt x="452" y="392" on="1"/>
        <pt x="206" y="392" on="1"/>
        <pt x="206" y="302" on="1"/>
        <pt x="433" y="302" on="1"/>
        <pt x="419" y="241" on="1"/>
        <pt x="209" y="241" on="1"/>
        <pt x="221" y="147" on="0"/>
        <pt x="302" y="65" on="0"/>
        <pt x="377" y="65" on="1"/>
        <pt x="420" y="65" on="0"/>
        <pt x="488" y="90" on="0"/>
        <pt x="517" y="106" on="1"/>
      </contour>
    </TTGlyph>
    <TTGlyph name="Euro.lf" xMin="25" yMin="-12" xMax="551" yMax="679">
      <contour>
        <pt x="519" y="26" on="1"/>
        <pt x="485" y="10" on="0"/>
        <pt x="412" y="-12" on="0"/>
        <pt x="365" y="-12" on="1"/>
        <pt x="262" y="-12" on="0"/>
        <pt x="132" y="113" on="0"/>
        <pt x="113" y="231" on="1"/>
        <pt x="25" y="231" on="1"/>
        <pt x="40" y="292" on="1"/>
        <pt x="110" y="292" on="1"/>
        <pt x="110" y="382" on="1"/>
        <pt x="25" y="382" on="1"/>
        <pt x="40" y="444" on="1"/>
        <pt x="114" y="444" on="1"/>
        <pt x="138" y="557" on="0"/>
        <pt x="276" y="679" on="0"/>
        <pt x="369" y="679" on="1"/>
        <pt x="420" y="679" on="0"/>
        <pt x="510" y="651" on="0"/>
        <pt x="551" y="623" on="1"/>
        <pt x="515" y="560" on="1"/>
        <pt x="479" y="582" on="0"/>
        <pt x="415" y="603" on="0"/>
        <pt x="373" y="603" on="1"/>
        <pt x="316" y="603" on="0"/>
        <pt x="233" y="527" on="0"/>
        <pt x="214" y="444" on="1"/>
        <pt x="469" y="444" on="1"/>
        <pt x="454" y="382" on="1"/>
        <pt x="208" y="382" on="1"/>
        <pt x="208" y="292" on="1"/>
        <pt x="435" y="292" on="1"/>
        <pt x="421" y="231" on="1"/>
        <pt x="211" y="231" on="1"/>
        <pt x="224" y="144" on="0"/>
        <pt x="305" y="65" on="0"/>
        <pt x="379" y="65" on="1"/>
        <pt x="422" y="65" on="0"/>
        <pt x="490" y="90" on="0"/>
        <pt x="519" y="106" on="1"/>
      </contour>
    </TTGlyph>
    <TTGlyph name="Euro.osf" xMin="25" yMin="-12" xMax="551" yMax="679">
      <component glyphName="Euro.lf" x="0" y="0" flags="0x204"/>
    </TTGlyph>
    <TTGlyph name="Euro.tosf" xMin="40" yMin="-12" xMax="557" yMax="679">
      <contour>
        <pt x="525" y="26" on="1"/>
        <pt x="491" y="10" on="0"/>
        <pt x="421" y="-12" on="0"/>
        <pt x="375" y="-12" on="1"/>
        <pt x="274" y="-12" on="0"/>
        <pt x="147" y="113" on="0"/>
        <pt x="128" y="231" on="1"/>
        <pt x="40" y="231" on="1"/>
        <pt x="55" y="292" on="1"/>
        <pt x="125" y="292" on="1"/>
        <pt x="125" y="382" on="1"/>
        <pt x="40" y="382" on="1"/>
        <pt x="55" y="444" on="1"/>
        <pt x="129" y="444" on="1"/>
        <pt x="153" y="557" on="0"/>
        <pt x="288" y="679" on="0"/>
        <pt x="379" y="679" on="1"/>
        <pt x="429" y="679" on="0"/>
        <pt x="516" y="651" on="0"/>
        <pt x="557" y="623" on="1"/>
        <pt x="521" y="560" on="1"/>
        <pt x="485" y="582" on="0"/>
        <pt x="423" y="603" on="0"/>
        <pt x="383" y="603" on="1"/>
        <pt x="326" y="603" on="0"/>
        <pt x="247" y="527" on="0"/>
        <pt x="229" y="444" on="1"/>
        <pt x="477" y="444" on="1"/>
        <pt x="462" y="382" on="1"/>
        <pt x="223" y="382" on="1"/>
        <pt x="223" y="292" on="1"/>
        <pt x="443" y="292" on="1"/>
        <pt x="429" y="231" on="1"/>
        <pt x="226" y="231" on="1"/>
        <pt x="239" y="144" on="0"/>
        <pt x="317" y="65" on="0"/>
        <pt x="389" y="65" on="1"/>
        <pt x="431" y="65" on="0"/>
        <pt x="496" y="90" on="0"/>
        <pt x="525" y="106" on="1"/>
      </contour>
    </TTGlyph>
    <TTGlyph name="F" xMin="100" yMin="0" xMax="466" yMax="689">
      <contour>
        <pt x="100" y="689" on="1"/>
        <pt x="466" y="689" on="1"/>
        <pt x="455" y="613" on="1"/>
        <pt x="195" y="613" on="1"/>
        <pt x="195" y="378" on="1"/>
        <pt x="420" y="378" on="1"/>
        <pt x="420" y="303" on="1"/>
        <pt x="195" y="303" on="1"/>
        <pt x="195" y="0" on="1"/>
        <pt x="100" y="0" on="1"/>
      </contour>
    </TTGlyph>
    <TTGlyph name="G" xMin="55" yMin="-12" xMax="569" yMax="701">
      <contour>
        <pt x="55" y="345" on="1"/>
        <pt x="55" y="432" on="0"/>
        <pt x="104" y="565" on="0"/>
        <pt x="186" y="655" on="0"/>
        <pt x="294" y="701" on="0"/>
        <pt x="352" y="701" on="1"/>
        <pt x="421" y="701" on="0"/>
        <pt x="517" y="662" on="0"/>
        <pt x="561" y="625" on="1"/>
        <pt x="505" y="567" on="1"/>
        <pt x="469" y="596" on="0"/>
        <pt x="400" y="623" on="0"/>
        <pt x="354" y="623" on="1"/>
        <pt x="317" y="623" on="0"/>
        <pt x="246" y="593" on="0"/>
        <pt x="190" y="527" on="0"/>
        <pt x="156" y="421" on="0"/>
        <pt x="156" y="345" on="1"/>
        <pt x="156" y="197" on="0"/>
        <pt x="254" y="66" on="0"/>
        <pt x="344" y="66" on="1"/>
        <pt x="378" y="66" on="0"/>
        <pt x="446" y="81" on="0"/>
        <pt x="475" y="98" on="1"/>
        <pt x="475" y="305" on="1"/>
        <pt x="353" y="305" on="1"/>
        <pt x="342" y="382" on="1"/>
        <pt x="569" y="382" on="1"/>
        <pt x="569" y="49" on="1"/>
        <pt x="522" y="21" on="0"/>
        <pt x="409" y="-12" on="0"/>
        <pt x="337" y="-12" on="1"/>
        <pt x="209" y="-12" on="0"/>
        <pt x="55" y="167" on="0"/>
      </contour>
    </TTGlyph>
    <TTGlyph name="Gamma" xMin="100" yMin="0" xMax="498" yMax="689">
      <component glyphName="uni0413" x="0" y="0" flags="0x204"/>
    </TTGlyph>
    <TTGlyph name="Gbreve" xMin="55" yMin="-12" xMax="569" yMax="894">
      <component glyphName="G" x="0" y="0" flags="0x204"/>
      <component glyphName="breve.case" x="173" y="0" flags="0x4"/>
    </TTGlyph>
    <TTGlyph name="Gcircumflex" xMin="55" yMin="-12" xMax="569" yMax="914">
      <component glyphName="circumflex.case" x="159" y="0" flags="0x4"/>
      <component glyphName="G" x="0" y="0" flags="0x204"/>
    </TTGlyph>
    <TTGlyph name="Gcommaaccent" xMin="55" yMin="-296" xMax="569" yMax="701">
      <component glyphName="uni0326.case" x="253" y="0" flags="0x4"/>
      <component glyphName="G" x="0" y="0" flags="0x204"/>
    </TTGlyph>
    <TTGlyph name="Gdotaccent" xMin="55" yMin="-12" xMax="569" yMax="906">
      <component glyphName="dotaccent.case" x="260" y="0" flags="0x4"/>
      <component glyphName="G" x="0" y="0" flags="0x204"/>
    </TTGlyph>
    <TTGlyph name="H" xMin="100" yMin="0" xMax="580" yMax="689">
      <contour>
        <pt x="580" y="0" on="1"/>
        <pt x="485" y="0" on="1"/>
        <pt x="485" y="323" on="1"/>
        <pt x="195" y="323" on="1"/>
        <pt x="195" y="0" on="1"/>
        <pt x="100" y="0" on="1"/>
        <pt x="100" y="689" on="1"/>
        <pt x="195" y="689" on="1"/>
        <pt x="195" y="401" on="1"/>
        <pt x="485" y="401" on="1"/>
        <pt x="485" y="689" on="1"/>
        <pt x="580" y="689" on="1"/>
      </contour>
    </TTGlyph>
    <TTGlyph name="Hbar" xMin="35" yMin="0" xMax="653" yMax="689">
      <contour>
        <pt x="199" y="401" on="1"/>
        <pt x="489" y="401" on="1"/>
        <pt x="489" y="508" on="1"/>
        <pt x="199" y="508" on="1"/>
      </contour>
      <contour>
        <pt x="199" y="323" on="1"/>
        <pt x="199" y="0" on="1"/>
        <pt x="104" y="0" on="1"/>
        <pt x="104" y="508" on="1"/>
        <pt x="35" y="508" on="1"/>
        <pt x="35" y="577" on="1"/>
        <pt x="104" y="577" on="1"/>
        <pt x="104" y="689" on="1"/>
        <pt x="199" y="689" on="1"/>
        <pt x="199" y="577" on="1"/>
        <pt x="489" y="577" on="1"/>
        <pt x="489" y="689" on="1"/>
        <pt x="584" y="689" on="1"/>
        <pt x="584" y="577" on="1"/>
        <pt x="653" y="577" on="1"/>
        <pt x="653" y="508" on="1"/>
        <pt x="584" y="508" on="1"/>
        <pt x="584" y="0" on="1"/>
        <pt x="489" y="0" on="1"/>
        <pt x="489" y="323" on="1"/>
      </contour>
    </TTGlyph>
    <TTGlyph name="Hcircumflex" xMin="100" yMin="0" xMax="580" yMax="914">
      <component glyphName="H" x="0" y="0" flags="0x204"/>
      <component glyphName="circumflex.case" x="144" y="0" flags="0x4"/>
    </TTGlyph>
    <TTGlyph name="I" xMin="100" yMin="0" xMax="196" yMax="689">
      <contour>
        <pt x="100" y="689" on="1"/>
        <pt x="196" y="689" on="1"/>
        <pt x="196" y="0" on="1"/>
        <pt x="100" y="0" on="1"/>
      </contour>
    </TTGlyph>
    <TTGlyph name="IJ" xMin="100" yMin="-137" xMax="506" yMax="689">
      <component glyphName="I" x="0" y="0" flags="0x204"/>
      <component glyphName="J" x="296" y="0" flags="0x4"/>
    </TTGlyph>
    <TTGlyph name="Iacute" xMin="30" yMin="0" xMax="270" yMax="911">
      <component glyphName="I" x="0" y="0" flags="0x204"/>
      <component glyphName="acute.case" x="0" y="0" flags="0x204"/>
    </TTGlyph>
    <TTGlyph name="Ibreve" xMin="-4" yMin="0" xMax="299" yMax="894">
      <component glyphName="I" x="0" y="0" flags="0x204"/>
      <component glyphName="breve.case" x="-34" y="0" flags="0x4"/>
    </TTGlyph>
    <TTGlyph name="Icircumflex" xMin="-18" yMin="0" xMax="314" yMax="914">
      <component glyphName="I" x="0" y="0" flags="0x204"/>
      <component glyphName="circumflex.case" x="-48" y="0" flags="0x4"/>
    </TTGlyph>
    <TTGlyph name="Idieresis" xMin="-15" yMin="0" xMax="310" yMax="894">
      <component glyphName="I" x="0" y="0" flags="0x204"/>
      <component glyphName="dieresis.case" x="-45" y="0" flags="0x4"/>
    </TTGlyph>
    <TTGlyph name="Idotaccent" xMin="83" yMin="0" xMax="212" yMax="906">
      <component glyphName="I" x="0" y="0" flags="0x204"/>
      <component glyphName="dotaccent.case" x="53" y="0" flags="0x4"/>
    </TTGlyph>
    <TTGlyph name="Igrave" xMin="18" yMin="0" xMax="258" yMax="911">
      <component glyphName="I" x="0" y="0" flags="0x204"/>
      <component glyphName="grave.case" x="-12" y="0" flags="0x4"/>
    </TTGlyph>
    <TTGlyph name="Imacron" xMin="11" yMin="0" xMax="284" yMax="856">
      <component glyphName="I" x="0" y="0" flags="0x204"/>
      <component glyphName="macron.case" x="-19" y="-6" flags="0x4"/>
    </TTGlyph>
    <TTGlyph name="Iogonek" xMin="-7" yMin="-232" xMax="196" yMax="689">
      <component glyphName="I" x="0" y="0" flags="0x204"/>
      <component glyphName="ogonek" x="-2" y="0" flags="0x4"/>
    </TTGlyph>
    <TTGlyph name="Iota" xMin="100" yMin="0" xMax="196" yMax="689">
      <component glyphName="I" x="0" y="0" flags="0x204"/>
    </TTGlyph>
    <TTGlyph name="Iotadieresis" xMin="-15" yMin="0" xMax="310" yMax="894">
      <component glyphName="I" x="0" y="0" flags="0x204"/>
      <component glyphName="dieresis.case" x="-45" y="0" flags="0x4"/>
    </TTGlyph>
    <TTGlyph name="Iotatonos" xMin="-62" yMin="0" xMax="196" yMax="707">
      <component glyphName="I" x="0" y="0" flags="0x204"/>
      <component glyphName="tonos.case" x="-92" y="0" flags="0x4"/>
    </TTGlyph>
    <TTGlyph name="Itilde" xMin="-19" yMin="0" xMax="315" yMax="900">
      <component glyphName="I" x="0" y="0" flags="0x204"/>
      <component glyphName="tilde.case" x="-49" y="0" flags="0x4"/>
    </TTGlyph>
    <TTGlyph name="J" xMin="5" yMin="-137" xMax="210" yMax="689">
      <contour>
        <pt x="115" y="689" on="1"/>
        <pt x="210" y="689" on="1"/>
        <pt x="210" y="96" on="1"/>
        <pt x="210" y="-11" on="0"/>
        <pt x="113" y="-111" on="0"/>
        <pt x="30" y="-137" on="1"/>
        <pt x="5" y="-68" on="1"/>
        <pt x="73" y="-41" on="0"/>
        <pt x="115" y="31" on="0"/>
        <pt x="115" y="100" on="1"/>
      </contour>
    </TTGlyph>
    <TTGlyph name="Jcircumflex" xMin="-3" yMin="-137" xMax="329" yMax="914">
      <component glyphName="J" x="0" y="0" flags="0x204"/>
      <component glyphName="circumflex.case" x="-33" y="0" flags="0x4"/>
    </TTGlyph>
    <TTGlyph name="K" xMin="100" yMin="0" xMax="589" yMax="689">
      <contour>
        <pt x="100" y="689" on="1"/>
        <pt x="195" y="689" on="1"/>
        <pt x="195" y="0" on="1"/>
        <pt x="100" y="0" on="1"/>
      </contour>
      <contour>
        <pt x="462" y="689" on="1"/>
        <pt x="570" y="689" on="1"/>
        <pt x="309" y="374" on="1"/>
        <pt x="589" y="0" on="1"/>
        <pt x="472" y="0" on="1"/>
        <pt x="200" y="368" on="1"/>
      </contour>
    </TTGlyph>
    <TTGlyph name="Kappa" xMin="100" yMin="0" xMax="589" yMax="689">
      <component glyphName="K" x="0" y="0" flags="0x204"/>
    </TTGlyph>
    <TTGlyph name="Kcommaaccent" xMin="100" yMin="-296" xMax="589" yMax="689">
      <component glyphName="uni0326.case" x="225" y="0" flags="0x4"/>
      <component glyphName="K" x="0" y="0" flags="0x204"/>
    </TTGlyph>
    <TTGlyph name="L" xMin="100" yMin="0" xMax="478" yMax="689">
      <contour>
        <pt x="100" y="689" on="1"/>
        <pt x="195" y="689" on="1"/>
        <pt x="195" y="83" on="1"/>
        <pt x="478" y="83" on="1"/>
        <pt x="467" y="0" on="1"/>
        <pt x="100" y="0" on="1"/>
      </contour>
    </TTGlyph>
    <TTGlyph name="Lacute" xMin="30" yMin="0" xMax="478" yMax="911">
      <component glyphName="acute.case" x="0" y="0" flags="0x204"/>
      <component glyphName="L" x="0" y="0" flags="0x204"/>
    </TTGlyph>
    <TTGlyph name="Lambda" xMin="6" yMin="0" xMax="567" yMax="689">
      <contour>
        <pt x="227" y="689" on="1"/>
        <pt x="347" y="689" on="1"/>
        <pt x="567" y="0" on="1"/>
        <pt x="467" y="0" on="1"/>
        <pt x="285" y="610" on="1"/>
        <pt x="102" y="0" on="1"/>
        <pt x="6" y="0" on="1"/>
      </contour>
    </TTGlyph>
    <TTGlyph name="Lcaron" xMin="100" yMin="0" xMax="478" yMax="699">
      <component glyphName="caron.alt" x="190" y="0" flags="0x4"/>
      <component glyphName="L" x="0" y="0" flags="0x204"/>
    </TTGlyph>
    <TTGlyph name="Lcommaaccent" xMin="100" yMin="-296" xMax="478" yMax="689">
      <component glyphName="uni0326.case" x="194" y="0" flags="0x4"/>
      <component glyphName="L" x="0" y="0" flags="0x204"/>
    </TTGlyph>
    <TTGlyph name="Ldot" xMin="100" yMin="0" xMax="478" yMax="689">
      <component glyphName="L" x="0" y="0" flags="0x204"/>
      <component glyphName="dotaccent" x="296" y="-330" flags="0x4"/>
    </TTGlyph>
    <TTGlyph name="Lslash" xMin="22" yMin="0" xMax="494" yMax="689">
      <contour>
        <pt x="483" y="0" on="1"/>
        <pt x="116" y="0" on="1"/>
        <pt x="116" y="257" on="1"/>
        <pt x="60" y="222" on="1"/>
        <pt x="22" y="282" on="1"/>
        <pt x="116" y="340" on="1"/>
        <pt x="116" y="689" on="1"/>
        <pt x="211" y="689" on="1"/>
        <pt x="211" y="399" on="1"/>
        <pt x="371" y="498" on="1"/>
        <pt x="409" y="438" on="1"/>
        <pt x="211" y="315" on="1"/>
        <pt x="211" y="83" on="1"/>
        <pt x="494" y="83" on="1"/>
      </contour>
    </TTGlyph>
    <TTGlyph name="M" xMin="62" yMin="0" xMax="716" yMax="689">
      <contour>
        <pt x="530" y="689" on="1"/>
        <pt x="659" y="689" on="1"/>
        <pt x="716" y="0" on="1"/>
        <pt x="624" y="0" on="1"/>
        <pt x="600" y="311" on="1"/>
        <pt x="593" y="392" on="0"/>
        <pt x="584" y="549" on="0"/>
        <pt x="583" y="592" on="1"/>
        <pt x="434" y="78" on="1"/>
        <pt x="345" y="78" on="1"/>
        <pt x="188" y="593" on="1"/>
        <pt x="188" y="533" on="0"/>
        <pt x="181" y="379" on="0"/>
        <pt x="175" y="304" on="1"/>
        <pt x="152" y="0" on="1"/>
        <pt x="62" y="0" on="1"/>
        <pt x="119" y="689" on="1"/>
        <pt x="247" y="689" on="1"/>
        <pt x="392" y="188" on="1"/>
      </contour>
    </TTGlyph>
    <TTGlyph name="Mu" xMin="62" yMin="0" xMax="716" yMax="689">
      <component glyphName="M" x="0" y="0" flags="0x204"/>
    </TTGlyph>
    <TTGlyph name="N" xMin="100" yMin="0" xMax="583" yMax="689">
      <contour>
        <pt x="494" y="689" on="1"/>
        <pt x="583" y="689" on="1"/>
        <pt x="583" y="0" on="1"/>
        <pt x="456" y="0" on="1"/>
        <pt x="176" y="585" on="1"/>
        <pt x="180" y="542" on="0"/>
        <pt x="189" y="412" on="0"/>
        <pt x="189" y="316" on="1"/>
        <pt x="189" y="0" on="1"/>
        <pt x="100" y="0" on="1"/>
        <pt x="100" y="689" on="1"/>
        <pt x="224" y="689" on="1"/>
        <pt x="507" y="103" on="1"/>
        <pt x="506" y="109" on="0"/>
        <pt x="502" y="153" on="0"/>
        <pt x="498" y="212" on="0"/>
        <pt x="494" y="282" on="0"/>
        <pt x="494" y="313" on="1"/>
      </contour>
    </TTGlyph>
    <TTGlyph name="Nacute" xMin="100" yMin="0" xMax="583" yMax="911">
      <component glyphName="acute.case" x="205" y="0" flags="0x4"/>
      <component glyphName="N" x="0" y="0" flags="0x204"/>
    </TTGlyph>
    <TTGlyph name="Nacute.loclPLK" xMin="100" yMin="0" xMax="583" yMax="926">
      <component glyphName="N" x="0" y="0" flags="0x204"/>
      <component glyphName="acute.case.loclPLK" x="205" y="0" flags="0x4"/>
    </TTGlyph>
    <TTGlyph name="Ncaron" xMin="100" yMin="0" xMax="583" yMax="909">
      <component glyphName="N" x="0" y="0" flags="0x204"/>
      <component glyphName="caron.case" x="157" y="0" flags="0x4"/>
    </TTGlyph>
    <TTGlyph name="Ncommaaccent" xMin="100" yMin="-296" xMax="583" yMax="689">
      <component glyphName="uni0326.case" x="253" y="0" flags="0x4"/>
      <component glyphName="N" x="0" y="0" flags="0x204"/>
    </TTGlyph>
    <TTGlyph name="Ntilde" xMin="100" yMin="0" xMax="583" yMax="900">
      <component glyphName="tilde.case" x="156" y="0" flags="0x4"/>
      <component glyphName="N" x="0" y="0" flags="0x204"/>
    </TTGlyph>
    <TTGlyph name="Nu" xMin="100" yMin="0" xMax="583" yMax="689">
      <component glyphName="N" x="0" y="0" flags="0x204"/>
    </TTGlyph>
    <TTGlyph name="O" xMin="55" yMin="-12" xMax="637" yMax="701">
      <contour>
        <pt x="55" y="343" on="1"/>
        <pt x="55" y="512" on="0"/>
        <pt x="218" y="701" on="0"/>
        <pt x="346" y="701" on="1"/>
        <pt x="475" y="701" on="0"/>
        <pt x="637" y="517" on="0"/>
        <pt x="637" y="344" on="1"/>
        <pt x="637" y="174" on="0"/>
        <pt x="475" y="-12" on="0"/>
        <pt x="346" y="-12" on="1"/>
        <pt x="218" y="-12" on="0"/>
        <pt x="55" y="171" on="0"/>
      </contour>
      <contour>
        <pt x="536" y="344" on="1"/>
        <pt x="536" y="492" on="0"/>
        <pt x="434" y="623" on="0"/>
        <pt x="346" y="623" on="1"/>
        <pt x="260" y="623" on="0"/>
        <pt x="156" y="492" on="0"/>
        <pt x="156" y="343" on="1"/>
        <pt x="156" y="194" on="0"/>
        <pt x="262" y="66" on="0"/>
        <pt x="346" y="66" on="1"/>
        <pt x="433" y="66" on="0"/>
        <pt x="536" y="195" on="0"/>
      </contour>
    </TTGlyph>
    <TTGlyph name="OE" xMin="55" yMin="-12" xMax="843" yMax="701">
      <contour>
        <pt x="516" y="344" on="1"/>
        <pt x="516" y="492" on="0"/>
        <pt x="417" y="623" on="0"/>
        <pt x="336" y="623" on="1"/>
        <pt x="258" y="623" on="0"/>
        <pt x="156" y="492" on="0"/>
        <pt x="156" y="343" on="1"/>
        <pt x="156" y="194" on="0"/>
        <pt x="260" y="66" on="0"/>
        <pt x="336" y="66" on="1"/>
        <pt x="415" y="66" on="0"/>
        <pt x="516" y="195" on="0"/>
      </contour>
      <contour>
        <pt x="843" y="0" on="1"/>
        <pt x="406" y="0" on="1"/>
        <pt x="389" y="-6" on="0"/>
        <pt x="352" y="-12" on="0"/>
        <pt x="333" y="-12" on="1"/>
        <pt x="214" y="-12" on="0"/>
        <pt x="55" y="171" on="0"/>
        <pt x="55" y="343" on="1"/>
        <pt x="55" y="512" on="0"/>
        <pt x="214" y="701" on="0"/>
        <pt x="333" y="701" on="1"/>
        <pt x="353" y="701" on="0"/>
        <pt x="391" y="695" on="0"/>
        <pt x="410" y="689" on="1"/>
        <pt x="835" y="689" on="1"/>
        <pt x="824" y="613" on="1"/>
        <pt x="526" y="613" on="1"/>
        <pt x="564" y="575" on="0"/>
        <pt x="610" y="460" on="0"/>
        <pt x="615" y="388" on="1"/>
        <pt x="789" y="388" on="1"/>
        <pt x="789" y="312" on="1"/>
        <pt x="616" y="312" on="1"/>
        <pt x="612" y="239" on="0"/>
        <pt x="562" y="117" on="0"/>
        <pt x="519" y="76" on="1"/>
        <pt x="843" y="76" on="1"/>
      </contour>
    </TTGlyph>
    <TTGlyph name="Oacute" xMin="55" yMin="-12" xMax="637" yMax="911">
      <component glyphName="acute.case" x="202" y="0" flags="0x4"/>
      <component glyphName="O" x="0" y="0" flags="0x204"/>
    </TTGlyph>
    <TTGlyph name="Oacute.loclPLK" xMin="55" yMin="-12" xMax="637" yMax="926">
      <component glyphName="O" x="0" y="0" flags="0x204"/>
      <component glyphName="acute.case.loclPLK" x="202" y="0" flags="0x4"/>
    </TTGlyph>
    <TTGlyph name="Obreve" xMin="55" yMin="-12" xMax="637" yMax="894">
      <component glyphName="O" x="0" y="0" flags="0x204"/>
      <component glyphName="breve.case" x="168" y="0" flags="0x4"/>
    </TTGlyph>
    <TTGlyph name="Ocircumflex" xMin="55" yMin="-12" xMax="637" yMax="914">
      <component glyphName="circumflex.case" x="154" y="0" flags="0x4"/>
      <component glyphName="O" x="0" y="0" flags="0x204"/>
    </TTGlyph>
    <TTGlyph name="Odieresis" xMin="55" yMin="-12" xMax="637" yMax="894">
      <component glyphName="O" x="0" y="0" flags="0x204"/>
      <component glyphName="dieresis.case" x="157" y="0" flags="0x4"/>
    </TTGlyph>
    <TTGlyph name="Ograve" xMin="55" yMin="-12" xMax="637" yMax="911">
      <component glyphName="grave.case" x="190" y="0" flags="0x4"/>
      <component glyphName="O" x="0" y="0" flags="0x204"/>
    </TTGlyph>
    <TTGlyph name="Ohm" xMin="55" yMin="0" xMax="637" yMax="701">
      <component glyphName="Omega" x="0" y="0" flags="0x204"/>
    </TTGlyph>
    <TTGlyph name="Ohungarumlaut" xMin="55" yMin="-12" xMax="637" yMax="958">
      <component glyphName="hungarumlaut.case" x="207" y="0" flags="0x4"/>
      <component glyphName="O" x="0" y="0" flags="0x204"/>
    </TTGlyph>
    <TTGlyph name="Omacron" xMin="55" yMin="-12" xMax="637" yMax="856">
      <component glyphName="O" x="0" y="0" flags="0x204"/>
      <component glyphName="macron.case" x="183" y="-6" flags="0x4"/>
    </TTGlyph>
    <TTGlyph name="Omega" xMin="55" yMin="0" xMax="637" yMax="701">
      <contour>
        <pt x="55" y="353" on="1"/>
        <pt x="55" y="515" on="0"/>
        <pt x="218" y="701" on="0"/>
        <pt x="346" y="701" on="1"/>
        <pt x="478" y="701" on="0"/>
        <pt x="637" y="520" on="0"/>
        <pt x="637" y="354" on="1"/>
        <pt x="637" y="250" on="0"/>
        <pt x="580" y="122" on="0"/>
        <pt x="505" y="80" on="1"/>
        <pt x="615" y="80" on="1"/>
        <pt x="615" y="0" on="1"/>
        <pt x="400" y="0" on="1"/>
        <pt x="400" y="80" on="1"/>
        <pt x="470" y="104" on="0"/>
        <pt x="536" y="236" on="0"/>
        <pt x="536" y="354" on="1"/>
        <pt x="536" y="494" on="0"/>
        <pt x="434" y="623" on="0"/>
        <pt x="346" y="623" on="1"/>
        <pt x="260" y="623" on="0"/>
        <pt x="156" y="494" on="0"/>
        <pt x="156" y="353" on="1"/>
        <pt x="156" y="225" on="0"/>
        <pt x="227" y="103" on="0"/>
        <pt x="291" y="80" on="1"/>
        <pt x="291" y="0" on="1"/>
        <pt x="76" y="0" on="1"/>
        <pt x="76" y="80" on="1"/>
        <pt x="180" y="80" on="1"/>
        <pt x="113" y="116" on="0"/>
        <pt x="55" y="245" on="0"/>
      </contour>
    </TTGlyph>
    <TTGlyph name="Omegatonos" xMin="-41" yMin="0" xMax="637" yMax="707">
      <component glyphName="Omega" x="0" y="0" flags="0x204"/>
      <component glyphName="tonos.case" x="-71" y="0" flags="0x4"/>
    </TTGlyph>
    <TTGlyph name="Omicron" xMin="55" yMin="-12" xMax="637" yMax="701">
      <component glyphName="O" x="0" y="0" flags="0x204"/>
    </TTGlyph>
    <TTGlyph name="Omicrontonos" xMin="-39" yMin="-12" xMax="637" yMax="707">
      <component glyphName="O" x="0" y="0" flags="0x204"/>
      <component glyphName="tonos.case" x="-69" y="0" flags="0x4"/>
    </TTGlyph>
    <TTGlyph name="Oslash" xMin="55" yMin="-127" xMax="637" yMax="819">
      <contour>
        <pt x="156" y="343" on="1"/>
        <pt x="156" y="244" on="0"/>
        <pt x="200" y="125" on="0"/>
        <pt x="238" y="97" on="1"/>
        <pt x="396" y="618" on="1"/>
        <pt x="384" y="620" on="0"/>
        <pt x="359" y="623" on="0"/>
        <pt x="346" y="623" on="1"/>
        <pt x="260" y="623" on="0"/>
        <pt x="156" y="492" on="0"/>
      </contour>
      <contour>
        <pt x="346" y="66" on="1"/>
        <pt x="433" y="66" on="0"/>
        <pt x="536" y="195" on="0"/>
        <pt x="536" y="344" on="1"/>
        <pt x="536" y="445" on="0"/>
        <pt x="492" y="566" on="0"/>
        <pt x="452" y="594" on="1"/>
        <pt x="296" y="71" on="1"/>
        <pt x="307" y="69" on="0"/>
        <pt x="333" y="66" on="0"/>
      </contour>
      <contour>
        <pt x="346" y="-12" on="1"/>
        <pt x="329" y="-12" on="0"/>
        <pt x="295" y="-9" on="0"/>
        <pt x="279" y="-5" on="1"/>
        <pt x="244" y="-127" on="1"/>
        <pt x="165" y="-106" on="1"/>
        <pt x="205" y="22" on="1"/>
        <pt x="136" y="61" on="0"/>
        <pt x="55" y="224" on="0"/>
        <pt x="55" y="343" on="1"/>
        <pt x="55" y="512" on="0"/>
        <pt x="218" y="701" on="0"/>
        <pt x="346" y="701" on="1"/>
        <pt x="363" y="701" on="0"/>
        <pt x="396" y="698" on="0"/>
        <pt x="412" y="694" on="1"/>
        <pt x="449" y="819" on="1"/>
        <pt x="528" y="798" on="1"/>
        <pt x="486" y="667" on="1"/>
        <pt x="556" y="629" on="0"/>
        <pt x="637" y="465" on="0"/>
        <pt x="637" y="344" on="1"/>
        <pt x="637" y="174" on="0"/>
        <pt x="475" y="-12" on="0"/>
      </contour>
    </TTGlyph>
    <TTGlyph name="Oslashacute" xMin="55" yMin="-127" xMax="637" yMax="926">
      <component glyphName="Oslash" x="0" y="0" flags="0x204"/>
      <component glyphName="acute.case" x="193" y="15" flags="0x4"/>
    </TTGlyph>
    <TTGlyph name="Oslashacute.001" xMin="55" yMin="-127" xMax="637" yMax="926">
      <component glyphName="Oslash" x="0" y="0" flags="0x204"/>
      <component glyphName="acute.case" x="193" y="15" flags="0x4"/>
    </TTGlyph>
    <TTGlyph name="Otilde" xMin="55" yMin="-12" xMax="637" yMax="900">
      <component glyphName="O" x="0" y="0" flags="0x204"/>
      <component glyphName="tilde.case" x="153" y="0" flags="0x4"/>
    </TTGlyph>
    <TTGlyph name="P" xMin="100" yMin="0" xMax="549" yMax="689">
      <contour>
        <pt x="195" y="615" on="1"/>
        <pt x="195" y="328" on="1"/>
        <pt x="278" y="328" on="1"/>
        <pt x="354" y="328" on="0"/>
        <pt x="448" y="388" on="0"/>
        <pt x="448" y="475" on="1"/>
        <pt x="448" y="552" on="0"/>
        <pt x="356" y="615" on="0"/>
        <pt x="280" y="615" on="1"/>
      </contour>
      <contour>
        <pt x="282" y="253" on="1"/>
        <pt x="195" y="253" on="1"/>
        <pt x="195" y="0" on="1"/>
        <pt x="100" y="0" on="1"/>
        <pt x="100" y="689" on="1"/>
        <pt x="281" y="689" on="1"/>
        <pt x="405" y="689" on="0"/>
        <pt x="549" y="584" on="0"/>
        <pt x="549" y="476" on="1"/>
        <pt x="549" y="358" on="0"/>
        <pt x="395" y="253" on="0"/>
      </contour>
    </TTGlyph>
    <TTGlyph name="Phi" xMin="35" yMin="0" xMax="775" yMax="689">
      <contour>
        <pt x="451" y="0" on="1"/>
        <pt x="359" y="0" on="1"/>
        <pt x="359" y="68" on="1"/>
        <pt x="200" y="75" on="0"/>
        <pt x="35" y="224" on="0"/>
        <pt x="35" y="345" on="1"/>
        <pt x="35" y="474" on="0"/>
        <pt x="211" y="615" on="0"/>
        <pt x="359" y="619" on="1"/>
        <pt x="359" y="689" on="1"/>
        <pt x="451" y="689" on="1"/>
        <pt x="451" y="619" on="1"/>
        <pt x="610" y="612" on="0"/>
        <pt x="775" y="464" on="0"/>
        <pt x="775" y="347" on="1"/>
        <pt x="775" y="214" on="0"/>
        <pt x="599" y="72" on="0"/>
        <pt x="451" y="68" on="1"/>
      </contour>
      <contour>
        <pt x="133" y="345" on="1"/>
        <pt x="133" y="248" on="0"/>
        <pt x="248" y="143" on="0"/>
        <pt x="361" y="139" on="1"/>
        <pt x="361" y="549" on="1"/>
        <pt x="247" y="542" on="0"/>
        <pt x="133" y="442" on="0"/>
      </contour>
      <contour>
        <pt x="677" y="347" on="1"/>
        <pt x="677" y="440" on="0"/>
        <pt x="562" y="544" on="0"/>
        <pt x="449" y="548" on="1"/>
        <pt x="449" y="138" on="1"/>
        <pt x="563" y="145" on="0"/>
        <pt x="677" y="246" on="0"/>
      </contour>
    </TTGlyph>
    <TTGlyph name="Pi" xMin="100" yMin="0" xMax="575" yMax="689">
      <component glyphName="uni041F" x="0" y="0" flags="0x204"/>
    </TTGlyph>
    <TTGlyph name="Psi" xMin="35" yMin="0" xMax="659" yMax="689">
      <contour>
        <pt x="394" y="0" on="1"/>
        <pt x="299" y="0" on="1"/>
        <pt x="299" y="193" on="1"/>
        <pt x="167" y="203" on="0"/>
        <pt x="35" y="321" on="0"/>
        <pt x="35" y="426" on="1"/>
        <pt x="35" y="689" on="1"/>
        <pt x="129" y="689" on="1"/>
        <pt x="129" y="433" on="1"/>
        <pt x="129" y="354" on="0"/>
        <pt x="211" y="275" on="0"/>
        <pt x="301" y="269" on="1"/>
        <pt x="301" y="689" on="1"/>
        <pt x="392" y="689" on="1"/>
        <pt x="392" y="269" on="1"/>
        <pt x="479" y="276" on="0"/>
        <pt x="565" y="354" on="0"/>
        <pt x="565" y="433" on="1"/>
        <pt x="565" y="689" on="1"/>
        <pt x="659" y="689" on="1"/>
        <pt x="659" y="429" on="1"/>
        <pt x="659" y="318" on="0"/>
        <pt x="519" y="202" on="0"/>
        <pt x="394" y="192" on="1"/>
      </contour>
    </TTGlyph>
    <TTGlyph name="Q" xMin="55" yMin="-103" xMax="666" yMax="701">
      <contour>
        <pt x="604" y="-103" on="1"/>
        <pt x="546" y="-51" on="0"/>
        <pt x="437" y="-10" on="0"/>
        <pt x="344" y="-10" on="1"/>
        <pt x="217" y="-10" on="0"/>
        <pt x="55" y="171" on="0"/>
        <pt x="55" y="343" on="1"/>
        <pt x="55" y="512" on="0"/>
        <pt x="218" y="701" on="0"/>
        <pt x="346" y="701" on="1"/>
        <pt x="475" y="701" on="0"/>
        <pt x="637" y="517" on="0"/>
        <pt x="637" y="344" on="1"/>
        <pt x="637" y="218" on="0"/>
        <pt x="552" y="77" on="0"/>
        <pt x="479" y="39" on="1"/>
        <pt x="538" y="39" on="0"/>
        <pt x="629" y="2" on="0"/>
        <pt x="666" y="-23" on="1"/>
      </contour>
      <contour>
        <pt x="536" y="344" on="1"/>
        <pt x="536" y="492" on="0"/>
        <pt x="434" y="623" on="0"/>
        <pt x="346" y="623" on="1"/>
        <pt x="260" y="623" on="0"/>
        <pt x="156" y="492" on="0"/>
        <pt x="156" y="343" on="1"/>
        <pt x="156" y="194" on="0"/>
        <pt x="262" y="66" on="0"/>
        <pt x="346" y="66" on="1"/>
        <pt x="433" y="66" on="0"/>
        <pt x="536" y="195" on="0"/>
      </contour>
    </TTGlyph>
    <TTGlyph name="R" xMin="100" yMin="0" xMax="580" yMax="689">
      <contour>
        <pt x="195" y="615" on="1"/>
        <pt x="195" y="365" on="1"/>
        <pt x="291" y="365" on="1"/>
        <pt x="363" y="365" on="0"/>
        <pt x="442" y="425" on="0"/>
        <pt x="442" y="494" on="1"/>
        <pt x="442" y="558" on="0"/>
        <pt x="364" y="615" on="0"/>
        <pt x="280" y="615" on="1"/>
      </contour>
      <contour>
        <pt x="467" y="0" on="1"/>
        <pt x="302" y="292" on="1"/>
        <pt x="195" y="292" on="1"/>
        <pt x="195" y="0" on="1"/>
        <pt x="100" y="0" on="1"/>
        <pt x="100" y="689" on="1"/>
        <pt x="281" y="689" on="1"/>
        <pt x="409" y="689" on="0"/>
        <pt x="543" y="590" on="0"/>
        <pt x="543" y="494" on="1"/>
        <pt x="543" y="422" on="0"/>
        <pt x="468" y="331" on="0"/>
        <pt x="394" y="309" on="1"/>
        <pt x="580" y="0" on="1"/>
      </contour>
    </TTGlyph>
    <TTGlyph name="Racute" xMin="100" yMin="0" xMax="580" yMax="911">
      <component glyphName="R" x="0" y="0" flags="0x204"/>
      <component glyphName="acute.case" x="151" y="0" flags="0x4"/>
    </TTGlyph>
    <TTGlyph name="Rcaron" xMin="100" yMin="0" xMax="580" yMax="909">
      <component glyphName="R" x="0" y="0" flags="0x204"/>
      <component glyphName="caron.case" x="103" y="0" flags="0x4"/>
    </TTGlyph>
    <TTGlyph name="Rcommaaccent" xMin="100" yMin="-296" xMax="580" yMax="689">
      <component glyphName="uni0326.case" x="219" y="0" flags="0x4"/>
      <component glyphName="R" x="0" y="0" flags="0x204"/>
    </TTGlyph>
    <TTGlyph name="Rho" xMin="100" yMin="0" xMax="549" yMax="689">
      <component glyphName="P" x="0" y="0" flags="0x204"/>
    </TTGlyph>
    <TTGlyph name="S" xMin="25" yMin="-12" xMax="505" yMax="701">
      <contour>
        <pt x="53" y="521" on="1"/>
        <pt x="53" y="600" on="0"/>
        <pt x="175" y="701" on="0"/>
        <pt x="270" y="701" on="1"/>
        <pt x="341" y="701" on="0"/>
        <pt x="440" y="660" on="0"/>
        <pt x="483" y="621" on="1"/>
        <pt x="429" y="561" on="1"/>
        <pt x="392" y="594" on="0"/>
        <pt x="317" y="623" on="0"/>
        <pt x="274" y="623" on="1"/>
        <pt x="223" y="623" on="0"/>
        <pt x="150" y="574" on="0"/>
        <pt x="150" y="525" on="1"/>
        <pt x="150" y="482" on="0"/>
        <pt x="208" y="429" on="0"/>
        <pt x="301" y="401" on="1"/>
        <pt x="383" y="376" on="0"/>
        <pt x="505" y="291" on="0"/>
        <pt x="505" y="192" on="1"/>
        <pt x="505" y="102" on="0"/>
        <pt x="375" y="-12" on="0"/>
        <pt x="259" y="-12" on="1"/>
        <pt x="185" y="-12" on="0"/>
        <pt x="68" y="35" on="0"/>
        <pt x="25" y="77" on="1"/>
        <pt x="80" y="138" on="1"/>
        <pt x="115" y="104" on="0"/>
        <pt x="202" y="66" on="0"/>
        <pt x="258" y="66" on="1"/>
        <pt x="318" y="66" on="0"/>
        <pt x="406" y="127" on="0"/>
        <pt x="406" y="189" on="1"/>
        <pt x="406" y="239" on="0"/>
        <pt x="344" y="295" on="0"/>
        <pt x="257" y="322" on="1"/>
        <pt x="157" y="353" on="0"/>
        <pt x="53" y="441" on="0"/>
      </contour>
    </TTGlyph>
    <TTGlyph name="Sacute" xMin="25" yMin="-12" xMax="505" yMax="911">
      <component glyphName="S" x="0" y="0" flags="0x204"/>
      <component glyphName="acute.case" x="128" y="0" flags="0x4"/>
    </TTGlyph>
    <TTGlyph name="Sacute.loclPLK" xMin="25" yMin="-12" xMax="505" yMax="926">
      <component glyphName="S" x="0" y="0" flags="0x204"/>
      <component glyphName="acute.case.loclPLK" x="128" y="0" flags="0x4"/>
    </TTGlyph>
    <TTGlyph name="Scaron" xMin="25" yMin="-12" xMax="505" yMax="909">
      <component glyphName="S" x="0" y="0" flags="0x204"/>
      <component glyphName="caron.case" x="80" y="0" flags="0x4"/>
    </TTGlyph>
    <TTGlyph name="Scedilla" xMin="25" yMin="-241" xMax="505" yMax="701">
      <component glyphName="cedilla.case" x="145" y="0" flags="0x4"/>
      <component glyphName="S" x="0" y="0" flags="0x204"/>
    </TTGlyph>
    <TTGlyph name="Scircumflex" xMin="25" yMin="-12" xMax="505" yMax="914">
      <component glyphName="S" x="0" y="0" flags="0x204"/>
      <component glyphName="circumflex.case" x="80" y="0" flags="0x4"/>
    </TTGlyph>
    <TTGlyph name="Scommaaccent" xMin="25" yMin="-296" xMax="505" yMax="701">
      <component glyphName="uni0326.case" x="177" y="0" flags="0x4"/>
      <component glyphName="S" x="0" y="0" flags="0x204"/>
    </TTGlyph>
    <TTGlyph name="Sigma" xMin="40" yMin="0" xMax="463" yMax="689">
      <contour>
        <pt x="40" y="689" on="1"/>
        <pt x="463" y="689" on="1"/>
        <pt x="463" y="611" on="1"/>
        <pt x="147" y="611" on="1"/>
        <pt x="347" y="372" on="1"/>
        <pt x="347" y="310" on="1"/>
        <pt x="147" y="78" on="1"/>
        <pt x="463" y="78" on="1"/>
        <pt x="463" y="0" on="1"/>
        <pt x="40" y="0" on="1"/>
        <pt x="40" y="78" on="1"/>
        <pt x="262" y="339" on="1"/>
        <pt x="40" y="611" on="1"/>
      </contour>
    </TTGlyph>
    <TTGlyph name="T" xMin="15" yMin="0" xMax="507" yMax="689">
      <contour>
        <pt x="15" y="689" on="1"/>
        <pt x="507" y="689" on="1"/>
        <pt x="497" y="608" on="1"/>
        <pt x="306" y="608" on="1"/>
        <pt x="306" y="0" on="1"/>
        <pt x="211" y="0" on="1"/>
        <pt x="211" y="608" on="1"/>
        <pt x="15" y="608" on="1"/>
      </contour>
    </TTGlyph>
    <TTGlyph name="Tau" xMin="15" yMin="0" xMax="507" yMax="689">
      <component glyphName="T" x="0" y="0" flags="0x204"/>
    </TTGlyph>
    <TTGlyph name="Tbar" xMin="15" yMin="-2" xMax="507" yMax="687">
      <contour>
        <pt x="431" y="317" on="1"/>
        <pt x="306" y="317" on="1"/>
        <pt x="306" y="-2" on="1"/>
        <pt x="211" y="-2" on="1"/>
        <pt x="211" y="317" on="1"/>
        <pt x="88" y="317" on="1"/>
        <pt x="88" y="387" on="1"/>
        <pt x="211" y="387" on="1"/>
        <pt x="211" y="606" on="1"/>
        <pt x="15" y="606" on="1"/>
        <pt x="15" y="687" on="1"/>
        <pt x="507" y="687" on="1"/>
        <pt x="497" y="606" on="1"/>
        <pt x="306" y="606" on="1"/>
        <pt x="306" y="387" on="1"/>
        <pt x="431" y="387" on="1"/>
      </contour>
    </TTGlyph>
    <TTGlyph name="Tcaron" xMin="15" yMin="0" xMax="507" yMax="909">
      <component glyphName="T" x="0" y="0" flags="0x204"/>
      <component glyphName="caron.case" x="63" y="0" flags="0x4"/>
    </TTGlyph>
    <TTGlyph name="Tcedilla" xMin="15" yMin="-241" xMax="507" yMax="689">
      <component glyphName="cedillaTcedilla" x="157" y="0" flags="0x4"/>
      <component glyphName="T" x="0" y="0" flags="0x204"/>
    </TTGlyph>
    <TTGlyph name="Theta" xMin="55" yMin="-12" xMax="637" yMax="701">
      <contour>
        <pt x="55" y="343" on="1"/>
        <pt x="55" y="512" on="0"/>
        <pt x="218" y="701" on="0"/>
        <pt x="346" y="701" on="1"/>
        <pt x="475" y="701" on="0"/>
        <pt x="637" y="517" on="0"/>
        <pt x="637" y="344" on="1"/>
        <pt x="637" y="174" on="0"/>
        <pt x="475" y="-12" on="0"/>
        <pt x="346" y="-12" on="1"/>
        <pt x="218" y="-12" on="0"/>
        <pt x="55" y="171" on="0"/>
      </contour>
      <contour>
        <pt x="536" y="344" on="1"/>
        <pt x="536" y="492" on="0"/>
        <pt x="434" y="623" on="0"/>
        <pt x="346" y="623" on="1"/>
        <pt x="260" y="623" on="0"/>
        <pt x="156" y="492" on="0"/>
        <pt x="156" y="343" on="1"/>
        <pt x="156" y="194" on="0"/>
        <pt x="262" y="66" on="0"/>
        <pt x="346" y="66" on="1"/>
        <pt x="433" y="66" on="0"/>
        <pt x="536" y="195" on="0"/>
      </contour>
      <contour>
        <pt x="226" y="389" on="1"/>
        <pt x="465" y="389" on="1"/>
        <pt x="465" y="315" on="1"/>
        <pt x="226" y="315" on="1"/>
      </contour>
    </TTGlyph>
    <TTGlyph name="Thorn" xMin="100" yMin="0" xMax="549" yMax="689">
      <contour>
        <pt x="195" y="497" on="1"/>
        <pt x="195" y="202" on="1"/>
        <pt x="278" y="202" on="1"/>
        <pt x="354" y="202" on="0"/>
        <pt x="448" y="263" on="0"/>
        <pt x="448" y="353" on="1"/>
        <pt x="448" y="433" on="0"/>
        <pt x="356" y="497" on="0"/>
        <pt x="280" y="497" on="1"/>
      </contour>
      <contour>
        <pt x="282" y="127" on="1"/>
        <pt x="195" y="127" on="1"/>
        <pt x="195" y="0" on="1"/>
        <pt x="100" y="0" on="1"/>
        <pt x="100" y="689" on="1"/>
        <pt x="195" y="689" on="1"/>
        <pt x="195" y="571" on="1"/>
        <pt x="281" y="571" on="1"/>
        <pt x="405" y="571" on="0"/>
        <pt x="549" y="465" on="0"/>
        <pt x="549" y="354" on="1"/>
        <pt x="549" y="233" on="0"/>
        <pt x="395" y="127" on="0"/>
      </contour>
    </TTGlyph>
    <TTGlyph name="TseHelper.cy" xMin="100" yMin="0" xMax="565" yMax="689">
      <contour>
        <pt x="565" y="689" on="1"/>
        <pt x="565" y="0" on="1"/>
        <pt x="100" y="0" on="1"/>
        <pt x="100" y="689" on="1"/>
        <pt x="195" y="689" on="1"/>
        <pt x="195" y="78" on="1"/>
        <pt x="470" y="78" on="1"/>
        <pt x="470" y="689" on="1"/>
      </contour>
    </TTGlyph>
    <TTGlyph name="U" xMin="90" yMin="-12" xMax="572" yMax="689">
      <contour>
        <pt x="476" y="689" on="1"/>
        <pt x="572" y="689" on="1"/>
        <pt x="572" y="221" on="1"/>
        <pt x="572" y="119" on="0"/>
        <pt x="446" y="-12" on="0"/>
        <pt x="330" y="-12" on="1"/>
        <pt x="213" y="-12" on="0"/>
        <pt x="90" y="119" on="0"/>
        <pt x="90" y="221" on="1"/>
        <pt x="90" y="689" on="1"/>
        <pt x="185" y="689" on="1"/>
        <pt x="185" y="228" on="1"/>
        <pt x="185" y="148" on="0"/>
        <pt x="257" y="68" on="0"/>
        <pt x="330" y="68" on="1"/>
        <pt x="404" y="68" on="0"/>
        <pt x="476" y="148" on="0"/>
        <pt x="476" y="228" on="1"/>
      </contour>
    </TTGlyph>
    <TTGlyph name="Uacute" xMin="90" yMin="-12" xMax="572" yMax="911">
      <component glyphName="U" x="0" y="0" flags="0x204"/>
      <component glyphName="acute.case" x="183" y="0" flags="0x4"/>
    </TTGlyph>
    <TTGlyph name="Ubreve" xMin="90" yMin="-12" xMax="572" yMax="894">
      <component glyphName="U" x="0" y="0" flags="0x204"/>
      <component glyphName="breve.case" x="149" y="0" flags="0x4"/>
    </TTGlyph>
    <TTGlyph name="Ucircumflex" xMin="90" yMin="-12" xMax="572" yMax="914">
      <component glyphName="circumflex.case" x="135" y="0" flags="0x4"/>
      <component glyphName="U" x="0" y="0" flags="0x204"/>
    </TTGlyph>
    <TTGlyph name="Udieresis" xMin="90" yMin="-12" xMax="572" yMax="894">
      <component glyphName="U" x="0" y="0" flags="0x204"/>
      <component glyphName="dieresis.case" x="138" y="0" flags="0x4"/>
    </TTGlyph>
    <TTGlyph name="Ugrave" xMin="90" yMin="-12" xMax="572" yMax="911">
      <component glyphName="grave.case" x="171" y="0" flags="0x4"/>
      <component glyphName="U" x="0" y="0" flags="0x204"/>
    </TTGlyph>
    <TTGlyph name="Uhungarumlaut" xMin="90" yMin="-12" xMax="572" yMax="958">
      <component glyphName="hungarumlaut.case" x="188" y="0" flags="0x4"/>
      <component glyphName="U" x="0" y="0" flags="0x204"/>
    </TTGlyph>
    <TTGlyph name="Umacron" xMin="90" yMin="-12" xMax="572" yMax="856">
      <component glyphName="U" x="0" y="0" flags="0x204"/>
      <component glyphName="macron.case" x="164" y="-6" flags="0x4"/>
    </TTGlyph>
    <TTGlyph name="Uogonek" xMin="90" yMin="-232" xMax="572" yMax="689">
      <component glyphName="U" x="0" y="0" flags="0x204"/>
      <component glyphName="ogonek.thin" x="220" y="0" flags="0x4"/>
    </TTGlyph>
    <TTGlyph name="Upsilon" xMin="5" yMin="0" xMax="545" yMax="689">
      <component glyphName="Y" x="0" y="0" flags="0x204"/>
    </TTGlyph>
    <TTGlyph name="Upsilondieresis" xMin="5" yMin="0" xMax="545" yMax="894">
      <component glyphName="Y" x="0" y="0" flags="0x204"/>
      <component glyphName="dieresis.case" x="85" y="0" flags="0x4"/>
    </TTGlyph>
    <TTGlyph name="Upsilontonos" xMin="-147" yMin="0" xMax="545" yMax="707">
      <component glyphName="Y" x="0" y="0" flags="0x204"/>
      <component glyphName="tonos.case" x="-177" y="0" flags="0x4"/>
    </TTGlyph>
    <TTGlyph name="Uring" xMin="90" yMin="-12" xMax="572" yMax="962">
      <component glyphName="ring.case" x="187" y="0" flags="0x4"/>
      <component glyphName="U" x="0" y="0" flags="0x204"/>
    </TTGlyph>
    <TTGlyph name="Utilde" xMin="90" yMin="-12" xMax="572" yMax="900">
      <component glyphName="U" x="0" y="0" flags="0x204"/>
      <component glyphName="tilde.case" x="134" y="0" flags="0x4"/>
    </TTGlyph>
    <TTGlyph name="V" xMin="6" yMin="0" xMax="550" yMax="689">
      <contour>
        <pt x="454" y="689" on="1"/>
        <pt x="550" y="689" on="1"/>
        <pt x="330" y="0" on="1"/>
        <pt x="228" y="0" on="1"/>
        <pt x="6" y="689" on="1"/>
        <pt x="108" y="689" on="1"/>
        <pt x="281" y="103" on="1"/>
      </contour>
    </TTGlyph>
    <TTGlyph name="W" xMin="25" yMin="0" xMax="801" yMax="689">
      <contour>
        <pt x="714" y="689" on="1"/>
        <pt x="801" y="689" on="1"/>
        <pt x="661" y="0" on="1"/>
        <pt x="539" y="0" on="1"/>
        <pt x="412" y="577" on="1"/>
        <pt x="284" y="0" on="1"/>
        <pt x="165" y="0" on="1"/>
        <pt x="25" y="689" on="1"/>
        <pt x="118" y="689" on="1"/>
        <pt x="229" y="83" on="1"/>
        <pt x="362" y="689" on="1"/>
        <pt x="463" y="689" on="1"/>
        <pt x="599" y="83" on="1"/>
      </contour>
    </TTGlyph>
    <TTGlyph name="Wacute" xMin="25" yMin="0" xMax="801" yMax="911">
      <component glyphName="acute.case" x="265" y="0" flags="0x4"/>
      <component glyphName="W" x="0" y="0" flags="0x204"/>
    </TTGlyph>
    <TTGlyph name="Wcircumflex" xMin="25" yMin="0" xMax="801" yMax="914">
      <component glyphName="circumflex.case" x="217" y="0" flags="0x4"/>
      <component glyphName="W" x="0" y="0" flags="0x204"/>
    </TTGlyph>
    <TTGlyph name="Wdieresis" xMin="25" yMin="0" xMax="801" yMax="894">
      <component glyphName="W" x="0" y="0" flags="0x204"/>
      <component glyphName="dieresis.case" x="220" y="0" flags="0x4"/>
    </TTGlyph>
    <TTGlyph name="Wgrave" xMin="25" yMin="0" xMax="801" yMax="911">
      <component glyphName="grave.case" x="253" y="0" flags="0x4"/>
      <component glyphName="W" x="0" y="0" flags="0x204"/>
    </TTGlyph>
    <TTGlyph name="X" xMin="5" yMin="0" xMax="535" yMax="689">
      <contour>
        <pt x="268" y="305" on="1"/>
        <pt x="107" y="0" on="1"/>
        <pt x="5" y="0" on="1"/>
        <pt x="212" y="367" on="1"/>
        <pt x="23" y="689" on="1"/>
        <pt x="131" y="689" on="1"/>
        <pt x="270" y="430" on="1"/>
        <pt x="410" y="689" on="1"/>
        <pt x="512" y="689" on="1"/>
        <pt x="325" y="372" on="1"/>
        <pt x="535" y="0" on="1"/>
        <pt x="427" y="0" on="1"/>
      </contour>
    </TTGlyph>
    <TTGlyph name="Xi" xMin="45" yMin="0" xMax="466" yMax="689">
      <contour>
        <pt x="45" y="689" on="1"/>
        <pt x="458" y="689" on="1"/>
        <pt x="445" y="603" on="1"/>
        <pt x="45" y="603" on="1"/>
      </contour>
      <contour>
        <pt x="106" y="392" on="1"/>
        <pt x="397" y="392" on="1"/>
        <pt x="397" y="307" on="1"/>
        <pt x="106" y="307" on="1"/>
      </contour>
      <contour>
        <pt x="45" y="88" on="1"/>
        <pt x="466" y="88" on="1"/>
        <pt x="466" y="0" on="1"/>
        <pt x="45" y="0" on="1"/>
      </contour>
    </TTGlyph>
    <TTGlyph name="Y" xMin="5" yMin="0" xMax="545" yMax="689">
      <contour>
        <pt x="446" y="689" on="1"/>
        <pt x="545" y="689" on="1"/>
        <pt x="323" y="265" on="1"/>
        <pt x="323" y="0" on="1"/>
        <pt x="227" y="0" on="1"/>
        <pt x="227" y="264" on="1"/>
        <pt x="5" y="689" on="1"/>
        <pt x="110" y="689" on="1"/>
        <pt x="278" y="348" on="1"/>
      </contour>
    </TTGlyph>
    <TTGlyph name="Yacute" xMin="5" yMin="0" xMax="545" yMax="911">
      <component glyphName="Y" x="0" y="0" flags="0x204"/>
      <component glyphName="acute.case" x="130" y="0" flags="0x4"/>
    </TTGlyph>
    <TTGlyph name="Ycircumflex" xMin="5" yMin="0" xMax="545" yMax="914">
      <component glyphName="Y" x="0" y="0" flags="0x204"/>
      <component glyphName="circumflex.case" x="82" y="0" flags="0x4"/>
    </TTGlyph>
    <TTGlyph name="Ydieresis" xMin="5" yMin="0" xMax="545" yMax="894">
      <component glyphName="Y" x="0" y="0" flags="0x204"/>
      <component glyphName="dieresis.case" x="85" y="0" flags="0x4"/>
    </TTGlyph>
    <TTGlyph name="Ygrave" xMin="5" yMin="0" xMax="545" yMax="911">
      <component glyphName="Y" x="0" y="0" flags="0x204"/>
      <component glyphName="grave.case" x="118" y="0" flags="0x4"/>
    </TTGlyph>
    <TTGlyph name="Z" xMin="30" yMin="0" xMax="477" yMax="689">
      <contour>
        <pt x="66" y="689" on="1"/>
        <pt x="477" y="689" on="1"/>
        <pt x="477" y="612" on="1"/>
        <pt x="136" y="81" on="1"/>
        <pt x="477" y="81" on="1"/>
        <pt x="466" y="0" on="1"/>
        <pt x="30" y="0" on="1"/>
        <pt x="30" y="76" on="1"/>
        <pt x="374" y="609" on="1"/>
        <pt x="66" y="609" on="1"/>
      </contour>
    </TTGlyph>
    <TTGlyph name="Zacute" xMin="30" yMin="0" xMax="477" yMax="911">
      <component glyphName="Z" x="0" y="0" flags="0x204"/>
      <component glyphName="acute.case" x="124" y="0" flags="0x4"/>
    </TTGlyph>
    <TTGlyph name="Zacute.loclPLK" xMin="30" yMin="0" xMax="477" yMax="926">
      <component glyphName="Z" x="0" y="0" flags="0x204"/>
      <component glyphName="acute.case.loclPLK" x="124" y="0" flags="0x4"/>
    </TTGlyph>
    <TTGlyph name="Zcaron" xMin="30" yMin="0" xMax="477" yMax="909">
      <component glyphName="Z" x="0" y="0" flags="0x204"/>
      <component glyphName="caron.case" x="76" y="0" flags="0x4"/>
    </TTGlyph>
    <TTGlyph name="Zdotaccent" xMin="30" yMin="0" xMax="477" yMax="906">
      <component glyphName="dotaccent.case" x="177" y="0" flags="0x4"/>
      <component glyphName="Z" x="0" y="0" flags="0x204"/>
    </TTGlyph>
    <TTGlyph name="Zeta" xMin="30" yMin="0" xMax="477" yMax="689">
      <component glyphName="Z" x="0" y="0" flags="0x204"/>
    </TTGlyph>
    <TTGlyph name="a" xMin="45" yMin="-12" xMax="494" yMax="539">
      <contour>
        <pt x="473" y="-12" on="1"/>
        <pt x="433" y="-8" on="0"/>
        <pt x="382" y="28" on="0"/>
        <pt x="370" y="67" on="1"/>
        <pt x="342" y="26" on="0"/>
        <pt x="261" y="-12" on="0"/>
        <pt x="213" y="-12" on="1"/>
        <pt x="135" y="-12" on="0"/>
        <pt x="45" y="77" on="0"/>
        <pt x="45" y="147" on="1"/>
        <pt x="45" y="231" on="0"/>
        <pt x="167" y="321" on="0"/>
        <pt x="277" y="321" on="1"/>
        <pt x="358" y="321" on="1"/>
        <pt x="358" y="360" on="1"/>
        <pt x="358" y="417" on="0"/>
        <pt x="302" y="464" on="0"/>
        <pt x="248" y="464" on="1"/>
        <pt x="219" y="464" on="0"/>
        <pt x="146" y="449" on="0"/>
        <pt x="106" y="436" on="1"/>
        <pt x="83" y="503" on="1"/>
        <pt x="132" y="521" on="0"/>
        <pt x="221" y="539" on="0"/>
        <pt x="265" y="539" on="1"/>
        <pt x="360" y="539" on="0"/>
        <pt x="450" y="446" on="0"/>
        <pt x="450" y="364" on="1"/>
        <pt x="450" y="123" on="1"/>
        <pt x="450" y="89" on="0"/>
        <pt x="474" y="59" on="0"/>
        <pt x="494" y="52" on="1"/>
      </contour>
      <contour>
        <pt x="234" y="57" on="1"/>
        <pt x="274" y="57" on="0"/>
        <pt x="336" y="98" on="0"/>
        <pt x="358" y="139" on="1"/>
        <pt x="358" y="260" on="1"/>
        <pt x="289" y="260" on="1"/>
        <pt x="217" y="260" on="0"/>
        <pt x="143" y="206" on="0"/>
        <pt x="143" y="152" on="1"/>
        <pt x="143" y="106" on="0"/>
        <pt x="189" y="57" on="0"/>
      </contour>
    </TTGlyph>
    <TTGlyph name="a.sc" xMin="6" yMin="0" xMax="499" yMax="564">
      <contour>
        <pt x="251" y="490" on="1"/>
        <pt x="164" y="209" on="1"/>
        <pt x="338" y="209" on="1"/>
      </contour>
      <contour>
        <pt x="402" y="0" on="1"/>
        <pt x="360" y="137" on="1"/>
        <pt x="142" y="137" on="1"/>
        <pt x="100" y="0" on="1"/>
        <pt x="6" y="0" on="1"/>
        <pt x="196" y="564" on="1"/>
        <pt x="310" y="564" on="1"/>
        <pt x="499" y="0" on="1"/>
      </contour>
    </TTGlyph>
    <TTGlyph name="aacute" xMin="45" yMin="-12" xMax="494" yMax="801">
      <component glyphName="a" x="0" y="0" flags="0x204"/>
      <component glyphName="acute" x="101" y="0" flags="0x4"/>
    </TTGlyph>
    <TTGlyph name="aacute.sc" xMin="6" yMin="0" xMax="499" yMax="831">
      <component glyphName="a.sc" x="0" y="0" flags="0x204"/>
      <component glyphName="acute.sc" x="103" y="0" flags="0x4"/>
    </TTGlyph>
    <TTGlyph name="abreve" xMin="45" yMin="-12" xMax="494" yMax="789">
      <component glyphName="a" x="0" y="0" flags="0x204"/>
      <component glyphName="breve" x="79" y="0" flags="0x4"/>
    </TTGlyph>
    <TTGlyph name="abreve.sc" xMin="6" yMin="0" xMax="499" yMax="819">
      <component glyphName="breve.sc" x="71" y="0" flags="0x4"/>
      <component glyphName="a.sc" x="0" y="0" flags="0x204"/>
    </TTGlyph>
    <TTGlyph name="acircumflex" xMin="45" yMin="-12" xMax="494" yMax="792">
      <component glyphName="a" x="0" y="0" flags="0x204"/>
      <component glyphName="circumflex" x="65" y="0" flags="0x4"/>
    </TTGlyph>
    <TTGlyph name="acircumflex.sc" xMin="6" yMin="0" xMax="499" yMax="822">
      <component glyphName="a.sc" x="0" y="0" flags="0x204"/>
      <component glyphName="circumflex.sc" x="57" y="0" flags="0x4"/>
    </TTGlyph>
    <TTGlyph name="acute" xMin="30" yMin="638" xMax="270" yMax="801">
      <contour>
        <pt x="30" y="687" on="1"/>
        <pt x="229" y="801" on="1"/>
        <pt x="270" y="724" on="1"/>
        <pt x="58" y="638" on="1"/>
      </contour>
    </TTGlyph>
    <TTGlyph name="acute.case" xMin="30" yMin="755" xMax="270" yMax="911">
      <contour>
        <pt x="30" y="804" on="1"/>
        <pt x="230" y="911" on="1"/>
        <pt x="270" y="834" on="1"/>
        <pt x="54" y="755" on="1"/>
      </contour>
    </TTGlyph>
    <TTGlyph name="acute.case.loclPLK" xMin="95" yMin="734" xMax="272" yMax="926">
      <contour>
        <pt x="95" y="762" on="1"/>
        <pt x="200" y="926" on="1"/>
        <pt x="272" y="879" on="1"/>
        <pt x="140" y="734" on="1"/>
      </contour>
    </TTGlyph>
    <TTGlyph name="acute.loclPLK" xMin="95" yMin="577" xMax="271" yMax="777">
      <contour>
        <pt x="95" y="605" on="1"/>
        <pt x="199" y="777" on="1"/>
        <pt x="271" y="730" on="1"/>
        <pt x="140" y="577" on="1"/>
      </contour>
    </TTGlyph>
    <TTGlyph name="acute.sc" xMin="30" yMin="668" xMax="270" yMax="831">
      <component glyphName="acute" x="0" y="30" flags="0x4"/>
    </TTGlyph>
    <TTGlyph name="acute.sc.loclPLK" xMin="95" yMin="619" xMax="271" yMax="819">
      <contour>
        <pt x="95" y="647" on="1"/>
        <pt x="199" y="819" on="1"/>
        <pt x="271" y="772" on="1"/>
        <pt x="140" y="619" on="1"/>
      </contour>
    </TTGlyph>
    <TTGlyph name="acutecomb" xMin="39" yMin="629" xMax="279" yMax="785">
      <contour>
        <pt x="39" y="678" on="1"/>
        <pt x="239" y="785" on="1"/>
        <pt x="279" y="708" on="1"/>
        <pt x="63" y="629" on="1"/>
      </contour>
    </TTGlyph>
    <TTGlyph name="acutecombcomb" xMin="39" yMin="629" xMax="279" yMax="785">
      <component glyphName="acutecomb" x="0" y="0" flags="0x204"/>
    </TTGlyph>
    <TTGlyph name="adieresis" xMin="45" yMin="-12" xMax="494" yMax="768">
      <component glyphName="a" x="0" y="0" flags="0x204"/>
      <component glyphName="dieresis" x="68" y="0" flags="0x4"/>
    </TTGlyph>
    <TTGlyph name="adieresis.sc" xMin="6" yMin="0" xMax="499" yMax="798">
      <component glyphName="a.sc" x="0" y="0" flags="0x204"/>
      <component glyphName="dieresis.sc" x="60" y="0" flags="0x4"/>
    </TTGlyph>
    <TTGlyph name="ae" xMin="45" yMin="-12" xMax="797" yMax="539">
      <contour>
        <pt x="582" y="466" on="1"/>
        <pt x="530" y="466" on="0"/>
        <pt x="464" y="387" on="0"/>
        <pt x="459" y="300" on="1"/>
        <pt x="706" y="300" on="1"/>
        <pt x="706" y="306" on="1"/>
        <pt x="706" y="383" on="0"/>
        <pt x="644" y="466" on="0"/>
      </contour>
      <contour>
        <pt x="237" y="57" on="1"/>
        <pt x="280" y="57" on="0"/>
        <pt x="346" y="102" on="0"/>
        <pt x="376" y="149" on="1"/>
        <pt x="369" y="173" on="0"/>
        <pt x="361" y="227" on="0"/>
        <pt x="361" y="257" on="1"/>
        <pt x="361" y="260" on="1"/>
        <pt x="292" y="260" on="1"/>
        <pt x="220" y="260" on="0"/>
        <pt x="146" y="206" on="0"/>
        <pt x="146" y="152" on="1"/>
        <pt x="146" y="106" on="0"/>
        <pt x="192" y="57" on="0"/>
      </contour>
      <contour>
        <pt x="778" y="54" on="1"/>
        <pt x="739" y="23" on="0"/>
        <pt x="648" y="-12" on="0"/>
        <pt x="594" y="-12" on="1"/>
        <pt x="531" y="-12" on="0"/>
        <pt x="434" y="39" on="0"/>
        <pt x="404" y="85" on="1"/>
        <pt x="367" y="32" on="0"/>
        <pt x="276" y="-12" on="0"/>
        <pt x="216" y="-12" on="1"/>
        <pt x="137" y="-12" on="0"/>
        <pt x="45" y="77" on="0"/>
        <pt x="45" y="147" on="1"/>
        <pt x="45" y="231" on="0"/>
        <pt x="170" y="321" on="0"/>
        <pt x="280" y="321" on="1"/>
        <pt x="361" y="321" on="1"/>
        <pt x="361" y="360" on="1"/>
        <pt x="361" y="417" on="0"/>
        <pt x="305" y="464" on="0"/>
        <pt x="251" y="464" on="1"/>
        <pt x="222" y="464" on="0"/>
        <pt x="149" y="449" on="0"/>
        <pt x="109" y="436" on="1"/>
        <pt x="86" y="503" on="1"/>
        <pt x="135" y="521" on="0"/>
        <pt x="224" y="539" on="0"/>
        <pt x="268" y="539" on="1"/>
        <pt x="331" y="539" on="0"/>
        <pt x="406" y="493" on="0"/>
        <pt x="425" y="455" on="1"/>
        <pt x="452" y="495" on="0"/>
        <pt x="530" y="539" on="0"/>
        <pt x="584" y="539" on="1"/>
        <pt x="687" y="539" on="0"/>
        <pt x="797" y="399" on="0"/>
        <pt x="797" y="279" on="1"/>
        <pt x="797" y="266" on="0"/>
        <pt x="796" y="241" on="0"/>
        <pt x="795" y="232" on="1"/>
        <pt x="459" y="232" on="1"/>
        <pt x="466" y="141" on="0"/>
        <pt x="544" y="63" on="0"/>
        <pt x="601" y="63" on="1"/>
        <pt x="640" y="63" on="0"/>
        <pt x="704" y="85" on="0"/>
        <pt x="738" y="109" on="1"/>
      </contour>
    </TTGlyph>
    <TTGlyph name="ae.sc" xMin="-12" yMin="0" xMax="666" yMax="564">
      <contour>
        <pt x="278" y="492" on="1"/>
        <pt x="166" y="209" on="1"/>
        <pt x="345" y="209" on="1"/>
      </contour>
      <contour>
        <pt x="394" y="0" on="1"/>
        <pt x="362" y="137" on="1"/>
        <pt x="138" y="137" on="1"/>
        <pt x="84" y="0" on="1"/>
        <pt x="-12" y="0" on="1"/>
        <pt x="225" y="564" on="1"/>
        <pt x="631" y="564" on="1"/>
        <pt x="621" y="493" on="1"/>
        <pt x="365" y="493" on="1"/>
        <pt x="406" y="322" on="1"/>
        <pt x="624" y="322" on="1"/>
        <pt x="624" y="251" on="1"/>
        <pt x="422" y="251" on="1"/>
        <pt x="465" y="71" on="1"/>
        <pt x="666" y="71" on="1"/>
        <pt x="666" y="0" on="1"/>
      </contour>
    </TTGlyph>
    <TTGlyph name="aeacute" xMin="45" yMin="-12" xMax="797" yMax="801">
      <component glyphName="acute" x="262" y="0" flags="0x4"/>
      <component glyphName="ae" x="0" y="0" flags="0x204"/>
    </TTGlyph>
    <TTGlyph name="aeacute.sc" xMin="-12" yMin="0" xMax="666" yMax="831">
      <component glyphName="ae.sc" x="0" y="0" flags="0x204"/>
      <component glyphName="acute.sc" x="253" y="0" flags="0x4"/>
    </TTGlyph>
    <TTGlyph name="agrave" xMin="45" yMin="-12" xMax="494" yMax="801">
      <component glyphName="a" x="0" y="0" flags="0x204"/>
      <component glyphName="grave" x="121" y="0" flags="0x4"/>
    </TTGlyph>
    <TTGlyph name="agrave.sc" xMin="6" yMin="0" xMax="499" yMax="831">
      <component glyphName="grave.sc" x="103" y="0" flags="0x4"/>
      <component glyphName="a.sc" x="0" y="0" flags="0x204"/>
    </TTGlyph>
    <TTGlyph name="alpha" xMin="58" yMin="-13" xMax="549" yMax="539">
      <contour>
        <pt x="58" y="259" on="1"/>
        <pt x="58" y="381" on="0"/>
        <pt x="159" y="539" on="0"/>
        <pt x="256" y="539" on="1"/>
        <pt x="323" y="539" on="0"/>
        <pt x="405" y="466" on="0"/>
        <pt x="421" y="376" on="1"/>
        <pt x="448" y="527" on="1"/>
        <pt x="532" y="527" on="1"/>
        <pt x="477" y="250" on="1"/>
        <pt x="503" y="116" on="1"/>
        <pt x="507" y="96" on="0"/>
        <pt x="527" y="71" on="0"/>
        <pt x="549" y="63" on="1"/>
        <pt x="517" y="-13" on="1"/>
        <pt x="484" y="-8" on="0"/>
        <pt x="430" y="39" on="0"/>
        <pt x="423" y="82" on="1"/>
        <pt x="414" y="138" on="1"/>
        <pt x="394" y="76" on="0"/>
        <pt x="316" y="-12" on="0"/>
        <pt x="250" y="-12" on="1"/>
        <pt x="160" y="-12" on="0"/>
        <pt x="58" y="124" on="0"/>
      </contour>
      <contour>
        <pt x="397" y="267" on="1"/>
        <pt x="377" y="384" on="0"/>
        <pt x="312" y="466" on="0"/>
        <pt x="264" y="466" on="1"/>
        <pt x="213" y="466" on="0"/>
        <pt x="156" y="360" on="0"/>
        <pt x="156" y="259" on="1"/>
        <pt x="156" y="157" on="0"/>
        <pt x="209" y="61" on="0"/>
        <pt x="260" y="61" on="1"/>
        <pt x="296" y="61" on="0"/>
        <pt x="372" y="138" on="0"/>
      </contour>
    </TTGlyph>
    <TTGlyph name="alpha.sc" xMin="6" yMin="0" xMax="499" yMax="564">
      <component glyphName="a.sc" x="0" y="0" flags="0x204"/>
    </TTGlyph>
    <TTGlyph name="alphatonos" xMin="58" yMin="-13" xMax="549" yMax="812">
      <component glyphName="tonos" x="213" y="0" flags="0x4"/>
      <component glyphName="alpha" x="0" y="0" flags="0x204"/>
    </TTGlyph>
    <TTGlyph name="alphatonos.sc" xMin="6" yMin="0" xMax="499" yMax="564">
      <component glyphName="a.sc" x="0" y="0" flags="0x204"/>
    </TTGlyph>
    <TTGlyph name="amacron" xMin="45" yMin="-12" xMax="494" yMax="736">
      <component glyphName="a" x="0" y="0" flags="0x204"/>
      <component glyphName="macron" x="94" y="0" flags="0x4"/>
    </TTGlyph>
    <TTGlyph name="amacron.sc" xMin="6" yMin="0" xMax="499" yMax="766">
      <component glyphName="a.sc" x="0" y="0" flags="0x204"/>
      <component glyphName="macron.sc" x="86" y="0" flags="0x4"/>
    </TTGlyph>
    <TTGlyph name="ampersand" xMin="81" yMin="-12" xMax="689" yMax="701">
      <contour>
        <pt x="123" y="546" on="1"/>
        <pt x="123" y="611" on="0"/>
        <pt x="215" y="701" on="0"/>
        <pt x="302" y="701" on="1"/>
        <pt x="383" y="701" on="0"/>
        <pt x="485" y="614" on="0"/>
        <pt x="485" y="549" on="1"/>
        <pt x="485" y="485" on="0"/>
        <pt x="400" y="399" on="0"/>
        <pt x="344" y="366" on="1"/>
        <pt x="520" y="200" on="1"/>
        <pt x="537" y="235" on="0"/>
        <pt x="569" y="320" on="0"/>
        <pt x="580" y="369" on="1"/>
        <pt x="666" y="344" on="1"/>
        <pt x="647" y="283" on="0"/>
        <pt x="602" y="184" on="0"/>
        <pt x="577" y="147" on="1"/>
        <pt x="689" y="42" on="1"/>
        <pt x="623" y="-12" on="1"/>
        <pt x="526" y="82" on="1"/>
        <pt x="484" y="36" on="0"/>
        <pt x="376" y="-12" on="0"/>
        <pt x="305" y="-12" on="1"/>
        <pt x="206" y="-12" on="0"/>
        <pt x="81" y="90" on="0"/>
        <pt x="81" y="175" on="1"/>
        <pt x="81" y="240" on="0"/>
        <pt x="157" y="334" on="0"/>
        <pt x="220" y="374" on="1"/>
        <pt x="176" y="417" on="0"/>
        <pt x="123" y="495" on="0"/>
      </contour>
      <contour>
        <pt x="395" y="544" on="1"/>
        <pt x="395" y="586" on="0"/>
        <pt x="345" y="633" on="0"/>
        <pt x="303" y="633" on="1"/>
        <pt x="260" y="633" on="0"/>
        <pt x="213" y="584" on="0"/>
        <pt x="213" y="547" on="1"/>
        <pt x="213" y="508" on="0"/>
        <pt x="256" y="449" on="0"/>
        <pt x="292" y="415" on="1"/>
        <pt x="338" y="443" on="0"/>
        <pt x="395" y="504" on="0"/>
      </contour>
      <contour>
        <pt x="473" y="133" on="1"/>
        <pt x="273" y="324" on="1"/>
        <pt x="224" y="292" on="0"/>
        <pt x="175" y="222" on="0"/>
        <pt x="175" y="178" on="1"/>
        <pt x="175" y="123" on="0"/>
        <pt x="254" y="61" on="0"/>
        <pt x="315" y="61" on="1"/>
        <pt x="363" y="61" on="0"/>
        <pt x="439" y="99" on="0"/>
      </contour>
    </TTGlyph>
    <TTGlyph name="aogonek" xMin="45" yMin="-244" xMax="494" yMax="539">
      <component glyphName="a" x="0" y="0" flags="0x204"/>
      <component glyphName="ogonek" x="275" y="-12" flags="0x4"/>
    </TTGlyph>
    <TTGlyph name="aogonek.sc" xMin="6" yMin="-232" xMax="499" yMax="564">
      <component glyphName="ogonek.sc" x="271" y="0" flags="0x4"/>
      <component glyphName="a.sc" x="0" y="0" flags="0x204"/>
    </TTGlyph>
    <TTGlyph name="approxequal" xMin="69" yMin="161" xMax="487" yMax="484">
      <component glyphName="approxequal.lf" x="34" y="0" flags="0x4"/>
    </TTGlyph>
    <TTGlyph name="approxequal.lf" xMin="35" yMin="161" xMax="453" yMax="484">
      <component glyphName="asciitilde.lf" x="0" y="-89" flags="0x4"/>
      <component glyphName="asciitilde.lf" x="0" y="100" flags="0x4"/>
    </TTGlyph>
    <TTGlyph name="approxequal.osf" xMin="35" yMin="161" xMax="453" yMax="484">
      <component glyphName="approxequal.lf" x="0" y="0" flags="0x204"/>
    </TTGlyph>
    <TTGlyph name="approxequal.tosf" xMin="69" yMin="161" xMax="487" yMax="484">
      <component glyphName="approxequal.lf" x="34" y="0" flags="0x4"/>
    </TTGlyph>
    <TTGlyph name="aring" xMin="45" yMin="-12" xMax="494" yMax="836">
      <component glyphName="a" x="0" y="0" flags="0x204"/>
      <component glyphName="ring" x="117" y="0" flags="0x4"/>
    </TTGlyph>
    <TTGlyph name="aring.sc" xMin="6" yMin="0" xMax="499" yMax="866">
      <component glyphName="ring.sc" x="109" y="0" flags="0x4"/>
      <component glyphName="a.sc" x="0" y="0" flags="0x204"/>
    </TTGlyph>
    <TTGlyph name="arrowdown" xMin="137" yMin="-35" xMax="763" yMax="635">
      <contour>
        <pt x="405" y="635" on="1"/>
        <pt x="495" y="635" on="1"/>
        <pt x="495" y="94" on="1"/>
        <pt x="508" y="118" on="0"/>
        <pt x="538" y="152" on="0"/>
        <pt x="557" y="168" on="1"/>
        <pt x="708" y="307" on="1"/>
        <pt x="763" y="246" on="1"/>
        <pt x="450" y="-35" on="1"/>
        <pt x="137" y="246" on="1"/>
        <pt x="192" y="307" on="1"/>
        <pt x="343" y="168" on="1"/>
        <pt x="362" y="152" on="0"/>
        <pt x="392" y="118" on="0"/>
        <pt x="405" y="94" on="1"/>
      </contour>
    </TTGlyph>
    <TTGlyph name="arrowdownwhite" xMin="60" yMin="-94" xMax="660" yMax="750">
      <contour>
        <pt x="279" y="750" on="1"/>
        <pt x="441" y="750" on="1"/>
        <pt x="463" y="750" on="0"/>
        <pt x="491" y="722" on="0"/>
        <pt x="491" y="700" on="1"/>
        <pt x="491" y="204" on="1"/>
        <pt x="660" y="204" on="1"/>
        <pt x="360" y="-94" on="1"/>
        <pt x="60" y="204" on="1"/>
        <pt x="229" y="204" on="1"/>
        <pt x="229" y="700" on="1"/>
        <pt x="229" y="722" on="0"/>
        <pt x="257" y="750" on="0"/>
      </contour>
      <contour>
        <pt x="444" y="706" on="1"/>
        <pt x="276" y="706" on="1"/>
        <pt x="276" y="159" on="1"/>
        <pt x="169" y="159" on="1"/>
        <pt x="360" y="-30" on="1"/>
        <pt x="551" y="159" on="1"/>
        <pt x="444" y="159" on="1"/>
      </contour>
    </TTGlyph>
    <TTGlyph name="arrowleft" xMin="112" yMin="21" xMax="778" yMax="637">
      <contour>
        <pt x="112" y="329" on="1"/>
        <pt x="387" y="637" on="1"/>
        <pt x="454" y="580" on="1"/>
        <pt x="319" y="432" on="1"/>
        <pt x="297" y="408" on="0"/>
        <pt x="271" y="383" on="0"/>
        <pt x="249" y="369" on="1"/>
        <pt x="778" y="369" on="1"/>
        <pt x="778" y="289" on="1"/>
        <pt x="249" y="289" on="1"/>
        <pt x="268" y="276" on="0"/>
        <pt x="303" y="244" on="0"/>
        <pt x="319" y="226" on="1"/>
        <pt x="454" y="78" on="1"/>
        <pt x="387" y="21" on="1"/>
      </contour>
    </TTGlyph>
    <TTGlyph name="arrowleftwhite" xMin="40" yMin="13" xMax="920" yMax="613">
      <contour>
        <pt x="920" y="387" on="1"/>
        <pt x="920" y="239" on="1"/>
        <pt x="920" y="217" on="0"/>
        <pt x="892" y="189" on="0"/>
        <pt x="870" y="189" on="1"/>
        <pt x="338" y="189" on="1"/>
        <pt x="338" y="13" on="1"/>
        <pt x="40" y="313" on="1"/>
        <pt x="338" y="613" on="1"/>
        <pt x="338" y="437" on="1"/>
        <pt x="870" y="437" on="1"/>
        <pt x="892" y="437" on="0"/>
        <pt x="920" y="409" on="0"/>
      </contour>
      <contour>
        <pt x="876" y="233" on="1"/>
        <pt x="876" y="393" on="1"/>
        <pt x="293" y="393" on="1"/>
        <pt x="293" y="504" on="1"/>
        <pt x="104" y="313" on="1"/>
        <pt x="293" y="122" on="1"/>
        <pt x="293" y="233" on="1"/>
      </contour>
    </TTGlyph>
    <TTGlyph name="arrowright" xMin="122" yMin="21" xMax="788" yMax="637">
      <contour>
        <pt x="513" y="637" on="1"/>
        <pt x="788" y="329" on="1"/>
        <pt x="513" y="21" on="1"/>
        <pt x="446" y="78" on="1"/>
        <pt x="581" y="226" on="1"/>
        <pt x="597" y="244" on="0"/>
        <pt x="632" y="276" on="0"/>
        <pt x="651" y="289" on="1"/>
        <pt x="122" y="289" on="1"/>
        <pt x="122" y="369" on="1"/>
        <pt x="651" y="369" on="1"/>
        <pt x="629" y="383" on="0"/>
        <pt x="603" y="408" on="0"/>
        <pt x="581" y="432" on="1"/>
        <pt x="446" y="580" on="1"/>
      </contour>
    </TTGlyph>
    <TTGlyph name="arrowrightwhite" xMin="40" yMin="13" xMax="920" yMax="613">
      <contour>
        <pt x="40" y="239" on="1"/>
        <pt x="40" y="387" on="1"/>
        <pt x="40" y="409" on="0"/>
        <pt x="68" y="437" on="0"/>
        <pt x="90" y="437" on="1"/>
        <pt x="622" y="437" on="1"/>
        <pt x="622" y="613" on="1"/>
        <pt x="920" y="313" on="1"/>
        <pt x="622" y="13" on="1"/>
        <pt x="622" y="189" on="1"/>
        <pt x="90" y="189" on="1"/>
        <pt x="68" y="189" on="0"/>
        <pt x="40" y="217" on="0"/>
      </contour>
      <contour>
        <pt x="84" y="393" on="1"/>
        <pt x="84" y="233" on="1"/>
        <pt x="667" y="233" on="1"/>
        <pt x="667" y="122" on="1"/>
        <pt x="856" y="313" on="1"/>
        <pt x="667" y="504" on="1"/>
        <pt x="667" y="393" on="1"/>
      </contour>
    </TTGlyph>
    <TTGlyph name="arrowup" xMin="137" yMin="0" xMax="763" yMax="670">
      <contour>
        <pt x="495" y="0" on="1"/>
        <pt x="405" y="0" on="1"/>
        <pt x="405" y="541" on="1"/>
        <pt x="392" y="517" on="0"/>
        <pt x="362" y="483" on="0"/>
        <pt x="343" y="467" on="1"/>
        <pt x="192" y="328" on="1"/>
        <pt x="137" y="389" on="1"/>
        <pt x="450" y="670" on="1"/>
        <pt x="763" y="389" on="1"/>
        <pt x="708" y="328" on="1"/>
        <pt x="557" y="467" on="1"/>
        <pt x="538" y="483" on="0"/>
        <pt x="508" y="517" on="0"/>
        <pt x="495" y="541" on="1"/>
      </contour>
    </TTGlyph>
    <TTGlyph name="arrowupdn" xMin="137" yMin="-190" xMax="763" yMax="868">
      <contour>
        <pt x="137" y="587" on="1"/>
        <pt x="450" y="868" on="1"/>
        <pt x="763" y="587" on="1"/>
        <pt x="708" y="526" on="1"/>
        <pt x="557" y="665" on="1"/>
        <pt x="538" y="681" on="0"/>
        <pt x="508" y="715" on="0"/>
        <pt x="495" y="739" on="1"/>
        <pt x="495" y="-61" on="1"/>
        <pt x="508" y="-37" on="0"/>
        <pt x="538" y="-3" on="0"/>
        <pt x="557" y="13" on="1"/>
        <pt x="708" y="152" on="1"/>
        <pt x="763" y="91" on="1"/>
        <pt x="450" y="-190" on="1"/>
        <pt x="137" y="91" on="1"/>
        <pt x="192" y="152" on="1"/>
        <pt x="343" y="13" on="1"/>
        <pt x="362" y="-3" on="0"/>
        <pt x="392" y="-37" on="0"/>
        <pt x="405" y="-61" on="1"/>
        <pt x="405" y="739" on="1"/>
        <pt x="392" y="715" on="0"/>
        <pt x="362" y="681" on="0"/>
        <pt x="343" y="665" on="1"/>
        <pt x="192" y="526" on="1"/>
      </contour>
    </TTGlyph>
    <TTGlyph name="arrowupwhite" xMin="60" yMin="-12" xMax="660" yMax="832">
      <contour>
        <pt x="441" y="-12" on="1"/>
        <pt x="279" y="-12" on="1"/>
        <pt x="257" y="-12" on="0"/>
        <pt x="229" y="16" on="0"/>
        <pt x="229" y="38" on="1"/>
        <pt x="229" y="534" on="1"/>
        <pt x="60" y="534" on="1"/>
        <pt x="360" y="832" on="1"/>
        <pt x="660" y="534" on="1"/>
        <pt x="491" y="534" on="1"/>
        <pt x="491" y="38" on="1"/>
        <pt x="491" y="16" on="0"/>
        <pt x="463" y="-12" on="0"/>
      </contour>
      <contour>
        <pt x="276" y="32" on="1"/>
        <pt x="444" y="32" on="1"/>
        <pt x="444" y="579" on="1"/>
        <pt x="551" y="579" on="1"/>
        <pt x="360" y="768" on="1"/>
        <pt x="169" y="579" on="1"/>
        <pt x="276" y="579" on="1"/>
      </contour>
    </TTGlyph>
    <TTGlyph name="asciicircum" xMin="40" yMin="527" xMax="500" yMax="840">
      <contour>
        <pt x="229" y="840" on="1"/>
        <pt x="311" y="840" on="1"/>
        <pt x="500" y="527" on="1"/>
        <pt x="402" y="527" on="1"/>
        <pt x="269" y="760" on="1"/>
        <pt x="137" y="527" on="1"/>
        <pt x="40" y="527" on="1"/>
      </contour>
    </TTGlyph>
    <TTGlyph name="asciitilde" xMin="69" yMin="250" xMax="487" yMax="384">
      <component glyphName="asciitilde.lf" x="34" y="0" flags="0x4"/>
    </TTGlyph>
    <TTGlyph name="asciitilde.lf" xMin="35" yMin="250" xMax="453" yMax="384">
      <contour>
        <pt x="35" y="287" on="1"/>
        <pt x="51" y="318" on="0"/>
        <pt x="116" y="384" on="0"/>
        <pt x="172" y="384" on="1"/>
        <pt x="201" y="384" on="0"/>
        <pt x="244" y="365" on="0"/>
        <pt x="279" y="342" on="0"/>
        <pt x="309" y="323" on="0"/>
        <pt x="325" y="323" on="1"/>
        <pt x="350" y="323" on="0"/>
        <pt x="380" y="352" on="0"/>
        <pt x="392" y="373" on="1"/>
        <pt x="453" y="341" on="1"/>
        <pt x="437" y="310" on="0"/>
        <pt x="373" y="250" on="0"/>
        <pt x="319" y="250" on="1"/>
        <pt x="289" y="250" on="0"/>
        <pt x="245" y="269" on="0"/>
        <pt x="210" y="293" on="0"/>
        <pt x="181" y="312" on="0"/>
        <pt x="166" y="312" on="1"/>
        <pt x="139" y="312" on="0"/>
        <pt x="108" y="277" on="0"/>
        <pt x="96" y="256" on="1"/>
      </contour>
    </TTGlyph>
    <TTGlyph name="asciitilde.osf" xMin="35" yMin="250" xMax="453" yMax="384">
      <component glyphName="asciitilde.lf" x="0" y="0" flags="0x204"/>
    </TTGlyph>
    <TTGlyph name="asciitilde.tosf" xMin="69" yMin="250" xMax="487" yMax="384">
      <component glyphName="asciitilde.lf" x="34" y="0" flags="0x4"/>
    </TTGlyph>
    <TTGlyph name="asterisk" xMin="20" yMin="359" xMax="419" yMax="739">
      <contour>
        <pt x="298" y="359" on="1"/>
        <pt x="219" y="493" on="1"/>
        <pt x="141" y="359" on="1"/>
        <pt x="69" y="411" on="1"/>
        <pt x="172" y="528" on="1"/>
        <pt x="20" y="561" on="1"/>
        <pt x="47" y="643" on="1"/>
        <pt x="189" y="582" on="1"/>
        <pt x="174" y="739" on="1"/>
        <pt x="264" y="739" on="1"/>
        <pt x="249" y="581" on="1"/>
        <pt x="391" y="644" on="1"/>
        <pt x="419" y="561" on="1"/>
        <pt x="266" y="528" on="1"/>
        <pt x="370" y="412" on="1"/>
      </contour>
    </TTGlyph>
    <TTGlyph name="at" xMin="70" yMin="-213" xMax="950" yMax="701">
      <contour>
        <pt x="525" y="-213" on="1"/>
        <pt x="425" y="-213" on="0"/>
        <pt x="256" y="-149" on="0"/>
        <pt x="137" y="-32" on="0"/>
        <pt x="70" y="137" on="0"/>
        <pt x="70" y="240" on="1"/>
        <pt x="70" y="337" on="0"/>
        <pt x="136" y="507" on="0"/>
        <pt x="256" y="630" on="0"/>
        <pt x="425" y="701" on="0"/>
        <pt x="526" y="701" on="1"/>
        <pt x="630" y="701" on="0"/>
        <pt x="789" y="636" on="0"/>
        <pt x="895" y="528" on="0"/>
        <pt x="950" y="385" on="0"/>
        <pt x="950" y="307" on="1"/>
        <pt x="950" y="246" on="0"/>
        <pt x="926" y="137" on="0"/>
        <pt x="878" y="56" on="0"/>
        <pt x="803" y="9" on="0"/>
        <pt x="753" y="9" on="1"/>
        <pt x="691" y="9" on="0"/>
        <pt x="632" y="78" on="0"/>
        <pt x="625" y="112" on="1"/>
        <pt x="609" y="75" on="0"/>
        <pt x="540" y="11" on="0"/>
        <pt x="481" y="11" on="1"/>
        <pt x="401" y="11" on="0"/>
        <pt x="308" y="132" on="0"/>
        <pt x="308" y="231" on="1"/>
        <pt x="308" y="360" on="0"/>
        <pt x="432" y="492" on="0"/>
        <pt x="526" y="492" on="1"/>
        <pt x="566" y="492" on="0"/>
        <pt x="641" y="474" on="0"/>
        <pt x="683" y="452" on="1"/>
        <pt x="683" y="193" on="1"/>
        <pt x="683" y="129" on="0"/>
        <pt x="719" y="80" on="0"/>
        <pt x="751" y="80" on="1"/>
        <pt x="802" y="80" on="0"/>
        <pt x="857" y="189" on="0"/>
        <pt x="857" y="305" on="1"/>
        <pt x="857" y="449" on="0"/>
        <pt x="688" y="625" on="0"/>
        <pt x="526" y="625" on="1"/>
        <pt x="442" y="625" on="0"/>
        <pt x="307" y="567" on="0"/>
        <pt x="213" y="464" on="0"/>
        <pt x="163" y="322" on="0"/>
        <pt x="163" y="240" on="1"/>
        <pt x="163" y="158" on="0"/>
        <pt x="211" y="18" on="0"/>
        <pt x="303" y="-81" on="0"/>
        <pt x="439" y="-137" on="0"/>
        <pt x="526" y="-137" on="1"/>
        <pt x="582" y="-137" on="0"/>
        <pt x="678" y="-117" on="0"/>
        <pt x="718" y="-103" on="1"/>
        <pt x="743" y="-174" on="1"/>
        <pt x="694" y="-191" on="0"/>
        <pt x="593" y="-213" on="0"/>
      </contour>
      <contour>
        <pt x="492" y="78" on="1"/>
        <pt x="543" y="78" on="0"/>
        <pt x="592" y="142" on="0"/>
        <pt x="600" y="164" on="1"/>
        <pt x="600" y="411" on="1"/>
        <pt x="585" y="418" on="0"/>
        <pt x="551" y="426" on="0"/>
        <pt x="529" y="426" on="1"/>
        <pt x="464" y="426" on="0"/>
        <pt x="398" y="327" on="0"/>
        <pt x="398" y="231" on="1"/>
        <pt x="398" y="156" on="0"/>
        <pt x="446" y="78" on="0"/>
      </contour>
    </TTGlyph>
    <TTGlyph name="atilde" xMin="45" yMin="-12" xMax="494" yMax="774">
      <component glyphName="a" x="0" y="0" flags="0x204"/>
      <component glyphName="tilde" x="64" y="0" flags="0x4"/>
    </TTGlyph>
    <TTGlyph name="atilde.sc" xMin="6" yMin="0" xMax="499" yMax="804">
      <component glyphName="tilde.sc" x="56" y="0" flags="0x4"/>
      <component glyphName="a.sc" x="0" y="0" flags="0x204"/>
    </TTGlyph>
    <TTGlyph name="b" xMin="95" yMin="-12" xMax="532" yMax="750">
      <contour>
        <pt x="325" y="-12" on="1"/>
        <pt x="282" y="-12" on="0"/>
        <pt x="212" y="25" on="0"/>
        <pt x="185" y="58" on="1"/>
        <pt x="176" y="0" on="1"/>
        <pt x="95" y="0" on="1"/>
        <pt x="95" y="739" on="1"/>
        <pt x="187" y="750" on="1"/>
        <pt x="187" y="461" on="1"/>
        <pt x="214" y="498" on="0"/>
        <pt x="288" y="539" on="0"/>
        <pt x="336" y="539" on="1"/>
        <pt x="425" y="539" on="0"/>
        <pt x="532" y="395" on="0"/>
        <pt x="532" y="264" on="1"/>
        <pt x="532" y="141" on="0"/>
        <pt x="421" y="-12" on="0"/>
      </contour>
      <contour>
        <pt x="303" y="61" on="1"/>
        <pt x="360" y="61" on="0"/>
        <pt x="433" y="157" on="0"/>
        <pt x="433" y="264" on="1"/>
        <pt x="433" y="376" on="0"/>
        <pt x="365" y="466" on="0"/>
        <pt x="310" y="466" on="1"/>
        <pt x="267" y="466" on="0"/>
        <pt x="207" y="415" on="0"/>
        <pt x="187" y="384" on="1"/>
        <pt x="187" y="132" on="1"/>
        <pt x="207" y="101" on="0"/>
        <pt x="268" y="61" on="0"/>
      </contour>
    </TTGlyph>
    <TTGlyph name="b.sc" xMin="100" yMin="0" xMax="510" yMax="565">
      <contour>
        <pt x="100" y="565" on="1"/>
        <pt x="246" y="565" on="1"/>
        <pt x="357" y="565" on="0"/>
        <pt x="484" y="496" on="0"/>
        <pt x="484" y="421" on="1"/>
        <pt x="484" y="370" on="0"/>
        <pt x="416" y="308" on="0"/>
        <pt x="374" y="299" on="1"/>
        <pt x="423" y="290" on="0"/>
        <pt x="510" y="231" on="0"/>
        <pt x="510" y="162" on="1"/>
        <pt x="510" y="71" on="0"/>
        <pt x="374" y="0" on="0"/>
        <pt x="270" y="0" on="1"/>
        <pt x="100" y="0" on="1"/>
      </contour>
      <contour>
        <pt x="192" y="495" on="1"/>
        <pt x="192" y="329" on="1"/>
        <pt x="276" y="329" on="1"/>
        <pt x="325" y="329" on="0"/>
        <pt x="390" y="372" on="0"/>
        <pt x="390" y="414" on="1"/>
        <pt x="390" y="462" on="0"/>
        <pt x="318" y="495" on="0"/>
        <pt x="255" y="495" on="1"/>
      </contour>
      <contour>
        <pt x="192" y="71" on="1"/>
        <pt x="270" y="71" on="1"/>
        <pt x="332" y="71" on="0"/>
        <pt x="413" y="107" on="0"/>
        <pt x="413" y="164" on="1"/>
        <pt x="413" y="219" on="0"/>
        <pt x="336" y="262" on="0"/>
        <pt x="284" y="262" on="1"/>
        <pt x="192" y="262" on="1"/>
      </contour>
    </TTGlyph>
    <TTGlyph name="backslash" xMin="105" yMin="-104" xMax="415" yMax="807">
      <contour>
        <pt x="105" y="789" on="1"/>
        <pt x="183" y="807" on="1"/>
        <pt x="415" y="-85" on="1"/>
        <pt x="336" y="-104" on="1"/>
      </contour>
    </TTGlyph>
    <TTGlyph name="bar" xMin="160" yMin="-102" xMax="243" yMax="807">
      <contour>
        <pt x="160" y="807" on="1"/>
        <pt x="243" y="807" on="1"/>
        <pt x="243" y="-102" on="1"/>
        <pt x="160" y="-102" on="1"/>
      </contour>
    </TTGlyph>
    <TTGlyph name="beta" xMin="95" yMin="-214" xMax="557" yMax="750">
      <contour>
        <pt x="323" y="62" on="1"/>
        <pt x="380" y="62" on="0"/>
        <pt x="463" y="134" on="0"/>
        <pt x="463" y="204" on="1"/>
        <pt x="463" y="282" on="0"/>
        <pt x="373" y="363" on="0"/>
        <pt x="290" y="363" on="1"/>
        <pt x="238" y="363" on="1"/>
        <pt x="248" y="433" on="1"/>
        <pt x="297" y="433" on="1"/>
        <pt x="346" y="433" on="0"/>
        <pt x="416" y="494" on="0"/>
        <pt x="416" y="562" on="1"/>
        <pt x="416" y="622" on="0"/>
        <pt x="350" y="678" on="0"/>
        <pt x="300" y="678" on="1"/>
        <pt x="245" y="678" on="0"/>
        <pt x="187" y="610" on="0"/>
        <pt x="187" y="541" on="1"/>
        <pt x="187" y="110" on="1"/>
        <pt x="213" y="85" on="0"/>
        <pt x="280" y="62" on="0"/>
      </contour>
      <contour>
        <pt x="187" y="-201" on="1"/>
        <pt x="95" y="-214" on="1"/>
        <pt x="95" y="541" on="1"/>
        <pt x="95" y="639" on="0"/>
        <pt x="205" y="750" on="0"/>
        <pt x="299" y="750" on="1"/>
        <pt x="383" y="750" on="0"/>
        <pt x="503" y="654" on="0"/>
        <pt x="503" y="571" on="1"/>
        <pt x="503" y="494" on="0"/>
        <pt x="416" y="413" on="0"/>
        <pt x="354" y="404" on="1"/>
        <pt x="389" y="400" on="0"/>
        <pt x="462" y="379" on="0"/>
        <pt x="520" y="334" on="0"/>
        <pt x="557" y="259" on="0"/>
        <pt x="557" y="203" on="1"/>
        <pt x="557" y="104" on="0"/>
        <pt x="423" y="-12" on="0"/>
        <pt x="335" y="-12" on="1"/>
        <pt x="295" y="-12" on="0"/>
        <pt x="220" y="14" on="0"/>
        <pt x="187" y="39" on="1"/>
      </contour>
    </TTGlyph>
    <TTGlyph name="beta.sc" xMin="100" yMin="0" xMax="510" yMax="565">
      <component glyphName="b.sc" x="0" y="0" flags="0x204"/>
    </TTGlyph>
    <TTGlyph name="beta.ss10" xMin="60" yMin="-12" xMax="518" yMax="750">
      <contour>
        <pt x="289" y="-12" on="1"/>
        <pt x="163" y="-12" on="0"/>
        <pt x="60" y="178" on="0"/>
        <pt x="60" y="345" on="1"/>
        <pt x="60" y="445" on="0"/>
        <pt x="106" y="597" on="0"/>
        <pt x="181" y="699" on="0"/>
        <pt x="279" y="750" on="0"/>
        <pt x="330" y="750" on="1"/>
        <pt x="418" y="750" on="0"/>
        <pt x="480" y="668" on="0"/>
        <pt x="480" y="628" on="1"/>
        <pt x="480" y="562" on="0"/>
        <pt x="386" y="454" on="0"/>
        <pt x="297" y="429" on="1"/>
        <pt x="314" y="433" on="0"/>
        <pt x="336" y="437" on="0"/>
        <pt x="346" y="437" on="1"/>
        <pt x="397" y="437" on="0"/>
        <pt x="464" y="401" on="0"/>
        <pt x="503" y="341" on="0"/>
        <pt x="518" y="264" on="0"/>
        <pt x="518" y="224" on="1"/>
        <pt x="518" y="179" on="0"/>
        <pt x="488" y="94" on="0"/>
        <pt x="431" y="28" on="0"/>
        <pt x="345" y="-12" on="0"/>
      </contour>
      <contour>
        <pt x="327" y="680" on="1"/>
        <pt x="270" y="680" on="0"/>
        <pt x="173" y="563" on="0"/>
        <pt x="162" y="414" on="1"/>
        <pt x="199" y="430" on="1"/>
        <pt x="291" y="470" on="0"/>
        <pt x="386" y="555" on="0"/>
        <pt x="386" y="621" on="1"/>
        <pt x="386" y="652" on="0"/>
        <pt x="353" y="680" on="0"/>
      </contour>
      <contour>
        <pt x="288" y="62" on="1"/>
        <pt x="350" y="62" on="0"/>
        <pt x="417" y="151" on="0"/>
        <pt x="417" y="220" on="1"/>
        <pt x="417" y="293" on="0"/>
        <pt x="370" y="383" on="0"/>
        <pt x="295" y="383" on="1"/>
        <pt x="273" y="383" on="0"/>
        <pt x="223" y="369" on="0"/>
        <pt x="196" y="356" on="1"/>
        <pt x="159" y="338" on="1"/>
        <pt x="158" y="209" on="0"/>
        <pt x="211" y="62" on="0"/>
      </contour>
    </TTGlyph>
    <TTGlyph name="braceleft" xMin="25" yMin="-136" xMax="277" yMax="836">
      <contour>
        <pt x="95" y="687" on="1"/>
        <pt x="95" y="765" on="0"/>
        <pt x="176" y="836" on="0"/>
        <pt x="277" y="836" on="1"/>
        <pt x="277" y="765" on="1"/>
        <pt x="227" y="765" on="0"/>
        <pt x="182" y="734" on="0"/>
        <pt x="182" y="697" on="1"/>
        <pt x="182" y="458" on="1"/>
        <pt x="182" y="404" on="0"/>
        <pt x="142" y="361" on="0"/>
        <pt x="107" y="349" on="1"/>
        <pt x="142" y="337" on="0"/>
        <pt x="182" y="296" on="0"/>
        <pt x="182" y="242" on="1"/>
        <pt x="182" y="3" on="1"/>
        <pt x="182" y="-34" on="0"/>
        <pt x="227" y="-65" on="0"/>
        <pt x="277" y="-65" on="1"/>
        <pt x="277" y="-136" on="1"/>
        <pt x="176" y="-136" on="0"/>
        <pt x="95" y="-65" on="0"/>
        <pt x="95" y="13" on="1"/>
        <pt x="95" y="235" on="1"/>
        <pt x="95" y="276" on="0"/>
        <pt x="65" y="311" on="0"/>
        <pt x="25" y="311" on="1"/>
        <pt x="25" y="387" on="1"/>
        <pt x="65" y="387" on="0"/>
        <pt x="95" y="424" on="0"/>
        <pt x="95" y="465" on="1"/>
      </contour>
    </TTGlyph>
    <TTGlyph name="braceleft.case" xMin="25" yMin="-146" xMax="277" yMax="826">
      <component glyphName="braceleft" x="0" y="-10" flags="0x4"/>
    </TTGlyph>
    <TTGlyph name="braceright" xMin="45" yMin="-136" xMax="297" yMax="836">
      <contour>
        <pt x="45" y="765" on="1"/>
        <pt x="45" y="836" on="1"/>
        <pt x="146" y="836" on="0"/>
        <pt x="227" y="765" on="0"/>
        <pt x="227" y="687" on="1"/>
        <pt x="227" y="465" on="1"/>
        <pt x="227" y="424" on="0"/>
        <pt x="257" y="387" on="0"/>
        <pt x="297" y="387" on="1"/>
        <pt x="297" y="311" on="1"/>
        <pt x="257" y="311" on="0"/>
        <pt x="227" y="276" on="0"/>
        <pt x="227" y="235" on="1"/>
        <pt x="227" y="13" on="1"/>
        <pt x="227" y="-65" on="0"/>
        <pt x="146" y="-136" on="0"/>
        <pt x="45" y="-136" on="1"/>
        <pt x="45" y="-65" on="1"/>
        <pt x="95" y="-65" on="0"/>
        <pt x="140" y="-34" on="0"/>
        <pt x="140" y="3" on="1"/>
        <pt x="140" y="242" on="1"/>
        <pt x="140" y="296" on="0"/>
        <pt x="180" y="337" on="0"/>
        <pt x="215" y="349" on="1"/>
        <pt x="180" y="361" on="0"/>
        <pt x="140" y="404" on="0"/>
        <pt x="140" y="458" on="1"/>
        <pt x="140" y="697" on="1"/>
        <pt x="140" y="734" on="0"/>
        <pt x="95" y="765" on="0"/>
      </contour>
    </TTGlyph>
    <TTGlyph name="braceright.case" xMin="45" yMin="-146" xMax="297" yMax="826">
      <component glyphName="braceright" x="0" y="-10" flags="0x4"/>
    </TTGlyph>
    <TTGlyph name="bracketleft" xMin="65" yMin="-116" xMax="272" yMax="816">
      <contour>
        <pt x="65" y="816" on="1"/>
        <pt x="272" y="816" on="1"/>
        <pt x="272" y="739" on="1"/>
        <pt x="152" y="739" on="1"/>
        <pt x="152" y="-40" on="1"/>
        <pt x="272" y="-40" on="1"/>
        <pt x="272" y="-116" on="1"/>
        <pt x="65" y="-116" on="1"/>
      </contour>
    </TTGlyph>
    <TTGlyph name="bracketleft.case" xMin="65" yMin="-126" xMax="272" yMax="806">
      <component glyphName="bracketleft" x="0" y="-10" flags="0x4"/>
    </TTGlyph>
    <TTGlyph name="bracketright" xMin="50" yMin="-116" xMax="257" yMax="816">
      <contour>
        <pt x="50" y="816" on="1"/>
        <pt x="257" y="816" on="1"/>
        <pt x="257" y="-116" on="1"/>
        <pt x="50" y="-116" on="1"/>
        <pt x="50" y="-40" on="1"/>
        <pt x="170" y="-40" on="1"/>
        <pt x="170" y="739" on="1"/>
        <pt x="50" y="739" on="1"/>
      </contour>
    </TTGlyph>
    <TTGlyph name="bracketright.case" xMin="50" yMin="-126" xMax="257" yMax="806">
      <component glyphName="bracketright" x="0" y="-10" flags="0x4"/>
    </TTGlyph>
    <TTGlyph name="breve" xMin="30" yMin="643" xMax="333" yMax="789">
      <contour>
        <pt x="333" y="776" on="1"/>
        <pt x="327" y="713" on="0"/>
        <pt x="240" y="643" on="0"/>
        <pt x="180" y="643" on="1"/>
        <pt x="120" y="643" on="0"/>
        <pt x="36" y="713" on="0"/>
        <pt x="30" y="776" on="1"/>
        <pt x="91" y="789" on="1"/>
        <pt x="101" y="752" on="0"/>
        <pt x="145" y="713" on="0"/>
        <pt x="180" y="713" on="1"/>
        <pt x="215" y="713" on="0"/>
        <pt x="262" y="752" on="0"/>
        <pt x="272" y="789" on="1"/>
      </contour>
    </TTGlyph>
    <TTGlyph name="breve.cy" xMin="30" yMin="643" xMax="333" yMax="773">
      <contour>
        <pt x="333" y="760" on="1"/>
        <pt x="327" y="705" on="0"/>
        <pt x="240" y="643" on="0"/>
        <pt x="180" y="643" on="1"/>
        <pt x="120" y="643" on="0"/>
        <pt x="36" y="705" on="0"/>
        <pt x="30" y="760" on="1"/>
        <pt x="91" y="773" on="1"/>
        <pt x="101" y="741" on="0"/>
        <pt x="145" y="713" on="0"/>
        <pt x="180" y="713" on="1"/>
        <pt x="215" y="713" on="0"/>
        <pt x="262" y="741" on="0"/>
        <pt x="272" y="773" on="1"/>
      </contour>
    </TTGlyph>
    <TTGlyph name="breve.cy.case" xMin="30" yMin="769" xMax="333" yMax="899">
      <component glyphName="breve.cy" x="0" y="126" flags="0x4"/>
    </TTGlyph>
    <TTGlyph name="breve.cy.sc" xMin="30" yMin="673" xMax="333" yMax="803">
      <component glyphName="breve.cy" x="0" y="30" flags="0x4"/>
    </TTGlyph>
    <TTGlyph name="breve.case" xMin="30" yMin="758" xMax="333" yMax="894">
      <contour>
        <pt x="333" y="881" on="1"/>
        <pt x="327" y="826" on="0"/>
        <pt x="240" y="758" on="0"/>
        <pt x="180" y="758" on="1"/>
        <pt x="120" y="758" on="0"/>
        <pt x="36" y="826" on="0"/>
        <pt x="30" y="881" on="1"/>
        <pt x="91" y="894" on="1"/>
        <pt x="101" y="864" on="0"/>
        <pt x="145" y="828" on="0"/>
        <pt x="180" y="828" on="1"/>
        <pt x="215" y="828" on="0"/>
        <pt x="262" y="864" on="0"/>
        <pt x="272" y="894" on="1"/>
      </contour>
    </TTGlyph>
    <TTGlyph name="breve.sc" xMin="30" yMin="673" xMax="333" yMax="819">
      <component glyphName="breve" x="0" y="30" flags="0x4"/>
    </TTGlyph>
    <TTGlyph name="brevecombcomb" xMin="39" yMin="632" xMax="342" yMax="768">
      <component glyphName="uni0306" x="0" y="0" flags="0x204"/>
    </TTGlyph>
    <TTGlyph name="brokenbar" xMin="160" yMin="-102" xMax="243" yMax="807">
      <contour>
        <pt x="160" y="807" on="1"/>
        <pt x="243" y="807" on="1"/>
        <pt x="243" y="443" on="1"/>
        <pt x="160" y="443" on="1"/>
      </contour>
      <contour>
        <pt x="160" y="262" on="1"/>
        <pt x="243" y="262" on="1"/>
        <pt x="243" y="-102" on="1"/>
        <pt x="160" y="-102" on="1"/>
      </contour>
    </TTGlyph>
    <TTGlyph name="bullet" xMin="50" yMin="229" xMax="274" yMax="454">
      <contour>
        <pt x="50" y="342" on="1"/>
        <pt x="50" y="390" on="0"/>
        <pt x="114" y="454" on="0"/>
        <pt x="162" y="454" on="1"/>
        <pt x="210" y="454" on="0"/>
        <pt x="274" y="389" on="0"/>
        <pt x="274" y="341" on="1"/>
        <pt x="274" y="293" on="0"/>
        <pt x="210" y="229" on="0"/>
        <pt x="162" y="229" on="1"/>
        <pt x="114" y="229" on="0"/>
        <pt x="50" y="294" on="0"/>
      </contour>
    </TTGlyph>
    <TTGlyph name="bulletoperator" xMin="50" yMin="241" xMax="189" yMax="380">
      <component glyphName="periodcentered" x="0" y="0" flags="0x204"/>
    </TTGlyph>
    <TTGlyph name="c" xMin="57" yMin="-12" xMax="448" yMax="539">
      <contour>
        <pt x="57" y="259" on="1"/>
        <pt x="57" y="384" on="0"/>
        <pt x="180" y="539" on="0"/>
        <pt x="287" y="539" on="1"/>
        <pt x="333" y="539" on="0"/>
        <pt x="411" y="513" on="0"/>
        <pt x="448" y="482" on="1"/>
        <pt x="403" y="422" on="1"/>
        <pt x="377" y="443" on="0"/>
        <pt x="324" y="463" on="0"/>
        <pt x="291" y="463" on="1"/>
        <pt x="229" y="463" on="0"/>
        <pt x="156" y="363" on="0"/>
        <pt x="156" y="261" on="1"/>
        <pt x="156" y="158" on="0"/>
        <pt x="229" y="66" on="0"/>
        <pt x="291" y="66" on="1"/>
        <pt x="324" y="66" on="0"/>
        <pt x="376" y="87" on="0"/>
        <pt x="404" y="109" on="1"/>
        <pt x="448" y="46" on="1"/>
        <pt x="413" y="18" on="0"/>
        <pt x="333" y="-12" on="0"/>
        <pt x="287" y="-12" on="1"/>
        <pt x="181" y="-12" on="0"/>
        <pt x="57" y="132" on="0"/>
      </contour>
    </TTGlyph>
    <TTGlyph name="c.sc" xMin="55" yMin="-11" xMax="482" yMax="574">
      <contour>
        <pt x="55" y="284" on="1"/>
        <pt x="55" y="424" on="0"/>
        <pt x="203" y="574" on="0"/>
        <pt x="306" y="574" on="1"/>
        <pt x="363" y="574" on="0"/>
        <pt x="439" y="544" on="0"/>
        <pt x="474" y="516" on="1"/>
        <pt x="426" y="459" on="1"/>
        <pt x="399" y="480" on="0"/>
        <pt x="343" y="501" on="0"/>
        <pt x="312" y="501" on="1"/>
        <pt x="246" y="501" on="0"/>
        <pt x="152" y="403" on="0"/>
        <pt x="152" y="284" on="1"/>
        <pt x="152" y="167" on="0"/>
        <pt x="244" y="64" on="0"/>
        <pt x="312" y="64" on="1"/>
        <pt x="352" y="64" on="0"/>
        <pt x="411" y="94" on="0"/>
        <pt x="436" y="112" on="1"/>
        <pt x="482" y="55" on="1"/>
        <pt x="457" y="30" on="0"/>
        <pt x="369" y="-11" on="0"/>
        <pt x="308" y="-11" on="1"/>
        <pt x="198" y="-11" on="0"/>
        <pt x="55" y="141" on="0"/>
      </contour>
    </TTGlyph>
    <TTGlyph name="cacute" xMin="57" yMin="-12" xMax="448" yMax="801">
      <component glyphName="acute" x="129" y="0" flags="0x4"/>
      <component glyphName="c" x="0" y="0" flags="0x204"/>
    </TTGlyph>
    <TTGlyph name="cacute.loclPLK" xMin="57" yMin="-12" xMax="448" yMax="777">
      <component glyphName="c" x="0" y="0" flags="0x204"/>
      <component glyphName="acute.loclPLK" x="141" y="0" flags="0x4"/>
    </TTGlyph>
    <TTGlyph name="cacute.sc" xMin="55" yMin="-11" xMax="482" yMax="831">
      <component glyphName="acute.sc" x="161" y="0" flags="0x4"/>
      <component glyphName="c.sc" x="0" y="0" flags="0x204"/>
    </TTGlyph>
    <TTGlyph name="cacute.sc.loclPLK" xMin="55" yMin="-11" xMax="482" yMax="819">
      <component glyphName="acute.sc.loclPLK" x="163" y="0" flags="0x4"/>
      <component glyphName="c.sc" x="0" y="0" flags="0x204"/>
    </TTGlyph>
    <TTGlyph name="capslock" xMin="60" yMin="-12" xMax="660" yMax="832">
      <contour>
        <pt x="491" y="255" on="1"/>
        <pt x="229" y="255" on="1"/>
        <pt x="229" y="534" on="1"/>
        <pt x="60" y="534" on="1"/>
        <pt x="360" y="832" on="1"/>
        <pt x="660" y="534" on="1"/>
        <pt x="491" y="534" on="1"/>
      </contour>
      <contour>
        <pt x="276" y="297" on="1"/>
        <pt x="444" y="297" on="1"/>
        <pt x="444" y="579" on="1"/>
        <pt x="551" y="579" on="1"/>
        <pt x="360" y="768" on="1"/>
        <pt x="169" y="579" on="1"/>
        <pt x="276" y="579" on="1"/>
      </contour>
      <contour>
        <pt x="229" y="155" on="1"/>
        <pt x="491" y="155" on="1"/>
        <pt x="491" y="38" on="1"/>
        <pt x="491" y="16" on="0"/>
        <pt x="463" y="-12" on="0"/>
        <pt x="441" y="-12" on="1"/>
        <pt x="279" y="-12" on="1"/>
        <pt x="257" y="-12" on="0"/>
        <pt x="229" y="16" on="0"/>
        <pt x="229" y="38" on="1"/>
      </contour>
      <contour>
        <pt x="444" y="113" on="1"/>
        <pt x="276" y="113" on="1"/>
        <pt x="276" y="32" on="1"/>
        <pt x="444" y="32" on="1"/>
      </contour>
    </TTGlyph>
    <TTGlyph name="caron" xMin="30" yMin="627" xMax="362" yMax="785">
      <contour>
        <pt x="196" y="701" on="1"/>
        <pt x="323" y="785" on="1"/>
        <pt x="362" y="740" on="1"/>
        <pt x="227" y="627" on="1"/>
        <pt x="166" y="627" on="1"/>
        <pt x="30" y="740" on="1"/>
        <pt x="70" y="785" on="1"/>
      </contour>
    </TTGlyph>
    <TTGlyph name="caron.alt" xMin="62" yMin="505" xMax="161" yMax="699">
      <contour>
        <pt x="62" y="513" on="1"/>
        <pt x="78" y="699" on="1"/>
        <pt x="161" y="689" on="1"/>
        <pt x="115" y="505" on="1"/>
      </contour>
    </TTGlyph>
    <TTGlyph name="caron.case" xMin="30" yMin="754" xMax="362" yMax="909">
      <contour>
        <pt x="196" y="828" on="1"/>
        <pt x="323" y="909" on="1"/>
        <pt x="362" y="864" on="1"/>
        <pt x="227" y="754" on="1"/>
        <pt x="166" y="754" on="1"/>
        <pt x="30" y="864" on="1"/>
        <pt x="70" y="909" on="1"/>
      </contour>
    </TTGlyph>
    <TTGlyph name="caron.sc" xMin="30" yMin="657" xMax="362" yMax="815">
      <component glyphName="caron" x="0" y="30" flags="0x4"/>
    </TTGlyph>
    <TTGlyph name="caroncombcomb" xMin="39" yMin="628" xMax="371" yMax="783">
      <component glyphName="uni030C" x="0" y="0" flags="0x204"/>
    </TTGlyph>
    <TTGlyph name="ccaron" xMin="57" yMin="-12" xMax="455" yMax="785">
      <component glyphName="caron" x="93" y="0" flags="0x4"/>
      <component glyphName="c" x="0" y="0" flags="0x204"/>
    </TTGlyph>
    <TTGlyph name="ccaron.sc" xMin="55" yMin="-11" xMax="482" yMax="815">
      <component glyphName="caron.sc" x="115" y="0" flags="0x4"/>
      <component glyphName="c.sc" x="0" y="0" flags="0x204"/>
    </TTGlyph>
    <TTGlyph name="ccedilla" xMin="57" yMin="-241" xMax="448" yMax="539">
      <component glyphName="c" x="0" y="0" flags="0x204"/>
      <component glyphName="cedilla" x="156" y="0" flags="0x4"/>
    </TTGlyph>
    <TTGlyph name="ccedilla.sc" xMin="55" yMin="-241" xMax="482" yMax="574">
      <component glyphName="cedilla.sc" x="180" y="0" flags="0x4"/>
      <component glyphName="c.sc" x="0" y="0" flags="0x204"/>
    </TTGlyph>
    <TTGlyph name="ccircumflex" xMin="57" yMin="-12" xMax="455" yMax="792">
      <component glyphName="circumflex" x="93" y="0" flags="0x4"/>
      <component glyphName="c" x="0" y="0" flags="0x204"/>
    </TTGlyph>
    <TTGlyph name="ccircumflex.sc" xMin="55" yMin="-11" xMax="482" yMax="822">
      <component glyphName="c.sc" x="0" y="0" flags="0x204"/>
      <component glyphName="circumflex.sc" x="115" y="0" flags="0x4"/>
    </TTGlyph>
    <TTGlyph name="cdotaccent" xMin="57" yMin="-12" xMax="448" yMax="780">
      <component glyphName="c" x="0" y="0" flags="0x204"/>
      <component glyphName="dotaccent" x="194" y="0" flags="0x4"/>
    </TTGlyph>
    <TTGlyph name="cdotaccent.sc" xMin="55" yMin="-11" xMax="482" yMax="810">
      <component glyphName="dotaccent.sc" x="216" y="0" flags="0x4"/>
      <component glyphName="c.sc" x="0" y="0" flags="0x204"/>
    </TTGlyph>
    <TTGlyph name="cedilla" xMin="30" yMin="-241" xMax="245" yMax="16">
      <contour>
        <pt x="93" y="16" on="1"/>
        <pt x="152" y="16" on="1"/>
        <pt x="152" y="-56" on="1"/>
        <pt x="203" y="-60" on="0"/>
        <pt x="245" y="-110" on="0"/>
        <pt x="245" y="-141" on="1"/>
        <pt x="245" y="-190" on="0"/>
        <pt x="172" y="-241" on="0"/>
        <pt x="121" y="-241" on="1"/>
        <pt x="93" y="-241" on="0"/>
        <pt x="45" y="-228" on="0"/>
        <pt x="30" y="-217" on="1"/>
        <pt x="55" y="-165" on="1"/>
        <pt x="69" y="-172" on="0"/>
        <pt x="99" y="-181" on="0"/>
        <pt x="118" y="-181" on="1"/>
        <pt x="139" y="-181" on="0"/>
        <pt x="168" y="-163" on="0"/>
        <pt x="168" y="-141" on="1"/>
        <pt x="168" y="-121" on="0"/>
        <pt x="127" y="-99" on="0"/>
        <pt x="79" y="-99" on="1"/>
      </contour>
    </TTGlyph>
    <TTGlyph name="cedilla.case" xMin="30" yMin="-241" xMax="245" yMax="16">
      <component glyphName="cedilla" x="0" y="0" flags="0x204"/>
    </TTGlyph>
    <TTGlyph name="cedilla.sc" xMin="30" yMin="-241" xMax="245" yMax="16">
      <component glyphName="cedilla" x="0" y="0" flags="0x204"/>
    </TTGlyph>
    <TTGlyph name="cedillaTcedilla" xMin="30" yMin="-241" xMax="245" yMax="16">
      <contour>
        <pt x="93" y="16" on="1"/>
        <pt x="149" y="16" on="1"/>
        <pt x="149" y="-56" on="1"/>
        <pt x="200" y="-60" on="0"/>
        <pt x="245" y="-110" on="0"/>
        <pt x="245" y="-141" on="1"/>
        <pt x="245" y="-190" on="0"/>
        <pt x="169" y="-241" on="0"/>
        <pt x="117" y="-241" on="1"/>
        <pt x="90" y="-241" on="0"/>
        <pt x="45" y="-228" on="0"/>
        <pt x="30" y="-217" on="1"/>
        <pt x="55" y="-165" on="1"/>
        <pt x="69" y="-172" on="0"/>
        <pt x="96" y="-181" on="0"/>
        <pt x="114" y="-181" on="1"/>
        <pt x="136" y="-181" on="0"/>
        <pt x="168" y="-163" on="0"/>
        <pt x="168" y="-141" on="1"/>
        <pt x="168" y="-121" on="0"/>
        <pt x="127" y="-99" on="0"/>
        <pt x="79" y="-99" on="1"/>
      </contour>
    </TTGlyph>
    <TTGlyph name="cent" xMin="83" yMin="-154" xMax="474" yMax="684">
      <component glyphName="cent.lf" x="26" y="0" flags="0x4"/>
    </TTGlyph>
    <TTGlyph name="cent.lf" xMin="57" yMin="-154" xMax="448" yMax="684">
      <contour>
        <pt x="448" y="46" on="1"/>
        <pt x="421" y="24" on="0"/>
        <pt x="362" y="-4" on="0"/>
        <pt x="329" y="-9" on="1"/>
        <pt x="329" y="-154" on="1"/>
        <pt x="249" y="-154" on="1"/>
        <pt x="249" y="-9" on="1"/>
        <pt x="159" y="3" on="0"/>
        <pt x="57" y="144" on="0"/>
        <pt x="57" y="259" on="1"/>
        <pt x="57" y="373" on="0"/>
        <pt x="160" y="523" on="0"/>
        <pt x="250" y="536" on="1"/>
        <pt x="250" y="684" on="1"/>
        <pt x="329" y="684" on="1"/>
        <pt x="329" y="536" on="1"/>
        <pt x="362" y="532" on="0"/>
        <pt x="420" y="505" on="0"/>
        <pt x="448" y="482" on="1"/>
        <pt x="403" y="422" on="1"/>
        <pt x="377" y="443" on="0"/>
        <pt x="324" y="463" on="0"/>
        <pt x="291" y="463" on="1"/>
        <pt x="229" y="463" on="0"/>
        <pt x="156" y="363" on="0"/>
        <pt x="156" y="261" on="1"/>
        <pt x="156" y="158" on="0"/>
        <pt x="229" y="66" on="0"/>
        <pt x="291" y="66" on="1"/>
        <pt x="324" y="66" on="0"/>
        <pt x="376" y="87" on="0"/>
        <pt x="404" y="109" on="1"/>
      </contour>
    </TTGlyph>
    <TTGlyph name="cent.osf" xMin="57" yMin="-154" xMax="448" yMax="684">
      <component glyphName="cent.lf" x="0" y="0" flags="0x204"/>
    </TTGlyph>
    <TTGlyph name="cent.tosf" xMin="81" yMin="-154" xMax="472" yMax="684">
      <component glyphName="cent" x="-2" y="0" flags="0x4"/>
    </TTGlyph>
    <TTGlyph name="chi" xMin="-5" yMin="-211" xMax="459" yMax="538">
      <contour>
        <pt x="366" y="-211" on="1"/>
        <pt x="232" y="110" on="1"/>
        <pt x="90" y="-210" on="1"/>
        <pt x="-1" y="-199" on="1"/>
        <pt x="184" y="187" on="1"/>
        <pt x="153" y="255" on="0"/>
        <pt x="104" y="352" on="0"/>
        <pt x="61" y="424" on="0"/>
        <pt x="19" y="479" on="0"/>
        <pt x="-5" y="505" on="1"/>
        <pt x="85" y="538" on="1"/>
        <pt x="124" y="494" on="0"/>
        <pt x="192" y="381" on="0"/>
        <pt x="235" y="268" on="1"/>
        <pt x="347" y="538" on="1"/>
        <pt x="443" y="527" on="1"/>
        <pt x="283" y="186" on="1"/>
        <pt x="459" y="-199" on="1"/>
      </contour>
    </TTGlyph>
    <TTGlyph name="chi.sc" xMin="5" yMin="0" xMax="472" yMax="564">
      <component glyphName="x.sc" x="0" y="0" flags="0x204"/>
    </TTGlyph>
    <TTGlyph name="circumflex" xMin="30" yMin="634" xMax="362" yMax="792">
      <contour>
        <pt x="196" y="718" on="1"/>
        <pt x="69" y="634" on="1"/>
        <pt x="30" y="679" on="1"/>
        <pt x="165" y="792" on="1"/>
        <pt x="226" y="792" on="1"/>
        <pt x="362" y="679" on="1"/>
        <pt x="322" y="634" on="1"/>
      </contour>
    </TTGlyph>
    <TTGlyph name="circumflex.case" xMin="30" yMin="759" xMax="362" yMax="914">
      <contour>
        <pt x="362" y="804" on="1"/>
        <pt x="323" y="759" on="1"/>
        <pt x="196" y="840" on="1"/>
        <pt x="70" y="759" on="1"/>
        <pt x="30" y="804" on="1"/>
        <pt x="166" y="914" on="1"/>
        <pt x="227" y="914" on="1"/>
      </contour>
    </TTGlyph>
    <TTGlyph name="circumflex.sc" xMin="30" yMin="664" xMax="362" yMax="822">
      <component glyphName="circumflex" x="0" y="30" flags="0x4"/>
    </TTGlyph>
    <TTGlyph name="circumflexcombcomb" xMin="39" yMin="633" xMax="371" yMax="788">
      <component glyphName="uni0302" x="0" y="0" flags="0x204"/>
    </TTGlyph>
    <TTGlyph name="clear" xMin="100" yMin="-12" xMax="1140" yMax="713">
      <contour>
        <pt x="1090" y="-12" on="1"/>
        <pt x="150" y="-12" on="1"/>
        <pt x="128" y="-12" on="0"/>
        <pt x="100" y="16" on="0"/>
        <pt x="100" y="38" on="1"/>
        <pt x="100" y="663" on="1"/>
        <pt x="100" y="685" on="0"/>
        <pt x="128" y="713" on="0"/>
        <pt x="150" y="713" on="1"/>
        <pt x="1090" y="713" on="1"/>
        <pt x="1112" y="713" on="0"/>
        <pt x="1140" y="685" on="0"/>
        <pt x="1140" y="663" on="1"/>
        <pt x="1140" y="38" on="1"/>
        <pt x="1140" y="16" on="0"/>
        <pt x="1112" y="-12" on="0"/>
      </contour>
      <contour>
        <pt x="553" y="355" on="1"/>
        <pt x="399" y="201" on="1"/>
        <pt x="466" y="134" on="1"/>
        <pt x="620" y="288" on="1"/>
        <pt x="774" y="134" on="1"/>
        <pt x="841" y="201" on="1"/>
        <pt x="687" y="355" on="1"/>
        <pt x="841" y="508" on="1"/>
        <pt x="774" y="577" on="1"/>
        <pt x="620" y="422" on="1"/>
        <pt x="466" y="577" on="1"/>
        <pt x="399" y="508" on="1"/>
      </contour>
    </TTGlyph>
    <TTGlyph name="colon" xMin="50" yMin="-12" xMax="189" yMax="495">
      <component glyphName="period" x="0" y="0" flags="0x204"/>
      <component glyphName="period" x="0" y="368" flags="0x4"/>
    </TTGlyph>
    <TTGlyph name="comma" xMin="38" yMin="-166" xMax="189" yMax="127">
      <contour>
        <pt x="50" y="58" on="1"/>
        <pt x="50" y="86" on="0"/>
        <pt x="90" y="127" on="0"/>
        <pt x="119" y="127" on="1"/>
        <pt x="149" y="127" on="0"/>
        <pt x="189" y="86" on="0"/>
        <pt x="189" y="58" on="1"/>
        <pt x="189" y="42" on="0"/>
        <pt x="181" y="9" on="0"/>
        <pt x="171" y="-13" on="1"/>
        <pt x="104" y="-166" on="1"/>
        <pt x="38" y="-166" on="1"/>
        <pt x="78" y="0" on="1"/>
        <pt x="65" y="10" on="0"/>
        <pt x="50" y="40" on="0"/>
      </contour>
    </TTGlyph>
    <TTGlyph name="copyright" xMin="92" yMin="121" xMax="718" yMax="748">
      <contour>
        <pt x="92" y="434" on="1"/>
        <pt x="92" y="499" on="0"/>
        <pt x="141" y="614" on="0"/>
        <pt x="226" y="699" on="0"/>
        <pt x="341" y="748" on="0"/>
        <pt x="406" y="748" on="1"/>
        <pt x="471" y="748" on="0"/>
        <pt x="585" y="699" on="0"/>
        <pt x="669" y="614" on="0"/>
        <pt x="718" y="499" on="0"/>
        <pt x="718" y="434" on="1"/>
        <pt x="718" y="369" on="0"/>
        <pt x="669" y="255" on="0"/>
        <pt x="585" y="170" on="0"/>
        <pt x="471" y="121" on="0"/>
        <pt x="406" y="121" on="1"/>
        <pt x="341" y="121" on="0"/>
        <pt x="226" y="170" on="0"/>
        <pt x="141" y="255" on="0"/>
        <pt x="92" y="369" on="0"/>
      </contour>
      <contour>
        <pt x="658" y="434" on="1"/>
        <pt x="658" y="542" on="0"/>
        <pt x="513" y="696" on="0"/>
        <pt x="406" y="696" on="1"/>
        <pt x="298" y="696" on="0"/>
        <pt x="153" y="542" on="0"/>
        <pt x="153" y="434" on="1"/>
        <pt x="153" y="327" on="0"/>
        <pt x="298" y="174" on="0"/>
        <pt x="406" y="174" on="1"/>
        <pt x="513" y="174" on="0"/>
        <pt x="658" y="327" on="0"/>
      </contour>
      <contour>
        <pt x="245" y="435" on="1"/>
        <pt x="245" y="528" on="0"/>
        <pt x="342" y="625" on="0"/>
        <pt x="408" y="625" on="1"/>
        <pt x="446" y="625" on="0"/>
        <pt x="500" y="604" on="0"/>
        <pt x="525" y="585" on="1"/>
        <pt x="488" y="536" on="1"/>
        <pt x="471" y="551" on="0"/>
        <pt x="433" y="565" on="0"/>
        <pt x="412" y="565" on="1"/>
        <pt x="374" y="565" on="0"/>
        <pt x="321" y="504" on="0"/>
        <pt x="321" y="435" on="1"/>
        <pt x="321" y="370" on="0"/>
        <pt x="372" y="308" on="0"/>
        <pt x="412" y="308" on="1"/>
        <pt x="438" y="308" on="0"/>
        <pt x="477" y="325" on="0"/>
        <pt x="496" y="339" on="1"/>
        <pt x="528" y="291" on="1"/>
        <pt x="507" y="272" on="0"/>
        <pt x="450" y="245" on="0"/>
        <pt x="409" y="245" on="1"/>
        <pt x="337" y="245" on="0"/>
        <pt x="245" y="343" on="0"/>
      </contour>
    </TTGlyph>
    <TTGlyph name="currency" xMin="27" yMin="88" xMax="529" yMax="595">
      <component glyphName="currency.lf" x="-2" y="0" flags="0x4"/>
    </TTGlyph>
    <TTGlyph name="currency.lf" xMin="29" yMin="88" xMax="531" yMax="595">
      <contour>
        <pt x="476" y="88" on="1"/>
        <pt x="398" y="164" on="1"/>
        <pt x="373" y="149" on="0"/>
        <pt x="313" y="132" on="0"/>
        <pt x="278" y="132" on="1"/>
        <pt x="245" y="132" on="0"/>
        <pt x="186" y="150" on="0"/>
        <pt x="161" y="166" on="1"/>
        <pt x="84" y="88" on="1"/>
        <pt x="29" y="143" on="1"/>
        <pt x="107" y="221" on="1"/>
        <pt x="90" y="246" on="0"/>
        <pt x="71" y="307" on="0"/>
        <pt x="71" y="341" on="1"/>
        <pt x="71" y="374" on="0"/>
        <pt x="90" y="435" on="0"/>
        <pt x="106" y="460" on="1"/>
        <pt x="29" y="540" on="1"/>
        <pt x="84" y="595" on="1"/>
        <pt x="162" y="515" on="1"/>
        <pt x="186" y="531" on="0"/>
        <pt x="245" y="549" on="0"/>
        <pt x="278" y="549" on="1"/>
        <pt x="313" y="549" on="0"/>
        <pt x="373" y="532" on="0"/>
        <pt x="398" y="517" on="1"/>
        <pt x="476" y="595" on="1"/>
        <pt x="531" y="540" on="1"/>
        <pt x="455" y="463" on="1"/>
        <pt x="473" y="438" on="0"/>
        <pt x="492" y="375" on="0"/>
        <pt x="492" y="341" on="1"/>
        <pt x="492" y="307" on="0"/>
        <pt x="473" y="244" on="0"/>
        <pt x="455" y="218" on="1"/>
        <pt x="531" y="143" on="1"/>
      </contour>
      <contour>
        <pt x="403" y="342" on="1"/>
        <pt x="403" y="405" on="0"/>
        <pt x="341" y="479" on="0"/>
        <pt x="281" y="479" on="1"/>
        <pt x="221" y="479" on="0"/>
        <pt x="158" y="405" on="0"/>
        <pt x="158" y="342" on="1"/>
        <pt x="158" y="278" on="0"/>
        <pt x="221" y="205" on="0"/>
        <pt x="281" y="205" on="1"/>
        <pt x="341" y="205" on="0"/>
        <pt x="403" y="278" on="0"/>
      </contour>
    </TTGlyph>
    <TTGlyph name="currency.osf" xMin="29" yMin="88" xMax="531" yMax="595">
      <component glyphName="currency.lf" x="0" y="0" flags="0x204"/>
    </TTGlyph>
    <TTGlyph name="currency.tosf" xMin="27" yMin="88" xMax="529" yMax="595">
      <component glyphName="currency.lf" x="-2" y="0" flags="0x4"/>
    </TTGlyph>
    <TTGlyph name="d" xMin="62" yMin="-12" xMax="503" yMax="750">
      <contour>
        <pt x="281" y="61" on="1"/>
        <pt x="325" y="61" on="0"/>
        <pt x="385" y="102" on="0"/>
        <pt x="411" y="139" on="1"/>
        <pt x="411" y="397" on="1"/>
        <pt x="386" y="428" on="0"/>
        <pt x="328" y="466" on="0"/>
        <pt x="289" y="466" on="1"/>
        <pt x="230" y="466" on="0"/>
        <pt x="161" y="365" on="0"/>
        <pt x="161" y="263" on="1"/>
        <pt x="161" y="159" on="0"/>
        <pt x="224" y="61" on="0"/>
      </contour>
      <contour>
        <pt x="422" y="0" on="1"/>
        <pt x="413" y="73" on="1"/>
        <pt x="388" y="33" on="0"/>
        <pt x="310" y="-12" on="0"/>
        <pt x="261" y="-12" on="1"/>
        <pt x="165" y="-12" on="0"/>
        <pt x="62" y="139" on="0"/>
        <pt x="62" y="261" on="1"/>
        <pt x="62" y="381" on="0"/>
        <pt x="173" y="539" on="0"/>
        <pt x="269" y="539" on="1"/>
        <pt x="315" y="539" on="0"/>
        <pt x="385" y="502" on="0"/>
        <pt x="411" y="474" on="1"/>
        <pt x="411" y="750" on="1"/>
        <pt x="503" y="739" on="1"/>
        <pt x="503" y="0" on="1"/>
      </contour>
    </TTGlyph>
    <TTGlyph name="d.sc" xMin="100" yMin="0" xMax="532" yMax="564">
      <contour>
        <pt x="100" y="564" on="1"/>
        <pt x="232" y="564" on="1"/>
        <pt x="289" y="564" on="0"/>
        <pt x="398" y="542" on="0"/>
        <pt x="481" y="482" on="0"/>
        <pt x="532" y="373" on="0"/>
        <pt x="532" y="286" on="1"/>
        <pt x="532" y="200" on="0"/>
        <pt x="480" y="89" on="0"/>
        <pt x="400" y="25" on="0"/>
        <pt x="298" y="0" on="0"/>
        <pt x="249" y="0" on="1"/>
        <pt x="100" y="0" on="1"/>
      </contour>
      <contour>
        <pt x="435" y="286" on="1"/>
        <pt x="435" y="353" on="0"/>
        <pt x="403" y="435" on="0"/>
        <pt x="352" y="479" on="0"/>
        <pt x="285" y="493" on="0"/>
        <pt x="250" y="493" on="1"/>
        <pt x="192" y="493" on="1"/>
        <pt x="192" y="70" on="1"/>
        <pt x="256" y="70" on="1"/>
        <pt x="325" y="70" on="0"/>
        <pt x="435" y="153" on="0"/>
      </contour>
    </TTGlyph>
    <TTGlyph name="dagger" xMin="55" yMin="0" xMax="501" yMax="689">
      <contour>
        <pt x="234" y="689" on="1"/>
        <pt x="322" y="689" on="1"/>
        <pt x="322" y="542" on="1"/>
        <pt x="501" y="542" on="1"/>
        <pt x="501" y="465" on="1"/>
        <pt x="322" y="465" on="1"/>
        <pt x="322" y="0" on="1"/>
        <pt x="234" y="0" on="1"/>
        <pt x="234" y="465" on="1"/>
        <pt x="55" y="465" on="1"/>
        <pt x="55" y="542" on="1"/>
        <pt x="234" y="542" on="1"/>
      </contour>
    </TTGlyph>
    <TTGlyph name="dagger.lf" xMin="42" yMin="0" xMax="468" yMax="669">
      <contour>
        <pt x="211" y="669" on="1"/>
        <pt x="299" y="669" on="1"/>
        <pt x="299" y="522" on="1"/>
        <pt x="468" y="522" on="1"/>
        <pt x="468" y="445" on="1"/>
        <pt x="299" y="445" on="1"/>
        <pt x="299" y="0" on="1"/>
        <pt x="211" y="0" on="1"/>
        <pt x="211" y="445" on="1"/>
        <pt x="42" y="445" on="1"/>
        <pt x="42" y="522" on="1"/>
        <pt x="211" y="522" on="1"/>
      </contour>
    </TTGlyph>
    <TTGlyph name="dagger.osf" xMin="42" yMin="0" xMax="468" yMax="669">
      <component glyphName="dagger.lf" x="0" y="0" flags="0x204"/>
    </TTGlyph>
    <TTGlyph name="dagger.tosf" xMin="65" yMin="0" xMax="491" yMax="669">
      <component glyphName="dagger.lf" x="23" y="0" flags="0x4"/>
    </TTGlyph>
    <TTGlyph name="daggerdbl" xMin="55" yMin="0" xMax="501" yMax="689">
      <contour>
        <pt x="501" y="192" on="1"/>
        <pt x="322" y="192" on="1"/>
        <pt x="322" y="0" on="1"/>
        <pt x="234" y="0" on="1"/>
        <pt x="234" y="192" on="1"/>
        <pt x="55" y="192" on="1"/>
        <pt x="55" y="269" on="1"/>
        <pt x="234" y="269" on="1"/>
        <pt x="234" y="465" on="1"/>
        <pt x="55" y="465" on="1"/>
        <pt x="55" y="542" on="1"/>
        <pt x="234" y="542" on="1"/>
        <pt x="234" y="689" on="1"/>
        <pt x="322" y="689" on="1"/>
        <pt x="322" y="542" on="1"/>
        <pt x="501" y="542" on="1"/>
        <pt x="501" y="465" on="1"/>
        <pt x="322" y="465" on="1"/>
        <pt x="322" y="269" on="1"/>
        <pt x="501" y="269" on="1"/>
      </contour>
    </TTGlyph>
    <TTGlyph name="daggerdbl.lf" xMin="42" yMin="0" xMax="468" yMax="669">
      <contour>
        <pt x="468" y="159" on="1"/>
        <pt x="299" y="159" on="1"/>
        <pt x="299" y="0" on="1"/>
        <pt x="211" y="0" on="1"/>
        <pt x="211" y="159" on="1"/>
        <pt x="42" y="159" on="1"/>
        <pt x="42" y="236" on="1"/>
        <pt x="211" y="236" on="1"/>
        <pt x="211" y="445" on="1"/>
        <pt x="42" y="445" on="1"/>
        <pt x="42" y="522" on="1"/>
        <pt x="211" y="522" on="1"/>
        <pt x="211" y="669" on="1"/>
        <pt x="299" y="669" on="1"/>
        <pt x="299" y="522" on="1"/>
        <pt x="468" y="522" on="1"/>
        <pt x="468" y="445" on="1"/>
        <pt x="299" y="445" on="1"/>
        <pt x="299" y="236" on="1"/>
        <pt x="468" y="236" on="1"/>
      </contour>
    </TTGlyph>
    <TTGlyph name="daggerdbl.osf" xMin="42" yMin="0" xMax="468" yMax="669">
      <component glyphName="daggerdbl.lf" x="0" y="0" flags="0x204"/>
    </TTGlyph>
    <TTGlyph name="daggerdbl.tosf" xMin="65" yMin="0" xMax="491" yMax="669">
      <component glyphName="daggerdbl.lf" x="23" y="0" flags="0x4"/>
    </TTGlyph>
    <TTGlyph name="dcaron" xMin="62" yMin="-12" xMax="654" yMax="750">
      <component glyphName="caron.alt" x="493" y="50" flags="0x4"/>
      <component glyphName="d" x="0" y="0" flags="0x204"/>
    </TTGlyph>
    <TTGlyph name="dcaron.sc" xMin="100" yMin="0" xMax="532" yMax="815">
      <component glyphName="d.sc" x="0" y="0" flags="0x204"/>
      <component glyphName="caron.sc" x="83" y="0" flags="0x4"/>
    </TTGlyph>
    <TTGlyph name="dcroat" xMin="62" yMin="-12" xMax="582" yMax="750">
      <contour>
        <pt x="281" y="61" on="1"/>
        <pt x="325" y="61" on="0"/>
        <pt x="385" y="102" on="0"/>
        <pt x="411" y="139" on="1"/>
        <pt x="411" y="397" on="1"/>
        <pt x="386" y="428" on="0"/>
        <pt x="328" y="466" on="0"/>
        <pt x="289" y="466" on="1"/>
        <pt x="230" y="466" on="0"/>
        <pt x="161" y="365" on="0"/>
        <pt x="161" y="263" on="1"/>
        <pt x="161" y="159" on="0"/>
        <pt x="224" y="61" on="0"/>
      </contour>
      <contour>
        <pt x="422" y="0" on="1"/>
        <pt x="413" y="73" on="1"/>
        <pt x="388" y="33" on="0"/>
        <pt x="310" y="-12" on="0"/>
        <pt x="261" y="-12" on="1"/>
        <pt x="165" y="-12" on="0"/>
        <pt x="62" y="139" on="0"/>
        <pt x="62" y="261" on="1"/>
        <pt x="62" y="381" on="0"/>
        <pt x="173" y="539" on="0"/>
        <pt x="269" y="539" on="1"/>
        <pt x="315" y="539" on="0"/>
        <pt x="385" y="502" on="0"/>
        <pt x="411" y="474" on="1"/>
        <pt x="411" y="606" on="1"/>
        <pt x="258" y="606" on="1"/>
        <pt x="248" y="676" on="1"/>
        <pt x="411" y="676" on="1"/>
        <pt x="411" y="750" on="1"/>
        <pt x="503" y="739" on="1"/>
        <pt x="503" y="676" on="1"/>
        <pt x="582" y="676" on="1"/>
        <pt x="582" y="606" on="1"/>
        <pt x="503" y="606" on="1"/>
        <pt x="503" y="0" on="1"/>
      </contour>
    </TTGlyph>
    <TTGlyph name="dcroat.sc" xMin="15" yMin="0" xMax="507" yMax="564">
      <component glyphName="eth.sc" x="0" y="0" flags="0x204"/>
    </TTGlyph>
    <TTGlyph name="degree" xMin="73" yMin="401" xMax="401" yMax="721">
      <component glyphName="degree.lf" x="18" y="20" flags="0x4"/>
    </TTGlyph>
    <TTGlyph name="degree.lf" xMin="55" yMin="381" xMax="383" yMax="701">
      <contour>
        <pt x="383" y="540" on="1"/>
        <pt x="383" y="463" on="0"/>
        <pt x="282" y="381" on="0"/>
        <pt x="219" y="381" on="1"/>
        <pt x="157" y="381" on="0"/>
        <pt x="55" y="464" on="0"/>
        <pt x="55" y="541" on="1"/>
        <pt x="55" y="618" on="0"/>
        <pt x="157" y="701" on="0"/>
        <pt x="219" y="701" on="1"/>
        <pt x="282" y="701" on="0"/>
        <pt x="383" y="617" on="0"/>
      </contour>
      <contour>
        <pt x="132" y="541" on="1"/>
        <pt x="132" y="491" on="0"/>
        <pt x="185" y="443" on="0"/>
        <pt x="219" y="443" on="1"/>
        <pt x="253" y="443" on="0"/>
        <pt x="306" y="491" on="0"/>
        <pt x="306" y="540" on="1"/>
        <pt x="306" y="589" on="0"/>
        <pt x="253" y="638" on="0"/>
        <pt x="219" y="638" on="1"/>
        <pt x="185" y="638" on="0"/>
        <pt x="132" y="591" on="0"/>
      </contour>
    </TTGlyph>
    <TTGlyph name="degree.osf" xMin="55" yMin="381" xMax="383" yMax="701">
      <component glyphName="degree.lf" x="0" y="0" flags="0x204"/>
    </TTGlyph>
    <TTGlyph name="degree.tosf" xMin="73" yMin="381" xMax="401" yMax="701">
      <component glyphName="degree.lf" x="18" y="0" flags="0x4"/>
    </TTGlyph>
    <TTGlyph name="deleterightKey" xMin="100" yMin="-12" xMax="1360" yMax="713">
      <contour>
        <pt x="980" y="-12" on="1"/>
        <pt x="150" y="-12" on="1"/>
        <pt x="128" y="-12" on="0"/>
        <pt x="100" y="16" on="0"/>
        <pt x="100" y="38" on="1"/>
        <pt x="100" y="663" on="1"/>
        <pt x="100" y="685" on="0"/>
        <pt x="128" y="713" on="0"/>
        <pt x="150" y="713" on="1"/>
        <pt x="980" y="713" on="1"/>
        <pt x="1360" y="352" on="1"/>
      </contour>
      <contour>
        <pt x="503" y="355" on="1"/>
        <pt x="349" y="201" on="1"/>
        <pt x="416" y="134" on="1"/>
        <pt x="570" y="288" on="1"/>
        <pt x="724" y="134" on="1"/>
        <pt x="791" y="201" on="1"/>
        <pt x="637" y="355" on="1"/>
        <pt x="791" y="508" on="1"/>
        <pt x="724" y="577" on="1"/>
        <pt x="570" y="422" on="1"/>
        <pt x="416" y="577" on="1"/>
        <pt x="349" y="508" on="1"/>
      </contour>
    </TTGlyph>
    <TTGlyph name="delta" xMin="57" yMin="-12" xMax="522" yMax="750">
      <contour>
        <pt x="522" y="243" on="1"/>
        <pt x="522" y="192" on="0"/>
        <pt x="491" y="99" on="0"/>
        <pt x="431" y="30" on="0"/>
        <pt x="344" y="-12" on="0"/>
        <pt x="289" y="-12" on="1"/>
        <pt x="185" y="-12" on="0"/>
        <pt x="57" y="122" on="0"/>
        <pt x="57" y="240" on="1"/>
        <pt x="57" y="326" on="0"/>
        <pt x="142" y="438" on="0"/>
        <pt x="208" y="471" on="1"/>
        <pt x="153" y="499" on="0"/>
        <pt x="112" y="568" on="0"/>
        <pt x="112" y="612" on="1"/>
        <pt x="112" y="665" on="0"/>
        <pt x="202" y="750" on="0"/>
        <pt x="288" y="750" on="1"/>
        <pt x="346" y="750" on="0"/>
        <pt x="430" y="721" on="0"/>
        <pt x="466" y="696" on="1"/>
        <pt x="419" y="639" on="1"/>
        <pt x="388" y="660" on="0"/>
        <pt x="333" y="678" on="0"/>
        <pt x="299" y="678" on="1"/>
        <pt x="249" y="678" on="0"/>
        <pt x="207" y="636" on="0"/>
        <pt x="207" y="608" on="1"/>
        <pt x="207" y="574" on="0"/>
        <pt x="254" y="532" on="0"/>
        <pt x="328" y="501" on="1"/>
        <pt x="423" y="461" on="0"/>
        <pt x="522" y="347" on="0"/>
      </contour>
      <contour>
        <pt x="289" y="62" on="1"/>
        <pt x="353" y="62" on="0"/>
        <pt x="423" y="155" on="0"/>
        <pt x="423" y="243" on="1"/>
        <pt x="423" y="322" on="0"/>
        <pt x="355" y="410" on="0"/>
        <pt x="265" y="446" on="1"/>
        <pt x="214" y="414" on="0"/>
        <pt x="156" y="317" on="0"/>
        <pt x="156" y="240" on="1"/>
        <pt x="156" y="155" on="0"/>
        <pt x="222" y="62" on="0"/>
      </contour>
    </TTGlyph>
    <TTGlyph name="delta.sc" xMin="6" yMin="0" xMax="508" yMax="566">
      <contour>
        <pt x="200" y="566" on="1"/>
        <pt x="314" y="566" on="1"/>
        <pt x="508" y="0" on="1"/>
        <pt x="6" y="0" on="1"/>
      </contour>
      <contour>
        <pt x="390" y="73" on="1"/>
        <pt x="255" y="492" on="1"/>
        <pt x="120" y="73" on="1"/>
      </contour>
    </TTGlyph>
    <TTGlyph name="descRound.cy" xMin="30" yMin="-241" xMax="256" yMax="25">
      <contour>
        <pt x="88" y="0" on="1"/>
        <pt x="105" y="25" on="1"/>
        <pt x="172" y="3" on="0"/>
        <pt x="256" y="-75" on="0"/>
        <pt x="256" y="-129" on="1"/>
        <pt x="256" y="-179" on="0"/>
        <pt x="187" y="-241" on="0"/>
        <pt x="128" y="-241" on="1"/>
        <pt x="94" y="-241" on="0"/>
        <pt x="46" y="-226" on="0"/>
        <pt x="30" y="-216" on="1"/>
        <pt x="53" y="-162" on="1"/>
        <pt x="65" y="-168" on="0"/>
        <pt x="97" y="-180" on="0"/>
        <pt x="122" y="-180" on="1"/>
        <pt x="150" y="-180" on="0"/>
        <pt x="179" y="-149" on="0"/>
        <pt x="179" y="-124" on="1"/>
        <pt x="179" y="-91" on="0"/>
        <pt x="135" y="-26" on="0"/>
      </contour>
    </TTGlyph>
    <TTGlyph name="descStraight.cy" xMin="33" yMin="-150" xMax="159" yMax="74">
      <contour>
        <pt x="33" y="74" on="1"/>
        <pt x="159" y="74" on="1"/>
        <pt x="159" y="-150" on="1"/>
        <pt x="84" y="-150" on="1"/>
        <pt x="69" y="0" on="1"/>
        <pt x="33" y="0" on="1"/>
      </contour>
    </TTGlyph>
    <TTGlyph name="descStraight.cy.case" xMin="30" yMin="-150" xMax="159" yMax="78">
      <contour>
        <pt x="30" y="78" on="1"/>
        <pt x="159" y="78" on="1"/>
        <pt x="159" y="-150" on="1"/>
        <pt x="84" y="-150" on="1"/>
        <pt x="69" y="0" on="1"/>
        <pt x="30" y="0" on="1"/>
      </contour>
    </TTGlyph>
    <TTGlyph name="dieresis" xMin="30" yMin="654" xMax="355" yMax="768">
      <contour>
        <pt x="30" y="711" on="1"/>
        <pt x="30" y="735" on="0"/>
        <pt x="63" y="768" on="0"/>
        <pt x="88" y="768" on="1"/>
        <pt x="112" y="768" on="0"/>
        <pt x="145" y="735" on="0"/>
        <pt x="145" y="711" on="1"/>
        <pt x="145" y="687" on="0"/>
        <pt x="112" y="654" on="0"/>
        <pt x="88" y="654" on="1"/>
        <pt x="63" y="654" on="0"/>
        <pt x="30" y="687" on="0"/>
      </contour>
      <contour>
        <pt x="240" y="711" on="1"/>
        <pt x="240" y="735" on="0"/>
        <pt x="273" y="768" on="0"/>
        <pt x="297" y="768" on="1"/>
        <pt x="322" y="768" on="0"/>
        <pt x="355" y="735" on="0"/>
        <pt x="355" y="711" on="1"/>
        <pt x="355" y="687" on="0"/>
        <pt x="322" y="654" on="0"/>
        <pt x="297" y="654" on="1"/>
        <pt x="273" y="654" on="0"/>
        <pt x="240" y="687" on="0"/>
      </contour>
    </TTGlyph>
    <TTGlyph name="dieresis.case" xMin="30" yMin="780" xMax="355" yMax="894">
      <component glyphName="dieresis" x="0" y="126" flags="0x4"/>
    </TTGlyph>
    <TTGlyph name="dieresis.sc" xMin="30" yMin="684" xMax="355" yMax="798">
      <component glyphName="dieresis" x="0" y="30" flags="0x4"/>
    </TTGlyph>
    <TTGlyph name="dieresisacutecomb" xMin="-27" yMin="644" xMax="298" yMax="951">
      <contour>
        <pt x="15" y="837" on="1"/>
        <pt x="214" y="951" on="1"/>
        <pt x="255" y="874" on="1"/>
        <pt x="43" y="788" on="1"/>
      </contour>
      <contour>
        <pt x="183" y="701" on="1"/>
        <pt x="183" y="725" on="0"/>
        <pt x="216" y="758" on="0"/>
        <pt x="240" y="758" on="1"/>
        <pt x="265" y="758" on="0"/>
        <pt x="298" y="725" on="0"/>
        <pt x="298" y="701" on="1"/>
        <pt x="298" y="677" on="0"/>
        <pt x="265" y="644" on="0"/>
        <pt x="240" y="644" on="1"/>
        <pt x="216" y="644" on="0"/>
        <pt x="183" y="677" on="0"/>
      </contour>
      <contour>
        <pt x="-27" y="701" on="1"/>
        <pt x="-27" y="725" on="0"/>
        <pt x="6" y="758" on="0"/>
        <pt x="31" y="758" on="1"/>
        <pt x="55" y="758" on="0"/>
        <pt x="88" y="725" on="0"/>
        <pt x="88" y="701" on="1"/>
        <pt x="88" y="677" on="0"/>
        <pt x="55" y="644" on="0"/>
        <pt x="31" y="644" on="1"/>
        <pt x="6" y="644" on="0"/>
        <pt x="-27" y="677" on="0"/>
      </contour>
    </TTGlyph>
    <TTGlyph name="dieresiscombcomb" xMin="39" yMin="654" xMax="364" yMax="768">
      <component glyphName="uni0308" x="0" y="0" flags="0x204"/>
    </TTGlyph>
    <TTGlyph name="dieresisgravecomb" xMin="-27" yMin="644" xMax="298" yMax="951">
      <contour>
        <pt x="16" y="874" on="1"/>
        <pt x="57" y="951" on="1"/>
        <pt x="256" y="837" on="1"/>
        <pt x="228" y="788" on="1"/>
      </contour>
      <contour>
        <pt x="-27" y="701" on="1"/>
        <pt x="-27" y="725" on="0"/>
        <pt x="6" y="758" on="0"/>
        <pt x="31" y="758" on="1"/>
        <pt x="55" y="758" on="0"/>
        <pt x="88" y="725" on="0"/>
        <pt x="88" y="701" on="1"/>
        <pt x="88" y="677" on="0"/>
        <pt x="55" y="644" on="0"/>
        <pt x="31" y="644" on="1"/>
        <pt x="6" y="644" on="0"/>
        <pt x="-27" y="677" on="0"/>
      </contour>
      <contour>
        <pt x="183" y="701" on="1"/>
        <pt x="183" y="725" on="0"/>
        <pt x="216" y="758" on="0"/>
        <pt x="240" y="758" on="1"/>
        <pt x="265" y="758" on="0"/>
        <pt x="298" y="725" on="0"/>
        <pt x="298" y="701" on="1"/>
        <pt x="298" y="677" on="0"/>
        <pt x="265" y="644" on="0"/>
        <pt x="240" y="644" on="1"/>
        <pt x="216" y="644" on="0"/>
        <pt x="183" y="677" on="0"/>
      </contour>
    </TTGlyph>
    <TTGlyph name="dieresistonos" xMin="30" yMin="624" xMax="375" yMax="918">
      <contour>
        <pt x="168" y="739" on="1"/>
        <pt x="197" y="918" on="1"/>
        <pt x="298" y="900" on="1"/>
        <pt x="236" y="729" on="1"/>
      </contour>
      <contour>
        <pt x="260" y="680" on="1"/>
        <pt x="260" y="705" on="0"/>
        <pt x="293" y="737" on="0"/>
        <pt x="317" y="737" on="1"/>
        <pt x="342" y="737" on="0"/>
        <pt x="375" y="705" on="0"/>
        <pt x="375" y="680" on="1"/>
        <pt x="375" y="656" on="0"/>
        <pt x="342" y="624" on="0"/>
        <pt x="317" y="624" on="1"/>
        <pt x="293" y="624" on="0"/>
        <pt x="260" y="656" on="0"/>
      </contour>
      <contour>
        <pt x="30" y="680" on="1"/>
        <pt x="30" y="705" on="0"/>
        <pt x="63" y="737" on="0"/>
        <pt x="88" y="737" on="1"/>
        <pt x="112" y="737" on="0"/>
        <pt x="145" y="705" on="0"/>
        <pt x="145" y="680" on="1"/>
        <pt x="145" y="656" on="0"/>
        <pt x="112" y="624" on="0"/>
        <pt x="88" y="624" on="1"/>
        <pt x="63" y="624" on="0"/>
        <pt x="30" y="656" on="0"/>
      </contour>
    </TTGlyph>
    <TTGlyph name="divide" xMin="90" yMin="35" xMax="466" yMax="631">
      <component glyphName="divide.lf" x="28" y="0" flags="0x4"/>
    </TTGlyph>
    <TTGlyph name="divide.lf" xMin="62" yMin="35" xMax="438" yMax="631">
      <component glyphName="minus.lf" x="0" y="0" flags="0x204"/>
      <component glyphName="period" x="131" y="47" flags="0x4"/>
      <component glyphName="period" x="131" y="504" flags="0x4"/>
    </TTGlyph>
    <TTGlyph name="divide.osf" xMin="62" yMin="35" xMax="438" yMax="631">
      <component glyphName="divide.lf" x="0" y="0" flags="0x204"/>
    </TTGlyph>
    <TTGlyph name="divide.tosf" xMin="90" yMin="35" xMax="466" yMax="631">
      <component glyphName="divide.lf" x="28" y="0" flags="0x4"/>
    </TTGlyph>
    <TTGlyph name="divisionslash" xMin="-167" yMin="-78" xMax="299" yMax="750">
      <component glyphName="fraction" x="0" y="0" flags="0x204"/>
    </TTGlyph>
    <TTGlyph name="dollar" xMin="33" yMin="-154" xMax="503" yMax="847">
      <contour>
        <pt x="317" y="-154" on="1"/>
        <pt x="237" y="-154" on="1"/>
        <pt x="237" y="-3" on="1"/>
        <pt x="174" y="1" on="0"/>
        <pt x="70" y="46" on="0"/>
        <pt x="33" y="83" on="1"/>
        <pt x="86" y="143" on="1"/>
        <pt x="120" y="110" on="0"/>
        <pt x="206" y="73" on="0"/>
        <pt x="261" y="73" on="1"/>
        <pt x="320" y="73" on="0"/>
        <pt x="406" y="133" on="0"/>
        <pt x="406" y="193" on="1"/>
        <pt x="406" y="242" on="0"/>
        <pt x="346" y="297" on="0"/>
        <pt x="260" y="324" on="1"/>
        <pt x="162" y="354" on="0"/>
        <pt x="60" y="441" on="0"/>
        <pt x="60" y="519" on="1"/>
        <pt x="60" y="588" on="0"/>
        <pt x="158" y="683" on="0"/>
        <pt x="237" y="693" on="1"/>
        <pt x="237" y="847" on="1"/>
        <pt x="317" y="847" on="1"/>
        <pt x="317" y="693" on="1"/>
        <pt x="368" y="687" on="0"/>
        <pt x="447" y="649" on="0"/>
        <pt x="481" y="617" on="1"/>
        <pt x="428" y="558" on="1"/>
        <pt x="393" y="590" on="0"/>
        <pt x="319" y="619" on="0"/>
        <pt x="277" y="619" on="1"/>
        <pt x="226" y="619" on="0"/>
        <pt x="155" y="571" on="0"/>
        <pt x="155" y="523" on="1"/>
        <pt x="155" y="480" on="0"/>
        <pt x="212" y="429" on="0"/>
        <pt x="303" y="401" on="1"/>
        <pt x="384" y="376" on="0"/>
        <pt x="503" y="293" on="0"/>
        <pt x="503" y="196" on="1"/>
        <pt x="503" y="120" on="0"/>
        <pt x="405" y="13" on="0"/>
        <pt x="317" y="0" on="1"/>
      </contour>
    </TTGlyph>
    <TTGlyph name="dollar.lf" xMin="25" yMin="-155" xMax="491" yMax="824">
      <contour>
        <pt x="310" y="-155" on="1"/>
        <pt x="230" y="-155" on="1"/>
        <pt x="230" y="-11" on="1"/>
        <pt x="166" y="-8" on="0"/>
        <pt x="64" y="37" on="0"/>
        <pt x="25" y="75" on="1"/>
        <pt x="79" y="134" on="1"/>
        <pt x="113" y="101" on="0"/>
        <pt x="197" y="64" on="0"/>
        <pt x="251" y="64" on="1"/>
        <pt x="310" y="64" on="0"/>
        <pt x="395" y="123" on="0"/>
        <pt x="395" y="183" on="1"/>
        <pt x="395" y="232" on="0"/>
        <pt x="335" y="286" on="0"/>
        <pt x="250" y="312" on="1"/>
        <pt x="153" y="342" on="0"/>
        <pt x="52" y="428" on="0"/>
        <pt x="52" y="505" on="1"/>
        <pt x="52" y="575" on="0"/>
        <pt x="152" y="669" on="0"/>
        <pt x="230" y="678" on="1"/>
        <pt x="230" y="824" on="1"/>
        <pt x="310" y="824" on="1"/>
        <pt x="310" y="677" on="1"/>
        <pt x="360" y="672" on="0"/>
        <pt x="436" y="633" on="0"/>
        <pt x="470" y="602" on="1"/>
        <pt x="417" y="544" on="1"/>
        <pt x="383" y="576" on="0"/>
        <pt x="309" y="604" on="0"/>
        <pt x="267" y="604" on="1"/>
        <pt x="217" y="604" on="0"/>
        <pt x="147" y="557" on="0"/>
        <pt x="147" y="509" on="1"/>
        <pt x="147" y="467" on="0"/>
        <pt x="203" y="417" on="0"/>
        <pt x="293" y="389" on="1"/>
        <pt x="373" y="364" on="0"/>
        <pt x="491" y="282" on="0"/>
        <pt x="491" y="186" on="1"/>
        <pt x="491" y="111" on="0"/>
        <pt x="396" y="6" on="0"/>
        <pt x="310" y="-8" on="1"/>
      </contour>
    </TTGlyph>
    <TTGlyph name="dollar.osf" xMin="25" yMin="-155" xMax="491" yMax="824">
      <component glyphName="dollar.lf" x="0" y="0" flags="0x204"/>
    </TTGlyph>
    <TTGlyph name="dollar.tosf" xMin="40" yMin="-154" xMax="496" yMax="825">
      <contour>
        <pt x="318" y="-154" on="1"/>
        <pt x="238" y="-154" on="1"/>
        <pt x="238" y="-10" on="1"/>
        <pt x="178" y="-6" on="0"/>
        <pt x="77" y="39" on="0"/>
        <pt x="40" y="76" on="1"/>
        <pt x="94" y="135" on="1"/>
        <pt x="128" y="102" on="0"/>
        <pt x="210" y="65" on="0"/>
        <pt x="261" y="65" on="1"/>
        <pt x="318" y="65" on="0"/>
        <pt x="402" y="124" on="0"/>
        <pt x="402" y="184" on="1"/>
        <pt x="402" y="233" on="0"/>
        <pt x="343" y="287" on="0"/>
        <pt x="260" y="314" on="1"/>
        <pt x="167" y="345" on="0"/>
        <pt x="67" y="429" on="0"/>
        <pt x="67" y="506" on="1"/>
        <pt x="67" y="575" on="0"/>
        <pt x="163" y="669" on="0"/>
        <pt x="238" y="679" on="1"/>
        <pt x="238" y="825" on="1"/>
        <pt x="318" y="825" on="1"/>
        <pt x="318" y="678" on="1"/>
        <pt x="366" y="672" on="0"/>
        <pt x="441" y="634" on="0"/>
        <pt x="474" y="603" on="1"/>
        <pt x="422" y="545" on="1"/>
        <pt x="388" y="577" on="0"/>
        <pt x="315" y="605" on="0"/>
        <pt x="277" y="605" on="1"/>
        <pt x="229" y="605" on="0"/>
        <pt x="159" y="558" on="0"/>
        <pt x="159" y="510" on="1"/>
        <pt x="159" y="468" on="0"/>
        <pt x="216" y="417" on="0"/>
        <pt x="303" y="389" on="1"/>
        <pt x="379" y="364" on="0"/>
        <pt x="496" y="283" on="0"/>
        <pt x="496" y="187" on="1"/>
        <pt x="496" y="112" on="0"/>
        <pt x="402" y="7" on="0"/>
        <pt x="318" y="-7" on="1"/>
      </contour>
    </TTGlyph>
    <TTGlyph name="dotaccent" xMin="30" yMin="655" xMax="159" yMax="780">
      <contour>
        <pt x="30" y="717" on="1"/>
        <pt x="30" y="744" on="0"/>
        <pt x="66" y="780" on="0"/>
        <pt x="94" y="780" on="1"/>
        <pt x="123" y="780" on="0"/>
        <pt x="159" y="744" on="0"/>
        <pt x="159" y="717" on="1"/>
        <pt x="159" y="691" on="0"/>
        <pt x="123" y="655" on="0"/>
        <pt x="94" y="655" on="1"/>
        <pt x="66" y="655" on="0"/>
        <pt x="30" y="691" on="0"/>
      </contour>
    </TTGlyph>
    <TTGlyph name="dotaccent.case" xMin="30" yMin="781" xMax="159" yMax="906">
      <component glyphName="dotaccent" x="0" y="126" flags="0x4"/>
    </TTGlyph>
    <TTGlyph name="dotaccent.sc" xMin="30" yMin="685" xMax="159" yMax="810">
      <component glyphName="dotaccent" x="0" y="30" flags="0x4"/>
    </TTGlyph>
    <TTGlyph name="dotaccentcombcomb" xMin="39" yMin="655" xMax="168" yMax="780">
      <component glyphName="uni0307" x="0" y="0" flags="0x204"/>
    </TTGlyph>
    <TTGlyph name="dotlessi" xMin="95" yMin="0" xMax="187" yMax="527">
      <contour>
        <pt x="95" y="527" on="1"/>
        <pt x="187" y="527" on="1"/>
        <pt x="187" y="0" on="1"/>
        <pt x="95" y="0" on="1"/>
      </contour>
    </TTGlyph>
    <TTGlyph name="dotlessi.sc" xMin="100" yMin="0" xMax="193" yMax="564">
      <component glyphName="i.sc" x="0" y="0" flags="0x204"/>
    </TTGlyph>
    <TTGlyph name="dotlessj.sc" xMin="5" yMin="-119" xMax="191" yMax="564">
      <component glyphName="j.sc" x="0" y="0" flags="0x204"/>
    </TTGlyph>
    <TTGlyph name="dotmath" xMin="50" yMin="241" xMax="189" yMax="380">
      <component glyphName="periodcentered" x="0" y="0" flags="0x204"/>
    </TTGlyph>
    <TTGlyph name="e" xMin="57" yMin="-12" xMax="493" yMax="539">
      <contour>
        <pt x="278" y="466" on="1"/>
        <pt x="226" y="466" on="0"/>
        <pt x="160" y="387" on="0"/>
        <pt x="155" y="300" on="1"/>
        <pt x="402" y="300" on="1"/>
        <pt x="402" y="306" on="1"/>
        <pt x="402" y="383" on="0"/>
        <pt x="340" y="466" on="0"/>
      </contour>
      <contour>
        <pt x="474" y="54" on="1"/>
        <pt x="435" y="23" on="0"/>
        <pt x="344" y="-12" on="0"/>
        <pt x="290" y="-12" on="1"/>
        <pt x="180" y="-12" on="0"/>
        <pt x="57" y="133" on="0"/>
        <pt x="57" y="258" on="1"/>
        <pt x="57" y="380" on="0"/>
        <pt x="175" y="539" on="0"/>
        <pt x="276" y="539" on="1"/>
        <pt x="382" y="539" on="0"/>
        <pt x="493" y="399" on="0"/>
        <pt x="493" y="279" on="1"/>
        <pt x="493" y="266" on="0"/>
        <pt x="492" y="241" on="0"/>
        <pt x="491" y="232" on="1"/>
        <pt x="155" y="232" on="1"/>
        <pt x="162" y="141" on="0"/>
        <pt x="240" y="63" on="0"/>
        <pt x="297" y="63" on="1"/>
        <pt x="336" y="63" on="0"/>
        <pt x="400" y="85" on="0"/>
        <pt x="434" y="109" on="1"/>
      </contour>
    </TTGlyph>
    <TTGlyph name="e.sc" xMin="100" yMin="0" xMax="436" yMax="564">
      <contour>
        <pt x="100" y="564" on="1"/>
        <pt x="431" y="564" on="1"/>
        <pt x="421" y="493" on="1"/>
        <pt x="192" y="493" on="1"/>
        <pt x="192" y="323" on="1"/>
        <pt x="391" y="323" on="1"/>
        <pt x="391" y="252" on="1"/>
        <pt x="192" y="252" on="1"/>
        <pt x="192" y="71" on="1"/>
        <pt x="436" y="71" on="1"/>
        <pt x="436" y="0" on="1"/>
        <pt x="100" y="0" on="1"/>
      </contour>
    </TTGlyph>
    <TTGlyph name="eacute" xMin="57" yMin="-12" xMax="493" yMax="801">
      <component glyphName="acute" x="119" y="0" flags="0x4"/>
      <component glyphName="e" x="0" y="0" flags="0x204"/>
    </TTGlyph>
    <TTGlyph name="eacute.sc" xMin="100" yMin="0" xMax="436" yMax="831">
      <component glyphName="acute.sc" x="118" y="0" flags="0x4"/>
      <component glyphName="e.sc" x="0" y="0" flags="0x204"/>
    </TTGlyph>
    <TTGlyph name="ebreve" xMin="57" yMin="-12" xMax="493" yMax="789">
      <component glyphName="e" x="0" y="0" flags="0x204"/>
      <component glyphName="breve" x="97" y="0" flags="0x4"/>
    </TTGlyph>
    <TTGlyph name="ebreve.sc" xMin="100" yMin="0" xMax="436" yMax="819">
      <component glyphName="breve.sc" x="86" y="0" flags="0x4"/>
      <component glyphName="e.sc" x="0" y="0" flags="0x204"/>
    </TTGlyph>
    <TTGlyph name="ecaron" xMin="57" yMin="-12" xMax="493" yMax="785">
      <component glyphName="caron" x="83" y="0" flags="0x4"/>
      <component glyphName="e" x="0" y="0" flags="0x204"/>
    </TTGlyph>
    <TTGlyph name="ecaron.sc" xMin="100" yMin="0" xMax="436" yMax="815">
      <component glyphName="caron.sc" x="72" y="0" flags="0x4"/>
      <component glyphName="e.sc" x="0" y="0" flags="0x204"/>
    </TTGlyph>
    <TTGlyph name="ecircumflex" xMin="57" yMin="-12" xMax="493" yMax="792">
      <component glyphName="circumflex" x="83" y="0" flags="0x4"/>
      <component glyphName="e" x="0" y="0" flags="0x204"/>
    </TTGlyph>
    <TTGlyph name="ecircumflex.sc" xMin="100" yMin="0" xMax="436" yMax="822">
      <component glyphName="e.sc" x="0" y="0" flags="0x204"/>
      <component glyphName="circumflex.sc" x="72" y="0" flags="0x4"/>
    </TTGlyph>
    <TTGlyph name="edieresis" xMin="57" yMin="-12" xMax="493" yMax="768">
      <component glyphName="dieresis" x="86" y="0" flags="0x4"/>
      <component glyphName="e" x="0" y="0" flags="0x204"/>
    </TTGlyph>
    <TTGlyph name="edieresis.sc" xMin="100" yMin="0" xMax="436" yMax="798">
      <component glyphName="dieresis.sc" x="75" y="0" flags="0x4"/>
      <component glyphName="e.sc" x="0" y="0" flags="0x204"/>
    </TTGlyph>
    <TTGlyph name="edotaccent" xMin="57" yMin="-12" xMax="493" yMax="780">
      <component glyphName="e" x="0" y="0" flags="0x204"/>
      <component glyphName="dotaccent" x="184" y="0" flags="0x4"/>
    </TTGlyph>
    <TTGlyph name="edotaccent.sc" xMin="100" yMin="0" xMax="436" yMax="810">
      <component glyphName="dotaccent.sc" x="173" y="0" flags="0x4"/>
      <component glyphName="e.sc" x="0" y="0" flags="0x204"/>
    </TTGlyph>
    <TTGlyph name="egrave" xMin="57" yMin="-12" xMax="493" yMax="801">
      <component glyphName="e" x="0" y="0" flags="0x204"/>
      <component glyphName="grave" x="139" y="0" flags="0x4"/>
    </TTGlyph>
    <TTGlyph name="egrave.sc" xMin="100" yMin="0" xMax="436" yMax="831">
      <component glyphName="grave.sc" x="118" y="0" flags="0x4"/>
      <component glyphName="e.sc" x="0" y="0" flags="0x204"/>
    </TTGlyph>
    <TTGlyph name="eight" xMin="45" yMin="-12" xMax="510" yMax="701">
      <contour>
        <pt x="276" y="-12" on="1"/>
        <pt x="173" y="-12" on="0"/>
        <pt x="45" y="95" on="0"/>
        <pt x="45" y="181" on="1"/>
        <pt x="45" y="247" on="0"/>
        <pt x="116" y="334" on="0"/>
        <pt x="178" y="361" on="1"/>
        <pt x="124" y="388" on="0"/>
        <pt x="73" y="468" on="0"/>
        <pt x="73" y="521" on="1"/>
        <pt x="73" y="566" on="0"/>
        <pt x="108" y="634" on="0"/>
        <pt x="166" y="679" on="0"/>
        <pt x="240" y="701" on="0"/>
        <pt x="278" y="701" on="1"/>
        <pt x="316" y="701" on="0"/>
        <pt x="390" y="680" on="0"/>
        <pt x="447" y="637" on="0"/>
        <pt x="483" y="570" on="0"/>
        <pt x="483" y="525" on="1"/>
        <pt x="483" y="474" on="0"/>
        <pt x="425" y="398" on="0"/>
        <pt x="368" y="369" on="1"/>
        <pt x="435" y="342" on="0"/>
        <pt x="510" y="252" on="0"/>
        <pt x="510" y="184" on="1"/>
        <pt x="510" y="97" on="0"/>
        <pt x="378" y="-12" on="0"/>
      </contour>
      <contour>
        <pt x="297" y="393" on="1"/>
        <pt x="305" y="391" on="1"/>
        <pt x="351" y="416" on="0"/>
        <pt x="393" y="475" on="0"/>
        <pt x="393" y="520" on="1"/>
        <pt x="393" y="572" on="0"/>
        <pt x="332" y="632" on="0"/>
        <pt x="278" y="632" on="1"/>
        <pt x="225" y="632" on="0"/>
        <pt x="163" y="576" on="0"/>
        <pt x="163" y="520" on="1"/>
        <pt x="163" y="466" on="0"/>
        <pt x="232" y="413" on="0"/>
      </contour>
      <contour>
        <pt x="276" y="61" on="1"/>
        <pt x="340" y="61" on="0"/>
        <pt x="414" y="129" on="0"/>
        <pt x="414" y="181" on="1"/>
        <pt x="414" y="239" on="0"/>
        <pt x="349" y="304" on="0"/>
        <pt x="262" y="329" on="1"/>
        <pt x="240" y="337" on="1"/>
        <pt x="190" y="313" on="0"/>
        <pt x="141" y="239" on="0"/>
        <pt x="141" y="182" on="1"/>
        <pt x="141" y="124" on="0"/>
        <pt x="215" y="61" on="0"/>
      </contour>
    </TTGlyph>
    <TTGlyph name="eight.dnom" xMin="42" yMin="-9" xMax="358" yMax="424">
      <contour>
        <pt x="199" y="-9" on="1"/>
        <pt x="127" y="-9" on="0"/>
        <pt x="42" y="60" on="0"/>
        <pt x="42" y="111" on="1"/>
        <pt x="42" y="150" on="0"/>
        <pt x="87" y="201" on="0"/>
        <pt x="126" y="217" on="1"/>
        <pt x="92" y="235" on="0"/>
        <pt x="60" y="284" on="0"/>
        <pt x="60" y="315" on="1"/>
        <pt x="60" y="366" on="0"/>
        <pt x="144" y="424" on="0"/>
        <pt x="201" y="424" on="1"/>
        <pt x="256" y="424" on="0"/>
        <pt x="341" y="370" on="0"/>
        <pt x="341" y="318" on="1"/>
        <pt x="341" y="289" on="0"/>
        <pt x="306" y="242" on="0"/>
        <pt x="269" y="224" on="1"/>
        <pt x="313" y="205" on="0"/>
        <pt x="358" y="149" on="0"/>
        <pt x="358" y="112" on="1"/>
        <pt x="358" y="61" on="0"/>
        <pt x="271" y="-9" on="0"/>
      </contour>
      <contour>
        <pt x="205" y="248" on="1"/>
        <pt x="217" y="243" on="1"/>
        <pt x="243" y="259" on="0"/>
        <pt x="265" y="293" on="0"/>
        <pt x="265" y="315" on="1"/>
        <pt x="265" y="339" on="0"/>
        <pt x="232" y="370" on="0"/>
        <pt x="201" y="370" on="1"/>
        <pt x="171" y="370" on="0"/>
        <pt x="136" y="341" on="0"/>
        <pt x="136" y="314" on="1"/>
        <pt x="136" y="287" on="0"/>
        <pt x="172" y="258" on="0"/>
      </contour>
      <contour>
        <pt x="200" y="49" on="1"/>
        <pt x="237" y="49" on="0"/>
        <pt x="279" y="84" on="0"/>
        <pt x="279" y="112" on="1"/>
        <pt x="279" y="142" on="0"/>
        <pt x="242" y="174" on="0"/>
        <pt x="196" y="189" on="1"/>
        <pt x="176" y="196" on="1"/>
        <pt x="148" y="183" on="0"/>
        <pt x="122" y="141" on="0"/>
        <pt x="122" y="113" on="1"/>
        <pt x="122" y="83" on="0"/>
        <pt x="164" y="49" on="0"/>
      </contour>
    </TTGlyph>
    <TTGlyph name="eight.lf" xMin="45" yMin="-12" xMax="506" yMax="679">
      <contour>
        <pt x="274" y="-12" on="1"/>
        <pt x="171" y="-12" on="0"/>
        <pt x="45" y="95" on="0"/>
        <pt x="45" y="177" on="1"/>
        <pt x="45" y="241" on="0"/>
        <pt x="116" y="324" on="0"/>
        <pt x="177" y="351" on="1"/>
        <pt x="123" y="378" on="0"/>
        <pt x="73" y="456" on="0"/>
        <pt x="73" y="507" on="1"/>
        <pt x="73" y="549" on="0"/>
        <pt x="108" y="614" on="0"/>
        <pt x="165" y="657" on="0"/>
        <pt x="238" y="679" on="0"/>
        <pt x="276" y="679" on="1"/>
        <pt x="313" y="679" on="0"/>
        <pt x="386" y="658" on="0"/>
        <pt x="444" y="616" on="0"/>
        <pt x="479" y="553" on="0"/>
        <pt x="479" y="510" on="1"/>
        <pt x="479" y="459" on="0"/>
        <pt x="422" y="387" on="0"/>
        <pt x="365" y="359" on="1"/>
        <pt x="434" y="331" on="0"/>
        <pt x="506" y="242" on="0"/>
        <pt x="506" y="179" on="1"/>
        <pt x="506" y="95" on="0"/>
        <pt x="375" y="-12" on="0"/>
      </contour>
      <contour>
        <pt x="287" y="387" on="1"/>
        <pt x="304" y="381" on="1"/>
        <pt x="349" y="406" on="0"/>
        <pt x="389" y="464" on="0"/>
        <pt x="389" y="507" on="1"/>
        <pt x="389" y="553" on="0"/>
        <pt x="330" y="610" on="0"/>
        <pt x="276" y="610" on="1"/>
        <pt x="225" y="610" on="0"/>
        <pt x="163" y="556" on="0"/>
        <pt x="163" y="506" on="1"/>
        <pt x="163" y="455" on="0"/>
        <pt x="230" y="406" on="0"/>
      </contour>
      <contour>
        <pt x="275" y="61" on="1"/>
        <pt x="338" y="61" on="0"/>
        <pt x="410" y="126" on="0"/>
        <pt x="410" y="178" on="1"/>
        <pt x="410" y="232" on="0"/>
        <pt x="345" y="291" on="0"/>
        <pt x="264" y="319" on="1"/>
        <pt x="239" y="328" on="1"/>
        <pt x="190" y="304" on="0"/>
        <pt x="141" y="231" on="0"/>
        <pt x="141" y="177" on="1"/>
        <pt x="141" y="123" on="0"/>
        <pt x="213" y="61" on="0"/>
      </contour>
    </TTGlyph>
    <TTGlyph name="eight.numr" xMin="42" yMin="263" xMax="358" yMax="696">
      <component glyphName="eight.dnom" x="0" y="272" flags="0x4"/>
    </TTGlyph>
    <TTGlyph name="eight.osf" xMin="45" yMin="-12" xMax="506" yMax="679">
      <contour>
        <pt x="274" y="-12" on="1"/>
        <pt x="171" y="-12" on="0"/>
        <pt x="45" y="95" on="0"/>
        <pt x="45" y="177" on="1"/>
        <pt x="45" y="241" on="0"/>
        <pt x="116" y="324" on="0"/>
        <pt x="177" y="351" on="1"/>
        <pt x="123" y="378" on="0"/>
        <pt x="73" y="456" on="0"/>
        <pt x="73" y="507" on="1"/>
        <pt x="73" y="549" on="0"/>
        <pt x="108" y="614" on="0"/>
        <pt x="165" y="657" on="0"/>
        <pt x="238" y="679" on="0"/>
        <pt x="276" y="679" on="1"/>
        <pt x="313" y="679" on="0"/>
        <pt x="386" y="658" on="0"/>
        <pt x="444" y="616" on="0"/>
        <pt x="479" y="553" on="0"/>
        <pt x="479" y="510" on="1"/>
        <pt x="479" y="459" on="0"/>
        <pt x="422" y="387" on="0"/>
        <pt x="365" y="359" on="1"/>
        <pt x="434" y="331" on="0"/>
        <pt x="506" y="242" on="0"/>
        <pt x="506" y="179" on="1"/>
        <pt x="506" y="95" on="0"/>
        <pt x="375" y="-12" on="0"/>
      </contour>
      <contour>
        <pt x="287" y="387" on="1"/>
        <pt x="304" y="381" on="1"/>
        <pt x="349" y="406" on="0"/>
        <pt x="389" y="464" on="0"/>
        <pt x="389" y="507" on="1"/>
        <pt x="389" y="553" on="0"/>
        <pt x="330" y="610" on="0"/>
        <pt x="276" y="610" on="1"/>
        <pt x="225" y="610" on="0"/>
        <pt x="163" y="556" on="0"/>
        <pt x="163" y="506" on="1"/>
        <pt x="163" y="455" on="0"/>
        <pt x="230" y="406" on="0"/>
      </contour>
      <contour>
        <pt x="275" y="61" on="1"/>
        <pt x="338" y="61" on="0"/>
        <pt x="410" y="126" on="0"/>
        <pt x="410" y="178" on="1"/>
        <pt x="410" y="232" on="0"/>
        <pt x="345" y="291" on="0"/>
        <pt x="264" y="319" on="1"/>
        <pt x="239" y="328" on="1"/>
        <pt x="190" y="304" on="0"/>
        <pt x="141" y="231" on="0"/>
        <pt x="141" y="177" on="1"/>
        <pt x="141" y="123" on="0"/>
        <pt x="213" y="61" on="0"/>
      </contour>
    </TTGlyph>
    <TTGlyph name="eight.tosf" xMin="49" yMin="-12" xMax="514" yMax="679">
      <contour>
        <pt x="280" y="-12" on="1"/>
        <pt x="176" y="-12" on="0"/>
        <pt x="49" y="95" on="0"/>
        <pt x="49" y="177" on="1"/>
        <pt x="49" y="241" on="0"/>
        <pt x="120" y="324" on="0"/>
        <pt x="181" y="351" on="1"/>
        <pt x="127" y="378" on="0"/>
        <pt x="77" y="456" on="0"/>
        <pt x="77" y="507" on="1"/>
        <pt x="77" y="549" on="0"/>
        <pt x="112" y="614" on="0"/>
        <pt x="169" y="657" on="0"/>
        <pt x="243" y="679" on="0"/>
        <pt x="282" y="679" on="1"/>
        <pt x="320" y="679" on="0"/>
        <pt x="394" y="658" on="0"/>
        <pt x="451" y="616" on="0"/>
        <pt x="487" y="553" on="0"/>
        <pt x="487" y="510" on="1"/>
        <pt x="487" y="459" on="0"/>
        <pt x="430" y="387" on="0"/>
        <pt x="373" y="359" on="1"/>
        <pt x="442" y="331" on="0"/>
        <pt x="514" y="242" on="0"/>
        <pt x="514" y="179" on="1"/>
        <pt x="514" y="95" on="0"/>
        <pt x="383" y="-12" on="0"/>
      </contour>
      <contour>
        <pt x="293" y="386" on="1"/>
        <pt x="310" y="381" on="1"/>
        <pt x="356" y="406" on="0"/>
        <pt x="397" y="464" on="0"/>
        <pt x="397" y="507" on="1"/>
        <pt x="397" y="553" on="0"/>
        <pt x="338" y="610" on="0"/>
        <pt x="282" y="610" on="1"/>
        <pt x="229" y="610" on="0"/>
        <pt x="167" y="556" on="0"/>
        <pt x="167" y="506" on="1"/>
        <pt x="167" y="455" on="0"/>
        <pt x="234" y="404" on="0"/>
      </contour>
      <contour>
        <pt x="281" y="61" on="1"/>
        <pt x="345" y="61" on="0"/>
        <pt x="418" y="126" on="0"/>
        <pt x="418" y="178" on="1"/>
        <pt x="418" y="232" on="0"/>
        <pt x="351" y="291" on="0"/>
        <pt x="270" y="318" on="1"/>
        <pt x="243" y="327" on="1"/>
        <pt x="194" y="304" on="0"/>
        <pt x="145" y="231" on="0"/>
        <pt x="145" y="177" on="1"/>
        <pt x="145" y="123" on="0"/>
        <pt x="218" y="61" on="0"/>
      </contour>
    </TTGlyph>
    <TTGlyph name="eightinferior" xMin="42" yMin="-211" xMax="358" yMax="222">
      <component glyphName="eight.dnom" x="0" y="-202" flags="0x4"/>
    </TTGlyph>
    <TTGlyph name="eightsuperior" xMin="42" yMin="313" xMax="358" yMax="746">
      <component glyphName="eight.dnom" x="0" y="322" flags="0x4"/>
    </TTGlyph>
    <TTGlyph name="ellipsis" xMin="50" yMin="-12" xMax="687" yMax="127">
      <component glyphName="period" x="249" y="0" flags="0x4"/>
      <component glyphName="period" x="498" y="0" flags="0x4"/>
      <component glyphName="period" x="0" y="0" flags="0x204"/>
    </TTGlyph>
    <TTGlyph name="emacron" xMin="57" yMin="-12" xMax="493" yMax="736">
      <component glyphName="e" x="0" y="0" flags="0x204"/>
      <component glyphName="macron" x="112" y="0" flags="0x4"/>
    </TTGlyph>
    <TTGlyph name="emacron.sc" xMin="100" yMin="0" xMax="436" yMax="766">
      <component glyphName="macron.sc" x="101" y="0" flags="0x4"/>
      <component glyphName="e.sc" x="0" y="0" flags="0x204"/>
    </TTGlyph>
    <TTGlyph name="emdash" xMin="32" yMin="274" xMax="758" yMax="352">
      <contour>
        <pt x="758" y="274" on="1"/>
        <pt x="32" y="274" on="1"/>
        <pt x="32" y="352" on="1"/>
        <pt x="758" y="352" on="1"/>
      </contour>
    </TTGlyph>
    <TTGlyph name="emdash.case" xMin="32" yMin="319" xMax="758" yMax="397">
      <component glyphName="emdash" x="0" y="45" flags="0x4"/>
    </TTGlyph>
    <TTGlyph name="emptyset" xMin="84" yMin="-16" xMax="816" yMax="716">
      <contour>
        <pt x="451" y="-16" on="1"/>
        <pt x="396" y="-16" on="0"/>
        <pt x="292" y="15" on="0"/>
        <pt x="249" y="43" on="1"/>
        <pt x="209" y="-12" on="1"/>
        <pt x="138" y="-12" on="1"/>
        <pt x="204" y="78" on="1"/>
        <pt x="149" y="127" on="0"/>
        <pt x="84" y="268" on="0"/>
        <pt x="84" y="349" on="1"/>
        <pt x="84" y="425" on="0"/>
        <pt x="142" y="560" on="0"/>
        <pt x="241" y="659" on="0"/>
        <pt x="375" y="716" on="0"/>
        <pt x="451" y="716" on="1"/>
        <pt x="502" y="716" on="0"/>
        <pt x="597" y="690" on="0"/>
        <pt x="637" y="666" on="1"/>
        <pt x="671" y="712" on="1"/>
        <pt x="742" y="712" on="1"/>
        <pt x="684" y="633" on="1"/>
        <pt x="744" y="583" on="0"/>
        <pt x="816" y="435" on="0"/>
        <pt x="816" y="349" on="1"/>
        <pt x="816" y="273" on="0"/>
        <pt x="759" y="139" on="0"/>
        <pt x="660" y="41" on="0"/>
        <pt x="527" y="-16" on="0"/>
      </contour>
      <contour>
        <pt x="147" y="349" on="1"/>
        <pt x="147" y="283" on="0"/>
        <pt x="197" y="169" on="0"/>
        <pt x="240" y="127" on="1"/>
        <pt x="601" y="617" on="1"/>
        <pt x="568" y="636" on="0"/>
        <pt x="492" y="657" on="0"/>
        <pt x="451" y="657" on="1"/>
        <pt x="388" y="657" on="0"/>
        <pt x="276" y="608" on="0"/>
        <pt x="194" y="525" on="0"/>
        <pt x="147" y="412" on="0"/>
      </contour>
      <contour>
        <pt x="451" y="43" on="1"/>
        <pt x="514" y="43" on="0"/>
        <pt x="625" y="91" on="0"/>
        <pt x="706" y="173" on="0"/>
        <pt x="753" y="286" on="0"/>
        <pt x="753" y="349" on="1"/>
        <pt x="753" y="419" on="0"/>
        <pt x="697" y="541" on="0"/>
        <pt x="648" y="584" on="1"/>
        <pt x="285" y="92" on="1"/>
        <pt x="321" y="69" on="0"/>
        <pt x="405" y="43" on="0"/>
      </contour>
    </TTGlyph>
    <TTGlyph name="endash" xMin="32" yMin="274" xMax="488" yMax="352">
      <contour>
        <pt x="488" y="274" on="1"/>
        <pt x="32" y="274" on="1"/>
        <pt x="32" y="352" on="1"/>
        <pt x="488" y="352" on="1"/>
      </contour>
    </TTGlyph>
    <TTGlyph name="endash.case" xMin="32" yMin="319" xMax="488" yMax="397">
      <component glyphName="endash" x="0" y="45" flags="0x4"/>
    </TTGlyph>
    <TTGlyph name="eng" xMin="95" yMin="-212" xMax="496" yMax="539">
      <contour>
        <pt x="496" y="32" on="1"/>
        <pt x="496" y="-79" on="0"/>
        <pt x="413" y="-175" on="0"/>
        <pt x="329" y="-212" on="1"/>
        <pt x="302" y="-145" on="1"/>
        <pt x="353" y="-121" on="0"/>
        <pt x="404" y="-58" on="0"/>
        <pt x="404" y="26" on="1"/>
        <pt x="404" y="365" on="1"/>
        <pt x="404" y="424" on="0"/>
        <pt x="357" y="467" on="0"/>
        <pt x="320" y="467" on="1"/>
        <pt x="277" y="467" on="0"/>
        <pt x="213" y="416" on="0"/>
        <pt x="187" y="374" on="1"/>
        <pt x="187" y="0" on="1"/>
        <pt x="95" y="0" on="1"/>
        <pt x="95" y="527" on="1"/>
        <pt x="174" y="527" on="1"/>
        <pt x="182" y="449" on="1"/>
        <pt x="209" y="489" on="0"/>
        <pt x="292" y="539" on="0"/>
        <pt x="343" y="539" on="1"/>
        <pt x="415" y="539" on="0"/>
        <pt x="496" y="452" on="0"/>
        <pt x="496" y="378" on="1"/>
      </contour>
    </TTGlyph>
    <TTGlyph name="eng.sc" xMin="100" yMin="-212" xMax="525" yMax="564">
      <contour>
        <pt x="525" y="0" on="1"/>
        <pt x="525" y="-85" on="0"/>
        <pt x="442" y="-175" on="0"/>
        <pt x="358" y="-212" on="1"/>
        <pt x="332" y="-154" on="1"/>
        <pt x="389" y="-127" on="0"/>
        <pt x="447" y="-67" on="0"/>
        <pt x="447" y="0" on="1"/>
        <pt x="402" y="0" on="1"/>
        <pt x="172" y="473" on="1"/>
        <pt x="176" y="430" on="0"/>
        <pt x="185" y="324" on="0"/>
        <pt x="185" y="246" on="1"/>
        <pt x="185" y="0" on="1"/>
        <pt x="100" y="0" on="1"/>
        <pt x="100" y="564" on="1"/>
        <pt x="220" y="564" on="1"/>
        <pt x="453" y="89" on="1"/>
        <pt x="450" y="104" on="0"/>
        <pt x="440" y="222" on="0"/>
        <pt x="440" y="277" on="1"/>
        <pt x="440" y="564" on="1"/>
        <pt x="525" y="564" on="1"/>
      </contour>
    </TTGlyph>
    <TTGlyph name="eogonek" xMin="57" yMin="-226" xMax="493" yMax="539">
      <component glyphName="e" x="0" y="0" flags="0x204"/>
      <component glyphName="ogonek.thin" x="191" y="6" flags="0x4"/>
    </TTGlyph>
    <TTGlyph name="eogonek.sc" xMin="100" yMin="-232" xMax="436" yMax="564">
      <component glyphName="ogonek.thin.sc" x="208" y="0" flags="0x4"/>
      <component glyphName="e.sc" x="0" y="0" flags="0x204"/>
    </TTGlyph>
    <TTGlyph name="epsilon" xMin="57" yMin="-12" xMax="453" yMax="539">
      <contour>
        <pt x="78" y="398" on="1"/>
        <pt x="78" y="464" on="0"/>
        <pt x="179" y="539" on="0"/>
        <pt x="263" y="539" on="1"/>
        <pt x="318" y="539" on="0"/>
        <pt x="401" y="513" on="0"/>
        <pt x="434" y="490" on="1"/>
        <pt x="389" y="434" on="1"/>
        <pt x="363" y="450" on="0"/>
        <pt x="309" y="467" on="0"/>
        <pt x="272" y="467" on="1"/>
        <pt x="224" y="467" on="0"/>
        <pt x="173" y="426" on="0"/>
        <pt x="173" y="388" on="1"/>
        <pt x="173" y="353" on="0"/>
        <pt x="229" y="311" on="0"/>
        <pt x="277" y="311" on="1"/>
        <pt x="338" y="311" on="1"/>
        <pt x="327" y="239" on="1"/>
        <pt x="271" y="239" on="1"/>
        <pt x="210" y="239" on="0"/>
        <pt x="158" y="197" on="0"/>
        <pt x="158" y="151" on="1"/>
        <pt x="158" y="112" on="0"/>
        <pt x="216" y="62" on="0"/>
        <pt x="269" y="62" on="1"/>
        <pt x="311" y="62" on="0"/>
        <pt x="375" y="87" on="0"/>
        <pt x="409" y="109" on="1"/>
        <pt x="453" y="50" on="1"/>
        <pt x="416" y="21" on="0"/>
        <pt x="318" y="-12" on="0"/>
        <pt x="264" y="-12" on="1"/>
        <pt x="172" y="-12" on="0"/>
        <pt x="57" y="70" on="0"/>
        <pt x="57" y="144" on="1"/>
        <pt x="57" y="210" on="0"/>
        <pt x="129" y="274" on="0"/>
        <pt x="189" y="281" on="1"/>
        <pt x="136" y="290" on="0"/>
        <pt x="78" y="355" on="0"/>
      </contour>
    </TTGlyph>
    <TTGlyph name="epsilon.sc" xMin="100" yMin="0" xMax="436" yMax="564">
      <component glyphName="e.sc" x="0" y="0" flags="0x204"/>
    </TTGlyph>
    <TTGlyph name="epsilontonos" xMin="57" yMin="-12" xMax="453" yMax="812">
      <component glyphName="tonos" x="194" y="0" flags="0x4"/>
      <component glyphName="epsilon" x="0" y="0" flags="0x204"/>
    </TTGlyph>
    <TTGlyph name="epsilontonos.sc" xMin="100" yMin="0" xMax="436" yMax="564">
      <component glyphName="e.sc" x="0" y="0" flags="0x204"/>
    </TTGlyph>
    <TTGlyph name="equal" xMin="90" yMin="196" xMax="466" yMax="466">
      <component glyphName="equal.lf" x="28" y="0" flags="0x4"/>
    </TTGlyph>
    <TTGlyph name="equal.dnom" xMin="74" yMin="112" xMax="326" yMax="296">
      <contour>
        <pt x="326" y="233" on="1"/>
        <pt x="74" y="233" on="1"/>
        <pt x="74" y="296" on="1"/>
        <pt x="326" y="296" on="1"/>
      </contour>
      <contour>
        <pt x="326" y="112" on="1"/>
        <pt x="74" y="112" on="1"/>
        <pt x="74" y="175" on="1"/>
        <pt x="326" y="175" on="1"/>
      </contour>
    </TTGlyph>
    <TTGlyph name="equal.lf" xMin="62" yMin="196" xMax="438" yMax="466">
      <component glyphName="minus.lf" x="0" y="95" flags="0x4"/>
      <component glyphName="minus.lf" x="0" y="-98" flags="0x4"/>
    </TTGlyph>
    <TTGlyph name="equal.numr" xMin="74" yMin="389" xMax="326" yMax="573">
      <component glyphName="equal.dnom" x="0" y="277" flags="0x4"/>
    </TTGlyph>
    <TTGlyph name="equal.osf" xMin="62" yMin="196" xMax="438" yMax="466">
      <component glyphName="equal.lf" x="0" y="0" flags="0x204"/>
    </TTGlyph>
    <TTGlyph name="equal.tosf" xMin="90" yMin="196" xMax="466" yMax="466">
      <component glyphName="equal.lf" x="28" y="0" flags="0x4"/>
    </TTGlyph>
    <TTGlyph name="equalsuperior" xMin="74" yMin="427" xMax="326" yMax="611">
      <component glyphName="equal.dnom" x="0" y="315" flags="0x4"/>
    </TTGlyph>
    <TTGlyph name="estimated" xMin="70" yMin="-15" xMax="875" yMax="715">
      <contour>
        <pt x="875" y="339" on="1"/>
        <pt x="218" y="339" on="1"/>
        <pt x="218" y="121" on="1"/>
        <pt x="234" y="97" on="0"/>
        <pt x="291" y="61" on="0"/>
        <pt x="361" y="37" on="0"/>
        <pt x="438" y="24" on="0"/>
        <pt x="473" y="24" on="1"/>
        <pt x="543" y="24" on="0"/>
        <pt x="691" y="73" on="0"/>
        <pt x="733" y="122" on="1"/>
        <pt x="791" y="122" on="1"/>
        <pt x="737" y="59" on="0"/>
        <pt x="576" y="-15" on="0"/>
        <pt x="472" y="-15" on="1"/>
        <pt x="387" y="-15" on="0"/>
        <pt x="239" y="39" on="0"/>
        <pt x="131" y="135" on="0"/>
        <pt x="70" y="269" on="0"/>
        <pt x="70" y="347" on="1"/>
        <pt x="70" y="425" on="0"/>
        <pt x="134" y="561" on="0"/>
        <pt x="243" y="659" on="0"/>
        <pt x="390" y="715" on="0"/>
        <pt x="472" y="715" on="1"/>
        <pt x="552" y="715" on="0"/>
        <pt x="699" y="660" on="0"/>
        <pt x="809" y="561" on="0"/>
        <pt x="875" y="422" on="0"/>
      </contour>
      <contour>
        <pt x="727" y="379" on="1"/>
        <pt x="727" y="574" on="1"/>
        <pt x="685" y="620" on="0"/>
        <pt x="560" y="676" on="0"/>
        <pt x="473" y="676" on="1"/>
        <pt x="386" y="676" on="0"/>
        <pt x="256" y="621" on="0"/>
        <pt x="218" y="575" on="1"/>
        <pt x="218" y="379" on="1"/>
      </contour>
    </TTGlyph>
    <TTGlyph name="eta" xMin="75" yMin="-213" xMax="502" yMax="539">
      <contour>
        <pt x="502" y="-213" on="1"/>
        <pt x="410" y="-202" on="1"/>
        <pt x="410" y="365" on="1"/>
        <pt x="410" y="424" on="0"/>
        <pt x="365" y="467" on="0"/>
        <pt x="327" y="467" on="1"/>
        <pt x="283" y="467" on="0"/>
        <pt x="219" y="416" on="0"/>
        <pt x="193" y="374" on="1"/>
        <pt x="193" y="0" on="1"/>
        <pt x="101" y="0" on="1"/>
        <pt x="101" y="357" on="1"/>
        <pt x="101" y="414" on="0"/>
        <pt x="85" y="494" on="0"/>
        <pt x="75" y="527" on="1"/>
        <pt x="159" y="539" on="1"/>
        <pt x="166" y="523" on="0"/>
        <pt x="181" y="479" on="0"/>
        <pt x="186" y="446" on="1"/>
        <pt x="213" y="488" on="0"/>
        <pt x="297" y="539" on="0"/>
        <pt x="349" y="539" on="1"/>
        <pt x="421" y="539" on="0"/>
        <pt x="502" y="453" on="0"/>
        <pt x="502" y="378" on="1"/>
      </contour>
    </TTGlyph>
    <TTGlyph name="eta.sc" xMin="100" yMin="0" xMax="525" yMax="564">
      <component glyphName="h.sc" x="0" y="0" flags="0x204"/>
    </TTGlyph>
    <TTGlyph name="etatonos" xMin="75" yMin="-213" xMax="502" yMax="812">
      <component glyphName="tonos" x="230" y="0" flags="0x4"/>
      <component glyphName="eta" x="0" y="0" flags="0x204"/>
    </TTGlyph>
    <TTGlyph name="etatonos.sc" xMin="100" yMin="0" xMax="525" yMax="564">
      <component glyphName="h.sc" x="0" y="0" flags="0x204"/>
    </TTGlyph>
    <TTGlyph name="eth" xMin="57" yMin="-12" xMax="508" yMax="776">
      <contour>
        <pt x="278" y="-12" on="1"/>
        <pt x="186" y="-12" on="0"/>
        <pt x="57" y="117" on="0"/>
        <pt x="57" y="235" on="1"/>
        <pt x="57" y="279" on="0"/>
        <pt x="81" y="365" on="0"/>
        <pt x="131" y="433" on="0"/>
        <pt x="207" y="475" on="0"/>
        <pt x="258" y="475" on="1"/>
        <pt x="307" y="475" on="0"/>
        <pt x="379" y="439" on="0"/>
        <pt x="405" y="408" on="1"/>
        <pt x="393" y="470" on="0"/>
        <pt x="336" y="568" on="0"/>
        <pt x="286" y="607" on="1"/>
        <pt x="214" y="539" on="1"/>
        <pt x="151" y="571" on="1"/>
        <pt x="225" y="645" on="1"/>
        <pt x="196" y="658" on="0"/>
        <pt x="143" y="674" on="0"/>
        <pt x="112" y="680" on="1"/>
        <pt x="132" y="750" on="1"/>
        <pt x="174" y="742" on="0"/>
        <pt x="246" y="719" on="0"/>
        <pt x="281" y="702" on="1"/>
        <pt x="351" y="776" on="1"/>
        <pt x="405" y="729" on="1"/>
        <pt x="342" y="664" on="1"/>
        <pt x="435" y="594" on="0"/>
        <pt x="508" y="399" on="0"/>
        <pt x="508" y="265" on="1"/>
        <pt x="508" y="140" on="0"/>
        <pt x="379" y="-12" on="0"/>
      </contour>
      <contour>
        <pt x="277" y="61" on="1"/>
        <pt x="337" y="61" on="0"/>
        <pt x="415" y="165" on="0"/>
        <pt x="415" y="266" on="1"/>
        <pt x="415" y="282" on="0"/>
        <pt x="414" y="311" on="0"/>
        <pt x="413" y="325" on="1"/>
        <pt x="388" y="363" on="0"/>
        <pt x="319" y="403" on="0"/>
        <pt x="272" y="403" on="1"/>
        <pt x="202" y="403" on="0"/>
        <pt x="151" y="305" on="0"/>
        <pt x="151" y="239" on="1"/>
        <pt x="151" y="152" on="0"/>
        <pt x="221" y="61" on="0"/>
      </contour>
    </TTGlyph>
    <TTGlyph name="eth.sc" xMin="15" yMin="0" xMax="507" yMax="564">
      <contour>
        <pt x="224" y="0" on="1"/>
        <pt x="75" y="0" on="1"/>
        <pt x="75" y="256" on="1"/>
        <pt x="15" y="256" on="1"/>
        <pt x="15" y="325" on="1"/>
        <pt x="75" y="325" on="1"/>
        <pt x="75" y="564" on="1"/>
        <pt x="207" y="564" on="1"/>
        <pt x="264" y="564" on="0"/>
        <pt x="373" y="542" on="0"/>
        <pt x="456" y="482" on="0"/>
        <pt x="507" y="373" on="0"/>
        <pt x="507" y="286" on="1"/>
        <pt x="507" y="200" on="0"/>
        <pt x="455" y="89" on="0"/>
        <pt x="375" y="25" on="0"/>
        <pt x="273" y="0" on="0"/>
      </contour>
      <contour>
        <pt x="167" y="70" on="1"/>
        <pt x="231" y="70" on="1"/>
        <pt x="300" y="70" on="0"/>
        <pt x="410" y="153" on="0"/>
        <pt x="410" y="286" on="1"/>
        <pt x="410" y="353" on="0"/>
        <pt x="378" y="435" on="0"/>
        <pt x="327" y="479" on="0"/>
        <pt x="260" y="493" on="0"/>
        <pt x="225" y="493" on="1"/>
        <pt x="167" y="493" on="1"/>
        <pt x="167" y="325" on="1"/>
        <pt x="278" y="325" on="1"/>
        <pt x="278" y="256" on="1"/>
        <pt x="167" y="256" on="1"/>
      </contour>
    </TTGlyph>
    <TTGlyph name="exclam" xMin="51" yMin="-12" xMax="190" yMax="689">
      <contour>
        <pt x="68" y="689" on="1"/>
        <pt x="170" y="689" on="1"/>
        <pt x="160" y="230" on="1"/>
        <pt x="79" y="230" on="1"/>
      </contour>
      <contour>
        <pt x="51" y="58" on="1"/>
        <pt x="51" y="86" on="0"/>
        <pt x="91" y="127" on="0"/>
        <pt x="120" y="127" on="1"/>
        <pt x="150" y="127" on="0"/>
        <pt x="190" y="86" on="0"/>
        <pt x="190" y="58" on="1"/>
        <pt x="190" y="29" on="0"/>
        <pt x="150" y="-12" on="0"/>
        <pt x="120" y="-12" on="1"/>
        <pt x="91" y="-12" on="0"/>
        <pt x="51" y="29" on="0"/>
      </contour>
    </TTGlyph>
    <TTGlyph name="exclamdown" xMin="51" yMin="-202" xMax="190" yMax="495">
      <contour>
        <pt x="51" y="425" on="1"/>
        <pt x="51" y="454" on="0"/>
        <pt x="91" y="495" on="0"/>
        <pt x="121" y="495" on="1"/>
        <pt x="150" y="495" on="0"/>
        <pt x="190" y="454" on="0"/>
        <pt x="190" y="425" on="1"/>
        <pt x="190" y="397" on="0"/>
        <pt x="150" y="356" on="0"/>
        <pt x="121" y="356" on="1"/>
        <pt x="91" y="356" on="0"/>
        <pt x="51" y="397" on="0"/>
      </contour>
      <contour>
        <pt x="81" y="247" on="1"/>
        <pt x="162" y="247" on="1"/>
        <pt x="173" y="-202" on="1"/>
        <pt x="71" y="-202" on="1"/>
      </contour>
    </TTGlyph>
    <TTGlyph name="exclamdown.case" xMin="51" yMin="0" xMax="190" yMax="701">
      <contour>
        <pt x="190" y="631" on="1"/>
        <pt x="190" y="603" on="0"/>
        <pt x="150" y="562" on="0"/>
        <pt x="121" y="562" on="1"/>
        <pt x="91" y="562" on="0"/>
        <pt x="51" y="603" on="0"/>
        <pt x="51" y="631" on="1"/>
        <pt x="51" y="660" on="0"/>
        <pt x="91" y="701" on="0"/>
        <pt x="121" y="701" on="1"/>
        <pt x="150" y="701" on="0"/>
        <pt x="190" y="660" on="0"/>
      </contour>
      <contour>
        <pt x="173" y="0" on="1"/>
        <pt x="71" y="0" on="1"/>
        <pt x="81" y="459" on="1"/>
        <pt x="162" y="459" on="1"/>
      </contour>
    </TTGlyph>
    <TTGlyph name="f" xMin="10" yMin="0" xMax="395" yMax="750">
      <contour>
        <pt x="314" y="456" on="1"/>
        <pt x="196" y="456" on="1"/>
        <pt x="196" y="0" on="1"/>
        <pt x="104" y="0" on="1"/>
        <pt x="104" y="456" on="1"/>
        <pt x="10" y="456" on="1"/>
        <pt x="10" y="527" on="1"/>
        <pt x="104" y="527" on="1"/>
        <pt x="104" y="599" on="1"/>
        <pt x="104" y="665" on="0"/>
        <pt x="189" y="750" on="0"/>
        <pt x="269" y="750" on="1"/>
        <pt x="306" y="750" on="0"/>
        <pt x="364" y="736" on="0"/>
        <pt x="395" y="723" on="1"/>
        <pt x="366" y="656" on="1"/>
        <pt x="341" y="667" on="0"/>
        <pt x="294" y="676" on="0"/>
        <pt x="274" y="676" on="1"/>
        <pt x="231" y="676" on="0"/>
        <pt x="196" y="638" on="0"/>
        <pt x="196" y="600" on="1"/>
        <pt x="196" y="527" on="1"/>
        <pt x="324" y="527" on="1"/>
      </contour>
    </TTGlyph>
    <TTGlyph name="f.sc" xMin="100" yMin="0" xMax="424" yMax="564">
      <contour>
        <pt x="100" y="564" on="1"/>
        <pt x="424" y="564" on="1"/>
        <pt x="413" y="493" on="1"/>
        <pt x="192" y="493" on="1"/>
        <pt x="192" y="313" on="1"/>
        <pt x="383" y="313" on="1"/>
        <pt x="383" y="243" on="1"/>
        <pt x="192" y="243" on="1"/>
        <pt x="192" y="0" on="1"/>
        <pt x="100" y="0" on="1"/>
      </contour>
    </TTGlyph>
    <TTGlyph name="f_i" xMin="20" yMin="0" xMax="490" yMax="750">
      <component glyphName="fi" x="0" y="0" flags="0x204"/>
    </TTGlyph>
    <TTGlyph name="f_i.sc" xMin="100" yMin="0" xMax="642" yMax="564">
      <component glyphName="f.sc" x="0" y="0" flags="0x204"/>
      <component glyphName="i.sc" x="449" y="0" flags="0x4"/>
    </TTGlyph>
    <TTGlyph name="f_l" xMin="20" yMin="-12" xMax="582" yMax="750">
      <component glyphName="fl" x="0" y="0" flags="0x204"/>
    </TTGlyph>
    <TTGlyph name="f_l.sc" xMin="100" yMin="0" xMax="885" yMax="564">
      <component glyphName="l.sc" x="449" y="0" flags="0x4"/>
      <component glyphName="f.sc" x="0" y="0" flags="0x204"/>
    </TTGlyph>
    <TTGlyph name="fi" xMin="20" yMin="0" xMax="490" yMax="750">
      <contour>
        <pt x="104" y="596" on="1"/>
        <pt x="104" y="662" on="0"/>
        <pt x="190" y="750" on="0"/>
        <pt x="286" y="750" on="1"/>
        <pt x="330" y="750" on="0"/>
        <pt x="400" y="730" on="0"/>
        <pt x="432" y="714" on="1"/>
        <pt x="400" y="650" on="1"/>
        <pt x="375" y="662" on="0"/>
        <pt x="320" y="675" on="0"/>
        <pt x="289" y="675" on="1"/>
        <pt x="234" y="675" on="0"/>
        <pt x="196" y="634" on="0"/>
        <pt x="196" y="597" on="1"/>
        <pt x="196" y="527" on="1"/>
        <pt x="490" y="527" on="1"/>
        <pt x="490" y="0" on="1"/>
        <pt x="398" y="0" on="1"/>
        <pt x="398" y="456" on="1"/>
        <pt x="196" y="456" on="1"/>
        <pt x="196" y="0" on="1"/>
        <pt x="104" y="0" on="1"/>
        <pt x="104" y="456" on="1"/>
        <pt x="20" y="456" on="1"/>
        <pt x="20" y="527" on="1"/>
        <pt x="104" y="527" on="1"/>
      </contour>
    </TTGlyph>
    <TTGlyph name="fi.sc" xMin="100" yMin="0" xMax="642" yMax="564">
      <component glyphName="f.sc" x="0" y="0" flags="0x204"/>
      <component glyphName="i.sc" x="449" y="0" flags="0x4"/>
    </TTGlyph>
    <TTGlyph name="figuredash" xMin="23" yMin="294" xMax="533" yMax="372">
      <component glyphName="figuredash.lf" x="-2" y="0" flags="0x4"/>
    </TTGlyph>
    <TTGlyph name="figuredash.lf" xMin="25" yMin="294" xMax="535" yMax="372">
      <contour>
        <pt x="535" y="294" on="1"/>
        <pt x="25" y="294" on="1"/>
        <pt x="25" y="372" on="1"/>
        <pt x="535" y="372" on="1"/>
      </contour>
    </TTGlyph>
    <TTGlyph name="figuredash.osf" xMin="25" yMin="294" xMax="535" yMax="372">
      <component glyphName="figuredash.lf" x="0" y="0" flags="0x204"/>
    </TTGlyph>
    <TTGlyph name="figuredash.tosf" xMin="23" yMin="294" xMax="533" yMax="372">
      <component glyphName="figuredash.lf" x="-2" y="0" flags="0x4"/>
    </TTGlyph>
</ttFont>
